<?xml version="1.0" encoding="utf-8"?>
<!-- Generator: Adobe Illustrator 16.0.0, SVG Export Plug-In . SVG Version: 6.00 Build 0)  -->
<!DOCTYPE svg PUBLIC "-//W3C//DTD SVG 1.1//EN" "http://www.w3.org/Graphics/SVG/1.1/DTD/svg11.dtd" [
	<!ENTITY ns_extend "http://ns.adobe.com/Extensibility/1.0/">
	<!ENTITY ns_ai "http://ns.adobe.com/AdobeIllustrator/10.0/">
	<!ENTITY ns_graphs "http://ns.adobe.com/Graphs/1.0/">
	<!ENTITY ns_vars "http://ns.adobe.com/Variables/1.0/">
	<!ENTITY ns_imrep "http://ns.adobe.com/ImageReplacement/1.0/">
	<!ENTITY ns_sfw "http://ns.adobe.com/SaveForWeb/1.0/">
	<!ENTITY ns_custom "http://ns.adobe.com/GenericCustomNamespace/1.0/">
	<!ENTITY ns_adobe_xpath "http://ns.adobe.com/XPath/1.0/">
]>
<svg version="1.1" id="Capa_1" xmlns:x="&ns_extend;" xmlns:i="&ns_ai;" xmlns:graph="&ns_graphs;"
	 xmlns="http://www.w3.org/2000/svg" xmlns:xlink="http://www.w3.org/1999/xlink" x="0px" y="0px" width="24px" height="24px"
	 viewBox="0 0 24 24" enable-background="new 0 0 24 24" xml:space="preserve">
<metadata>
	<sfw  xmlns="&ns_sfw;">
		<slices></slices>
		<sliceSourceBounds  height="10.73" width="18" y="391.135" x="296.5" bottomLeftOrigin="true"></sliceSourceBounds>
	</sfw>
</metadata>
<path fill="#FF0000" d="M12,6.635c-3.439,0-6.558,1.881-8.859,4.938c-0.188,0.25-0.188,0.6,0,0.85
	c2.302,3.06,5.42,4.942,8.859,4.942c3.439,0,6.558-1.882,8.859-4.938c0.188-0.25,0.188-0.6,0-0.851
	C18.558,8.517,15.439,6.635,12,6.635z M12.247,15.777c-2.283,0.145-4.168-1.737-4.024-4.024C8.34,9.868,9.868,8.34,11.753,8.222
	c2.283-0.144,4.168,1.738,4.024,4.025C15.656,14.129,14.129,15.656,12.247,15.777z M12.133,14.033
	c-1.23,0.076-2.247-0.936-2.166-2.166c0.063-1.016,0.888-1.837,1.904-1.904c1.23-0.077,2.246,0.935,2.165,2.165
	C13.97,13.148,13.145,13.97,12.133,14.033z"/>
</svg>
