<?xml version="1.0" encoding="utf-8"?>
<!-- Generator: Adobe Illustrator 16.0.0, SVG Export Plug-In . SVG Version: 6.00 Build 0)  -->
<!DOCTYPE svg PUBLIC "-//W3C//DTD SVG 1.1//EN" "http://www.w3.org/Graphics/SVG/1.1/DTD/svg11.dtd" [
	<!ENTITY ns_extend "http://ns.adobe.com/Extensibility/1.0/">
	<!ENTITY ns_ai "http://ns.adobe.com/AdobeIllustrator/10.0/">
	<!ENTITY ns_graphs "http://ns.adobe.com/Graphs/1.0/">
	<!ENTITY ns_vars "http://ns.adobe.com/Variables/1.0/">
	<!ENTITY ns_imrep "http://ns.adobe.com/ImageReplacement/1.0/">
	<!ENTITY ns_sfw "http://ns.adobe.com/SaveForWeb/1.0/">
	<!ENTITY ns_custom "http://ns.adobe.com/GenericCustomNamespace/1.0/">
	<!ENTITY ns_adobe_xpath "http://ns.adobe.com/XPath/1.0/">
]>
<svg version="1.1" id="Capa_1" xmlns:x="&ns_extend;" xmlns:i="&ns_ai;" xmlns:graph="&ns_graphs;"
	 xmlns="http://www.w3.org/2000/svg" xmlns:xlink="http://www.w3.org/1999/xlink" x="0px" y="0px" width="24px" height="24px"
	 viewBox="0 0 24 24" enable-background="new 0 0 24 24" xml:space="preserve">
<metadata>
	<sfw  xmlns="&ns_sfw;">
		<slices></slices>
		<sliceSourceBounds  height="12.707" width="18" y="390.646" x="296.5" bottomLeftOrigin="true"></sliceSourceBounds>
	</sfw>
</metadata>
<path fill="none" stroke="#FF0000" stroke-miterlimit="10" d="M6,5.5l12,12"/>
<path fill="#FF0000" d="M18.482,14.922c0.861-0.703,1.659-1.541,2.377-2.495c0.188-0.25,0.188-0.6,0-0.851
	c-2.302-3.06-5.42-4.941-8.859-4.941c-0.562,0-1.114,0.05-1.657,0.147l1.438,1.438c2.262-0.126,4.125,1.733,3.998,3.998
	L18.482,14.922z M11.47,10.031l2.499,2.499c-0.225,0.828-0.961,1.449-1.836,1.504c-1.23,0.076-2.247-0.936-2.166-2.166
	C10.021,10.989,10.646,10.256,11.47,10.031z M10.142,8.703c-1.083,0.614-1.838,1.747-1.92,3.051
	c-0.144,2.287,1.742,4.168,4.024,4.024c1.301-0.084,2.433-0.84,3.048-1.922l1.953,1.953c-1.602,1-3.377,1.557-5.248,1.557
	c-3.439,0-6.558-1.882-8.859-4.942c-0.188-0.25-0.188-0.6,0-0.85c1.533-2.035,3.427-3.549,5.538-4.334L10.142,8.703z"/>
</svg>
