<?xml version="1.0" encoding="utf-8"?>
<!-- Generator: Adobe Illustrator 16.0.0, SVG Export Plug-In . SVG Version: 6.00 Build 0)  -->
<!DOCTYPE svg PUBLIC "-//W3C//DTD SVG 1.1//EN" "http://www.w3.org/Graphics/SVG/1.1/DTD/svg11.dtd" [
	<!ENTITY ns_extend "http://ns.adobe.com/Extensibility/1.0/">
	<!ENTITY ns_ai "http://ns.adobe.com/AdobeIllustrator/10.0/">
	<!ENTITY ns_graphs "http://ns.adobe.com/Graphs/1.0/">
	<!ENTITY ns_vars "http://ns.adobe.com/Variables/1.0/">
	<!ENTITY ns_imrep "http://ns.adobe.com/ImageReplacement/1.0/">
	<!ENTITY ns_sfw "http://ns.adobe.com/SaveForWeb/1.0/">
	<!ENTITY ns_custom "http://ns.adobe.com/GenericCustomNamespace/1.0/">
	<!ENTITY ns_adobe_xpath "http://ns.adobe.com/XPath/1.0/">
]>
<svg version="1.1" id="Capa_1" xmlns:x="&ns_extend;" xmlns:i="&ns_ai;" xmlns:graph="&ns_graphs;"
	 xmlns="http://www.w3.org/2000/svg" xmlns:xlink="http://www.w3.org/1999/xlink" x="0px" y="0px" width="20px" height="16px"
	 viewBox="0 0 20 16" enable-background="new 0 0 20 16" xml:space="preserve">
<metadata>
	<sfw  xmlns="&ns_sfw;">
		<slices></slices>
		<sliceSourceBounds  height="12.785" width="12.667" x="299.168" y="390.107" bottomLeftOrigin="true"></sliceSourceBounds>
	</sfw>
</metadata>
<g>
	<path fill="#FFFFFF" d="M4.955,11.609c0.147-0.188,0.408-0.248,0.579-0.133l0.779,0.524c0.169,0.119,0.188,0.365,0.04,0.556
		L5.286,13.92c0.72,0.098,1.551-0.15,2.223-0.738c0.159-0.138,0.301-0.287,0.423-0.447c0.001-0.002,0.002-0.004,0.005-0.004
		c0.085-0.096,0.152-0.197,0.205-0.304c0.054-0.108,0.088-0.223,0.108-0.334l0,0c0.011-0.077,0.022-0.146,0.021-0.218
		c0.022-0.201,0.053-0.493,0.09-0.673c0.06-0.287,0.271-0.675,0.271-0.675l1.95-1.704l0.006,0.002l1.928-1.679
		c0,0,0.475-0.369,0.947-0.378c0.473-0.014,0.846,0.013,0.846,0.013l0,0c0.231,0.019,0.479-0.037,0.699-0.162
		c0.135-0.075,0.256-0.168,0.364-0.29c0,0,0,0,0-0.001c0.911-0.843,1.201-2.066,0.741-2.939l-1.071,1.364
		C14.895,4.941,14.634,5,14.463,4.882l-0.777-0.527c-0.17-0.115-0.19-0.362-0.041-0.552l1.069-1.361
		c-0.721-0.101-1.552,0.146-2.222,0.732c-0.16,0.139-0.303,0.289-0.428,0.447c-0.002,0.002-0.002,0.004-0.002,0.005
		c-0.086,0.094-0.15,0.198-0.205,0.303c-0.056,0.107-0.088,0.221-0.111,0.333l0,0c-0.01,0.078-0.021,0.145-0.021,0.218
		c-0.021,0.202-0.054,0.495-0.091,0.671c-0.062,0.29-0.271,0.675-0.271,0.675L9.406,7.531L9.405,7.528L7.478,9.209
		c0,0-0.473,0.368-0.947,0.383C6.059,9.604,5.684,9.577,5.684,9.577h0.001c-0.23-0.017-0.479,0.039-0.7,0.165
		c-0.133,0.076-0.253,0.167-0.363,0.289c-0.001,0.001-0.001,0.001-0.001,0.001c-0.909,0.846-1.198,2.067-0.735,2.94L4.955,11.609z"
		/>
	<path fill="#FFFFFF" d="M5.822,1.608l0.12,0.107l1.001,0.9c0.29,0.261,0.381,0.613,0.31,0.913l4.517,5.117l-0.588,0.545
		L6.663,4.066C6.361,4.104,6.019,3.973,5.799,3.663L5.056,2.53l-0.09-0.135L5.822,1.608z"/>
	<path fill="#FFFFFF" d="M11.559,8.563l0.351-0.322c0.082-0.076,0.217-0.069,0.312,0.035l0.041,0.05
		c0.006,0.005,0.008,0.014,0.014,0.019c0,0.004,0,0.006,0.002,0.007c0.006,0.006,0.006,0.01,0.01,0.014
		c0.002,0.002,0.003,0.007,0.003,0.007c0.003,0.005,0.006,0.007,0.008,0.013c0,0.002,0.001,0.005,0.005,0.01c0,0,0,0,0.002,0
		c0.002,0.011,0.01,0.023,0.012,0.03c0,0.001,0,0.004,0.002,0.005c0.002,0.004,0.002,0.01,0.002,0.017l0,0
		c0.003,0.001,0.003,0.001,0.003,0.001c0.001,0.001,0.002,0.006,0.003,0.008l0.004,0.007c0,0,0.007,0.007,0.007,0.009l0.05-0.044
		c0.047-0.042,0.122-0.042,0.174,0.016l3.435,3.897c0.407,0.466,0.46,1.14,0.099,1.476l-0.425,0.39
		c-0.364,0.333-1.012,0.206-1.419-0.257l-3.434-3.896c-0.053-0.061-0.047-0.136,0-0.178l0.067-0.063l0,0
		c0,0-0.012-0.008-0.016-0.011c-0.001-0.002-0.007-0.006-0.007-0.006c-0.006-0.001-0.01-0.006-0.016-0.007
		c0,0-0.004-0.003-0.008-0.004c-0.003-0.004-0.008-0.005-0.016-0.01c-0.002-0.002-0.008-0.004-0.012-0.01
		c-0.004,0-0.004-0.002-0.008-0.004c-0.004-0.004-0.008-0.004-0.012-0.009C10.79,9.75,10.786,9.75,10.784,9.748
		c-0.003-0.006-0.009-0.007-0.011-0.012c-0.004-0.002,0-0.008-0.002-0.01c-0.006-0.004-0.008-0.015-0.013-0.021L10.715,9.66
		c-0.085-0.1-0.098-0.219-0.029-0.294l0.211-0.194l0.127-0.113l0,0l0.533-0.498L11.559,8.563z"/>
	<path fill="#FF0000" d="M15.449,13.093c0.102,0.116,0.262,0.144,0.354,0.058s0.084-0.25-0.02-0.365L12.656,9.23
		c-0.104-0.117-0.264-0.144-0.355-0.059c-0.093,0.086-0.085,0.251,0.018,0.366L15.449,13.093z"/>
	<path fill="#FF0000" d="M14.691,13.789c0.104,0.116,0.258,0.146,0.35,0.063c0.093-0.084,0.079-0.246-0.023-0.361l-3.127-3.553
		c-0.105-0.119-0.26-0.148-0.353-0.063c-0.093,0.085-0.078,0.243,0.024,0.361L14.691,13.789z"/>
</g>
</svg>
