<?xml version="1.0" encoding="utf-8"?>
<!-- Generator: Adobe Illustrator 16.0.0, SVG Export Plug-In . SVG Version: 6.00 Build 0)  -->
<!DOCTYPE svg PUBLIC "-//W3C//DTD SVG 1.1//EN" "http://www.w3.org/Graphics/SVG/1.1/DTD/svg11.dtd" [
	<!ENTITY ns_extend "http://ns.adobe.com/Extensibility/1.0/">
	<!ENTITY ns_ai "http://ns.adobe.com/AdobeIllustrator/10.0/">
	<!ENTITY ns_graphs "http://ns.adobe.com/Graphs/1.0/">
	<!ENTITY ns_vars "http://ns.adobe.com/Variables/1.0/">
	<!ENTITY ns_imrep "http://ns.adobe.com/ImageReplacement/1.0/">
	<!ENTITY ns_sfw "http://ns.adobe.com/SaveForWeb/1.0/">
	<!ENTITY ns_custom "http://ns.adobe.com/GenericCustomNamespace/1.0/">
	<!ENTITY ns_adobe_xpath "http://ns.adobe.com/XPath/1.0/">
]>
<svg version="1.1" id="Capa_1" xmlns:x="&ns_extend;" xmlns:i="&ns_ai;" xmlns:graph="&ns_graphs;"
	 xmlns="http://www.w3.org/2000/svg" xmlns:xlink="http://www.w3.org/1999/xlink" x="0px" y="0px" width="16px" height="16px"
	 viewBox="0 0 16 16" enable-background="new 0 0 16 16" xml:space="preserve">
<metadata>
	<sfw  xmlns="&ns_sfw;">
		<slices></slices>
		<sliceSourceBounds  height="15.59" width="11.381" y="388.705" x="299.81" bottomLeftOrigin="true"></sliceSourceBounds>
	</sfw>
</metadata>
<g>
	<polygon fill="#570000" points="13.69,10.85 7.999,7.688 2.31,10.805 7.999,13.889 	"/>
	<polygon fill="#570000" points="13.69,6.953 7.999,3.792 2.31,6.909 7.999,9.992 	"/>
	<polygon fill="#CC3328" points="13.69,5.515 13.69,3.366 7.999,6.406 7.999,8.555 	"/>
	<polygon fill="#CC3328" points="7.999,9.969 7.999,15.795 13.69,12.756 13.69,6.93 	"/>
	<polygon fill="#A71B20" points="2.31,3.321 2.31,5.235 6.007,7.242 6.007,8.877 2.31,6.871 2.31,9.16 6.007,11.166 6.007,12.801 
		2.31,10.795 2.31,12.709 7.999,15.795 7.999,6.406 	"/>
	<polygon fill="#570000" points="13.69,3.366 7.999,0.205 2.31,3.321 7.999,6.406 	"/>
</g>
</svg>
