<?xml version="1.0" encoding="utf-8"?>
<!-- Generator: Adobe Illustrator 16.0.0, SVG Export Plug-In . SVG Version: 6.00 Build 0)  -->
<!DOCTYPE svg PUBLIC "-//W3C//DTD SVG 1.1//EN" "http://www.w3.org/Graphics/SVG/1.1/DTD/svg11.dtd" [
	<!ENTITY ns_extend "http://ns.adobe.com/Extensibility/1.0/">
	<!ENTITY ns_ai "http://ns.adobe.com/AdobeIllustrator/10.0/">
	<!ENTITY ns_graphs "http://ns.adobe.com/Graphs/1.0/">
	<!ENTITY ns_vars "http://ns.adobe.com/Variables/1.0/">
	<!ENTITY ns_imrep "http://ns.adobe.com/ImageReplacement/1.0/">
	<!ENTITY ns_sfw "http://ns.adobe.com/SaveForWeb/1.0/">
	<!ENTITY ns_custom "http://ns.adobe.com/GenericCustomNamespace/1.0/">
	<!ENTITY ns_adobe_xpath "http://ns.adobe.com/XPath/1.0/">
]>
<svg version="1.1" id="Capa_1" xmlns:x="&ns_extend;" xmlns:i="&ns_ai;" xmlns:graph="&ns_graphs;"
	 xmlns="http://www.w3.org/2000/svg" xmlns:xlink="http://www.w3.org/1999/xlink" x="0px" y="0px" width="20px" height="16px"
	 viewBox="0 0 20 16" enable-background="new 0 0 20 16" xml:space="preserve">
<metadata>
	<sfw  xmlns="&ns_sfw;">
		<slices></slices>
		<sliceSourceBounds  height="14" width="5.317" x="302.842" y="389.5" bottomLeftOrigin="true"></sliceSourceBounds>
	</sfw>
</metadata>
<g>
	<polygon fill="#FFFFFF" points="9.753,5.52 9.753,3.503 10.586,3.503 9.26,1 7.924,3.503 8.791,3.503 8.791,5.52 	"/>
	<path fill="#FFFFFF" d="M8.976,13.243l3.185,0.016c0,0,0.528-0.192,0.481-0.608l0.017-2.93c0,0-0.339-0.828-0.949-0.008
		L11.678,9.75c0,0,0.121-0.514-0.094-0.663c0,0-0.427-0.532-0.873,0.165c0,0,0.109-0.742-0.303-0.816c0,0-0.4-0.191-0.672,0.361
		c0,0,0.04-1.298-0.001-1.412c0,0,0.117-0.931-0.437-0.921c0,0-0.703-0.127-0.492,1.332L8.795,10.05c0,0,0.014,0.449-0.289,0.216
		L8.051,9.463c0,0-0.361-0.188-0.583-0.033C7.244,9.582,7.381,9.884,7.416,9.979C7.416,9.979,8.86,13.288,8.976,13.243z"/>
	<path fill="#FFFFFF" d="M11.932,13.986l-2.539-0.002c-0.144,0-0.263-0.116-0.263-0.264v-0.373c0-0.146,0.119-0.265,0.264-0.265
		l2.538,0.001c0.146,0,0.264,0.119,0.264,0.264v0.375C12.195,13.868,12.076,13.986,11.932,13.986z"/>
	<rect x="8.854" y="13.939" fill="#FFFFFF" width="3.619" height="1.061"/>
</g>
</svg>
