<?xml version="1.0" encoding="utf-8"?>
<!-- Generator: Adobe Illustrator 16.0.0, SVG Export Plug-In . SVG Version: 6.00 Build 0)  -->
<!DOCTYPE svg PUBLIC "-//W3C//DTD SVG 1.1//EN" "http://www.w3.org/Graphics/SVG/1.1/DTD/svg11.dtd" [
	<!ENTITY ns_extend "http://ns.adobe.com/Extensibility/1.0/">
	<!ENTITY ns_ai "http://ns.adobe.com/AdobeIllustrator/10.0/">
	<!ENTITY ns_graphs "http://ns.adobe.com/Graphs/1.0/">
	<!ENTITY ns_vars "http://ns.adobe.com/Variables/1.0/">
	<!ENTITY ns_imrep "http://ns.adobe.com/ImageReplacement/1.0/">
	<!ENTITY ns_sfw "http://ns.adobe.com/SaveForWeb/1.0/">
	<!ENTITY ns_custom "http://ns.adobe.com/GenericCustomNamespace/1.0/">
	<!ENTITY ns_adobe_xpath "http://ns.adobe.com/XPath/1.0/">
]>
<svg version="1.1" id="Capa_1" xmlns:x="&ns_extend;" xmlns:i="&ns_ai;" xmlns:graph="&ns_graphs;"
	 xmlns="http://www.w3.org/2000/svg" xmlns:xlink="http://www.w3.org/1999/xlink" x="0px" y="0px" width="20px" height="16px"
	 viewBox="0 0 20 16" enable-background="new 0 0 20 16" xml:space="preserve">
<metadata>
	<sfw  xmlns="&ns_sfw;">
		<slices></slices>
		<sliceSourceBounds  height="12.756" width="13.158" x="298.921" y="390.122" bottomLeftOrigin="true"></sliceSourceBounds>
	</sfw>
</metadata>
<g>
	<g>
		<g>
			<path fill="#FFFFFF" d="M16.137,3.167h-2.163c-1.157-0.997-2.632-1.545-4.16-1.545c-1.705,0-3.307,0.664-4.511,1.868
				C4.144,4.65,3.485,6.175,3.437,7.807H3.421v0.387h0.016c0.048,1.63,0.707,3.157,1.866,4.317c1.204,1.204,2.806,1.867,4.511,1.867
				c1.703,0,3.304-0.663,4.509-1.867S16.19,9.701,16.19,8c0-0.39-0.036-0.781-0.105-1.16h0.052c0.244,0,0.442-0.199,0.442-0.441
				V3.608C16.579,3.365,16.381,3.167,16.137,3.167z M5.575,3.763c0.619-0.617,1.349-1.084,2.146-1.381
				C7.342,2.68,6.992,3.061,6.68,3.519C6.498,3.787,6.334,4.074,6.189,4.377C5.886,4.522,5.598,4.685,5.33,4.869
				c-0.457,0.31-0.838,0.66-1.136,1.04C4.491,5.111,4.957,4.382,5.575,3.763z M5.952,4.936C5.623,5.809,5.438,6.788,5.417,7.807
				H3.828C3.91,6.657,4.718,5.633,5.952,4.936z M5.417,8.194c0.021,1.019,0.206,1.997,0.535,2.871
				C4.718,10.366,3.91,9.343,3.828,8.194H5.417z M5.575,12.236c-0.619-0.618-1.084-1.348-1.381-2.145
				c0.297,0.38,0.679,0.729,1.136,1.039c0.268,0.185,0.556,0.347,0.859,0.492c0.145,0.303,0.309,0.591,0.491,0.857
				c0.312,0.459,0.662,0.839,1.042,1.138C6.924,13.321,6.194,12.855,5.575,12.236z M9.62,13.984
				c-1.151-0.081-2.175-0.89-2.873-2.124c0.874,0.329,1.854,0.514,2.873,0.534V13.984L9.62,13.984z M9.62,12.008
				c-1.16-0.024-2.237-0.271-3.14-0.675c-0.406-0.905-0.652-1.981-0.677-3.139H9.62V12.008z M9.62,7.807H5.804
				C5.829,6.649,6.075,5.573,6.48,4.668C7.383,4.263,8.46,4.017,9.62,3.992V7.807L9.62,7.807z M9.62,3.605
				c-1.02,0.021-2,0.206-2.873,0.535C7.445,2.906,8.469,2.097,9.62,2.017V3.605L9.62,3.605z M13.354,3.167h-0.668
				c-0.243-0.303-0.505-0.565-0.783-0.781C12.418,2.576,12.906,2.839,13.354,3.167z M10.006,2.017
				c0.782,0.056,1.538,0.457,2.17,1.15h-1.151c-0.244,0-0.442,0.198-0.442,0.441v0.026c-0.19-0.015-0.383-0.025-0.577-0.03V2.017
				L10.006,2.017z M10.006,3.992c0.193,0.003,0.387,0.016,0.577,0.031v2.376c0,0.243,0.198,0.441,0.442,0.441h2.721
				c0.043,0.318,0.066,0.641,0.075,0.967h-3.815V3.992z M10.006,8.194h3.815c-0.026,1.158-0.272,2.234-0.678,3.139
				c-0.903,0.404-1.979,0.65-3.137,0.675V8.194z M10.006,12.395c1.019-0.021,1.997-0.205,2.87-0.534
				c-0.696,1.234-1.721,2.043-2.87,2.124V12.395z M14.05,12.236c-0.62,0.619-1.35,1.085-2.146,1.382
				c0.378-0.299,0.729-0.679,1.04-1.138c0.182-0.267,0.345-0.555,0.49-0.857c0.303-0.146,0.592-0.308,0.86-0.492
				c0.457-0.31,0.837-0.659,1.135-1.039C15.134,10.889,14.668,11.618,14.05,12.236z M13.672,11.064
				c0.329-0.874,0.514-1.852,0.535-2.871h1.59C15.714,9.343,14.905,10.366,13.672,11.064z M14.137,6.84h1.41
				c0.143,0.313,0.227,0.638,0.25,0.967h-1.59C14.199,7.482,14.176,7.158,14.137,6.84z M16.188,6.399L16.188,6.399
				c0,0.028-0.022,0.052-0.052,0.052h-5.111c-0.029,0-0.053-0.023-0.053-0.052V3.608c0-0.028,0.023-0.052,0.053-0.052h5.111
				c0.029,0,0.052,0.024,0.052,0.052V6.399z"/>
		</g>
	</g>
	<g>
		<g>
			<rect x="11.552" y="5.678" fill="#FFFFFF" width="0.388" height="0.391"/>
		</g>
	</g>
	<g>
		<g>
			<rect x="12.325" y="5.678" fill="#FFFFFF" width="0.387" height="0.391"/>
		</g>
	</g>
	<g>
		<g>
			<rect x="13.098" y="5.678" fill="#FFFFFF" width="0.387" height="0.391"/>
		</g>
	</g>
	<g>
		<g>
			<rect x="13.871" y="5.678" fill="#FFFFFF" width="0.386" height="0.391"/>
		</g>
	</g>
	<g>
		<g>
			<rect x="14.644" y="5.678" fill="#FFFFFF" width="0.387" height="0.391"/>
		</g>
	</g>
	<g>
		<g>
			<rect x="11.552" y="4.712" fill="#FFFFFF" width="0.967" height="0.39"/>
		</g>
	</g>
	<g>
		<g>
			<rect x="12.905" y="4.712" fill="#FFFFFF" width="0.966" height="0.39"/>
		</g>
	</g>
	<g>
		<g>
			<rect x="11.552" y="3.939" fill="#FFFFFF" width="3.479" height="0.39"/>
		</g>
	</g>
</g>
</svg>
