<?xml version="1.0" encoding="utf-8"?>
<!-- Generator: Adobe Illustrator 16.0.0, SVG Export Plug-In . SVG Version: 6.00 Build 0)  -->
<!DOCTYPE svg PUBLIC "-//W3C//DTD SVG 1.1//EN" "http://www.w3.org/Graphics/SVG/1.1/DTD/svg11.dtd" [
	<!ENTITY ns_extend "http://ns.adobe.com/Extensibility/1.0/">
	<!ENTITY ns_ai "http://ns.adobe.com/AdobeIllustrator/10.0/">
	<!ENTITY ns_graphs "http://ns.adobe.com/Graphs/1.0/">
	<!ENTITY ns_vars "http://ns.adobe.com/Variables/1.0/">
	<!ENTITY ns_imrep "http://ns.adobe.com/ImageReplacement/1.0/">
	<!ENTITY ns_sfw "http://ns.adobe.com/SaveForWeb/1.0/">
	<!ENTITY ns_custom "http://ns.adobe.com/GenericCustomNamespace/1.0/">
	<!ENTITY ns_adobe_xpath "http://ns.adobe.com/XPath/1.0/">
]>
<svg version="1.1" id="Capa_1" xmlns:x="&ns_extend;" xmlns:i="&ns_ai;" xmlns:graph="&ns_graphs;"
	 xmlns="http://www.w3.org/2000/svg" xmlns:xlink="http://www.w3.org/1999/xlink" x="0px" y="0px" width="21px" height="24px"
	 viewBox="0 0 21 24" enable-background="new 0 0 21 24" xml:space="preserve">
<metadata>
	<sfw  xmlns="&ns_sfw;">
		<slices></slices>
		<sliceSourceBounds  height="16.568" width="17.79" x="296.605" y="388.489" bottomLeftOrigin="true"></sliceSourceBounds>
	</sfw>
</metadata>
<g>
	<path fill="#FFFFFF" d="M14.307,17.416c0.027-0.414,0.055-0.807,0.076-1.199c0.096-1.615,0.188-3.23,0.28-4.846
		c0.006-0.1,0.012-0.2,0.009-0.3c-0.007-0.193-0.117-0.316-0.306-0.351c-0.228-0.042-0.345-0.162-0.329-0.34
		c0.016-0.172,0.158-0.287,0.382-0.287c0.812-0.003,1.624-0.003,2.437,0c0.213,0.001,0.351,0.114,0.365,0.283
		c0.016,0.185-0.095,0.302-0.322,0.343c-0.205,0.037-0.323,0.183-0.312,0.401c0.058,1.034,0.121,2.067,0.181,3.103
		c0.055,0.916,0.104,1.832,0.157,2.747c0.009,0.142,0.019,0.281,0.028,0.445c0.132,0,0.254,0,0.375,0
		c0.385,0.004,0.641,0.226,0.641,0.555c0,0.33-0.258,0.556-0.64,0.556c-1.63,0.002-3.261,0.002-4.892,0.002
		c-2.919,0-5.838-0.002-8.758-0.002c-0.329,0-0.546-0.137-0.624-0.387c-0.111-0.357,0.143-0.703,0.533-0.722
		c0.146-0.006,0.292-0.002,0.455-0.002c0.019-0.283,0.039-0.554,0.055-0.82c0.063-1.1,0.124-2.196,0.188-3.297
		c0.04-0.703,0.083-1.409,0.127-2.114c0.018-0.284-0.077-0.416-0.351-0.47c-0.187-0.037-0.288-0.155-0.281-0.326
		c0.007-0.161,0.132-0.284,0.317-0.293c0.188-0.009,0.376-0.005,0.564-0.005c0.606-0.001,1.213,0,1.819,0.001
		c0.059,0,0.117-0.002,0.176,0.004c0.171,0.017,0.296,0.136,0.307,0.287c0.011,0.17-0.091,0.291-0.276,0.33
		c-0.277,0.057-0.373,0.169-0.356,0.447c0.075,1.322,0.155,2.644,0.232,3.964c0.041,0.705,0.083,1.41,0.115,2.115
		c0.006,0.137,0.042,0.182,0.183,0.18c0.718-0.008,1.437-0.008,2.154,0c0.146,0.002,0.173-0.051,0.18-0.182
		c0.1-1.773,0.204-3.549,0.307-5.322c0.016-0.259,0.033-0.518,0.043-0.776c0.009-0.257-0.092-0.376-0.344-0.425
		c-0.197-0.038-0.305-0.161-0.291-0.335c0.013-0.156,0.145-0.283,0.328-0.284c0.841-0.005,1.683-0.006,2.525-0.001
		c0.186,0.001,0.315,0.128,0.328,0.283c0.014,0.176-0.093,0.3-0.289,0.338c-0.257,0.051-0.359,0.178-0.346,0.441
		c0.088,1.499,0.18,2.995,0.266,4.493c0.031,0.522,0.062,1.047,0.082,1.569c0.006,0.144,0.039,0.203,0.201,0.199
		c0.7-0.008,1.4-0.004,2.102-0.004C14.166,17.416,14.225,17.416,14.307,17.416z"/>
	<path fill="#FFFFFF" d="M10.502,9.348c-2.626,0-5.251-0.001-7.876,0.001c-0.328,0-0.563-0.136-0.702-0.436
		C1.848,8.748,1.761,8.587,1.681,8.424C1.537,8.131,1.593,7.953,1.884,7.801c1.382-0.719,2.765-1.436,4.147-2.152
		c1.342-0.696,2.685-1.389,4.023-2.088c0.303-0.158,0.586-0.157,0.889,0c2.698,1.402,5.395,2.801,8.093,4.199
		c0.026,0.014,0.053,0.027,0.077,0.041c0.293,0.156,0.352,0.339,0.201,0.64c-0.078,0.157-0.16,0.313-0.235,0.473
		c-0.14,0.301-0.374,0.436-0.702,0.436c-2.02-0.003-4.038-0.001-6.057-0.001C11.715,9.348,11.107,9.348,10.502,9.348z M11.286,6.155
		c0.054,0,0.083,0.001,0.112,0c0.252-0.006,0.326-0.117,0.229-0.354c-0.103-0.251-0.304-0.38-0.558-0.443
		c-0.122-0.03-0.229-0.063-0.267-0.216c-0.017-0.066-0.117-0.162-0.171-0.156c-0.07,0.006-0.168,0.089-0.19,0.158
		c-0.04,0.126-0.115,0.182-0.229,0.216c-0.084,0.025-0.17,0.052-0.249,0.089C9.658,5.595,9.507,5.846,9.51,6.182
		c0.002,0.321,0.181,0.524,0.468,0.641c0.13,0.053,0.264,0.097,0.397,0.141c0.145,0.049,0.296,0.082,0.436,0.142
		c0.188,0.081,0.232,0.267,0.115,0.421c-0.148,0.199-0.563,0.191-0.669-0.031C10.122,7.21,9.986,7.225,9.668,7.248
		C9.521,7.257,9.461,7.366,9.496,7.513C9.578,7.878,9.84,8.041,10.181,8.11c0.128,0.025,0.228,0.063,0.265,0.215
		c0.016,0.06,0.114,0.142,0.169,0.138c0.067-0.006,0.168-0.08,0.185-0.144c0.036-0.137,0.123-0.185,0.239-0.229
		c0.141-0.056,0.292-0.105,0.408-0.196c0.472-0.365,0.379-1.09-0.165-1.323c-0.179-0.076-0.369-0.121-0.55-0.187
		c-0.121-0.043-0.246-0.084-0.354-0.15c-0.147-0.09-0.154-0.238-0.035-0.356c0.151-0.149,0.448-0.126,0.551,0.059
		C10.988,6.107,11.116,6.187,11.286,6.155z"/>
	<path fill="#FFFFFF" d="M10.5,18.9c2.631,0,5.264,0,7.895,0c0.436,0,0.709,0.315,0.611,0.703c-0.063,0.254-0.289,0.405-0.609,0.405
		c-1.064,0.002-2.131,0.002-3.195,0.002c-4.191,0-8.383,0-12.576-0.002c-0.385,0-0.631-0.2-0.645-0.524
		c-0.013-0.344,0.23-0.582,0.606-0.582C3.411,18.898,4.235,18.9,5.059,18.9C6.873,18.9,8.686,18.9,10.5,18.9z"/>
</g>
</svg>
