<?xml version="1.0" encoding="utf-8"?>
<!-- Generator: Adobe Illustrator 16.0.0, SVG Export Plug-In . SVG Version: 6.00 Build 0)  -->
<!DOCTYPE svg PUBLIC "-//W3C//DTD SVG 1.1//EN" "http://www.w3.org/Graphics/SVG/1.1/DTD/svg11.dtd" [
	<!ENTITY ns_extend "http://ns.adobe.com/Extensibility/1.0/">
	<!ENTITY ns_ai "http://ns.adobe.com/AdobeIllustrator/10.0/">
	<!ENTITY ns_graphs "http://ns.adobe.com/Graphs/1.0/">
	<!ENTITY ns_vars "http://ns.adobe.com/Variables/1.0/">
	<!ENTITY ns_imrep "http://ns.adobe.com/ImageReplacement/1.0/">
	<!ENTITY ns_sfw "http://ns.adobe.com/SaveForWeb/1.0/">
	<!ENTITY ns_custom "http://ns.adobe.com/GenericCustomNamespace/1.0/">
	<!ENTITY ns_adobe_xpath "http://ns.adobe.com/XPath/1.0/">
]>
<svg version="1.1" id="Capa_1" xmlns:x="&ns_extend;" xmlns:i="&ns_ai;" xmlns:graph="&ns_graphs;"
	 xmlns="http://www.w3.org/2000/svg" xmlns:xlink="http://www.w3.org/1999/xlink" x="0px" y="0px" width="20px" height="16px"
	 viewBox="0 0 20 16" enable-background="new 0 0 20 16" xml:space="preserve">
<metadata>
	<sfw  xmlns="&ns_sfw;">
		<slices></slices>
		<sliceSourceBounds  height="14.212" width="43.992" x="269.44" y="389.375" bottomLeftOrigin="true"></sliceSourceBounds>
	</sfw>
</metadata>
<g>
	<path fill="#FFFFFF" d="M15.156,6.168c-0.143,0.157-0.35,0.238-0.559,0.238c-0.156,0-0.315-0.046-0.447-0.141l-1.469-1.058l0,0
		v5.384c0,0.246-0.228,0.448-0.507,0.448H9.908c0.009-0.021,0.017-0.045,0.017-0.071V8.855c0-0.107-0.098-0.194-0.219-0.194h-1.91
		c-0.12,0-0.218,0.087-0.218,0.194v2.111c0,0.026,0.006,0.051,0.018,0.071H5.331c-0.279,0-0.505-0.202-0.505-0.448V5.207
		L3.357,6.266C3.05,6.487,2.6,6.443,2.351,6.168c-0.247-0.274-0.2-0.678,0.108-0.901l5.845-4.211c0.263-0.19,0.637-0.19,0.899,0
		l1.859,1.341V1.832c0-0.204,0.181-0.369,0.403-0.369h0.816c0.223,0,0.403,0.166,0.403,0.369v1.734l2.358,1.701
		C15.354,5.49,15.402,5.894,15.156,6.168z"/>
	<polygon fill="#709DC1" points="11.568,4.248 11.566,4.258 11.566,4.247 	"/>
	<g>
		<g>
			<g>
				<path fill="#FF0000" d="M17.684,7.744c-0.004-0.083-0.08-0.143-0.162-0.126c-0.045,0.008-0.088,0.015-0.133,0.022
					c-0.27,0.043-0.539,0.065-0.813,0.063c-0.229-0.003-0.456-0.022-0.683-0.064c-0.187-0.036-0.371-0.086-0.554-0.15
					c-0.146-0.052-0.286-0.116-0.421-0.189c-0.105-0.057-0.205-0.12-0.3-0.188c-0.034-0.025-0.068-0.052-0.104-0.08
					c-0.031-0.026-0.062-0.06-0.105-0.063c-0.041-0.002-0.077,0.022-0.109,0.048c-0.052,0.043-0.107,0.086-0.167,0.127
					c-0.101,0.069-0.207,0.132-0.315,0.19c-0.144,0.072-0.291,0.133-0.444,0.185c-0.185,0.061-0.375,0.107-0.569,0.137
					c-0.229,0.035-0.464,0.05-0.697,0.047c-0.276-0.005-0.555-0.035-0.83-0.085c-0.08-0.016-0.156,0.042-0.162,0.126
					c-0.043,0.719-0.158,3.735,0.9,5.062c1.116,1.396,2.079,1.95,2.327,2.073c0.037,0.017,0.082,0.017,0.12,0
					c0.247-0.123,1.219-0.672,2.325-2.073C17.834,11.473,17.729,8.463,17.684,7.744z"/>
			</g>
		</g>
		<g>
			<path fill="#FFFFFF" stroke="#FF0000" stroke-width="0.3752" stroke-miterlimit="10" d="M17.719,7.789
				c-0.004-0.084-0.08-0.143-0.163-0.127c-0.044,0.008-0.089,0.017-0.132,0.023c-0.271,0.043-0.541,0.064-0.814,0.063
				c-0.229-0.002-0.456-0.021-0.684-0.063c-0.186-0.036-0.37-0.085-0.553-0.149c-0.145-0.053-0.287-0.117-0.42-0.19
				c-0.105-0.057-0.205-0.12-0.301-0.188c-0.033-0.026-0.068-0.052-0.104-0.08c-0.031-0.026-0.063-0.06-0.106-0.062
				c-0.041-0.002-0.079,0.022-0.108,0.048c-0.053,0.043-0.108,0.086-0.168,0.126c-0.101,0.07-0.207,0.132-0.315,0.191
				c-0.144,0.072-0.29,0.133-0.444,0.185c-0.185,0.061-0.375,0.107-0.568,0.137c-0.229,0.035-0.465,0.051-0.697,0.047
				c-0.278-0.004-0.555-0.035-0.83-0.086c-0.081-0.016-0.157,0.043-0.162,0.127c-0.044,0.719-0.158,3.734,0.9,5.063
				c1.115,1.396,2.078,1.95,2.326,2.073c0.037,0.017,0.082,0.017,0.121,0c0.246-0.123,1.217-0.674,2.324-2.073
				C17.869,11.518,17.763,8.508,17.719,7.789z M16.188,10.196l-1.964,2.18c-0.077,0.088-0.188,0.132-0.296,0.132
				c-0.084,0-0.166-0.025-0.237-0.077l-0.753-0.561c-0.176-0.131-0.215-0.377-0.083-0.558c0.131-0.174,0.381-0.213,0.559-0.08
				l0.463,0.343l1.722-1.912c0.147-0.162,0.397-0.176,0.562-0.027C16.322,9.782,16.336,10.034,16.188,10.196z"/>
		</g>
	</g>
</g>
<g>
	<circle fill="#FF0000" cx="-23.64" cy="5.555" r="2.339"/>
	<path fill="#FFFFFF" d="M-25.171,7.431c-0.06-0.051-0.117-0.104-0.174-0.16c-0.459-0.453-0.711-1.062-0.715-1.705
		c-0.007-1.334,1.074-2.422,2.406-2.43c1.336-0.004,2.425,1.076,2.43,2.407c0.002,0.646-0.244,1.257-0.699,1.716
		c-0.457,0.459-1.062,0.711-1.709,0.715C-24.198,7.976-24.736,7.785-25.171,7.431z M-22.157,3.74
		c-0.407-0.332-0.928-0.533-1.491-0.529c-0.629,0.004-1.216,0.25-1.657,0.693c-0.441,0.444-0.683,1.034-0.68,1.661
		c0.002,0.625,0.249,1.214,0.693,1.654c0.443,0.44,1.033,0.682,1.66,0.68s1.215-0.248,1.655-0.69
		c0.44-0.447,0.683-1.035,0.681-1.662l0,0C-21.298,4.82-21.636,4.168-22.157,3.74z"/>
	<circle fill="#FFFFFF" cx="-23.64" cy="5.555" r="2.083"/>
</g>
<path fill="#FF0000" d="M-23.842,6.885c-0.294-0.015-0.582-0.078-0.856-0.195L-24.7,6.016c0.155,0.078,0.327,0.146,0.512,0.197
	c0.185,0.053,0.348,0.077,0.484,0.077c0.116,0,0.199-0.016,0.254-0.043c0.053-0.026,0.08-0.073,0.08-0.139
	c0-0.045-0.021-0.084-0.059-0.113c-0.038-0.03-0.104-0.065-0.194-0.104c-0.089-0.039-0.212-0.086-0.364-0.142
	c-0.17-0.063-0.313-0.135-0.416-0.213c-0.107-0.078-0.185-0.168-0.232-0.266s-0.073-0.219-0.073-0.365
	c-0.002-0.225,0.07-0.397,0.214-0.524c0.143-0.127,0.356-0.205,0.645-0.236V3.696l0.419-0.002l0.002,0.444
	c0.269,0.015,0.541,0.08,0.815,0.197l-0.24,0.577c-0.282-0.127-0.539-0.188-0.768-0.188c-0.107,0-0.183,0.014-0.228,0.039
	c-0.046,0.029-0.065,0.066-0.065,0.119c0,0.043,0.018,0.08,0.047,0.109c0.034,0.028,0.088,0.063,0.168,0.098
	c0.078,0.035,0.188,0.076,0.326,0.123c0.283,0.1,0.486,0.213,0.611,0.34c0.123,0.127,0.186,0.293,0.188,0.494
	c0,0.227-0.07,0.412-0.214,0.555c-0.146,0.145-0.354,0.23-0.63,0.268l0.002,0.543l-0.422,0.002L-23.842,6.885z"/>
</svg>
