<?xml version="1.0" encoding="utf-8"?>
<!-- Generator: Adobe Illustrator 16.0.0, SVG Export Plug-In . SVG Version: 6.00 Build 0)  -->
<!DOCTYPE svg PUBLIC "-//W3C//DTD SVG 1.1//EN" "http://www.w3.org/Graphics/SVG/1.1/DTD/svg11.dtd" [
	<!ENTITY ns_extend "http://ns.adobe.com/Extensibility/1.0/">
	<!ENTITY ns_ai "http://ns.adobe.com/AdobeIllustrator/10.0/">
	<!ENTITY ns_graphs "http://ns.adobe.com/Graphs/1.0/">
	<!ENTITY ns_vars "http://ns.adobe.com/Variables/1.0/">
	<!ENTITY ns_imrep "http://ns.adobe.com/ImageReplacement/1.0/">
	<!ENTITY ns_sfw "http://ns.adobe.com/SaveForWeb/1.0/">
	<!ENTITY ns_custom "http://ns.adobe.com/GenericCustomNamespace/1.0/">
	<!ENTITY ns_adobe_xpath "http://ns.adobe.com/XPath/1.0/">
]>
<svg version="1.1" id="Capa_1" xmlns:x="&ns_extend;" xmlns:i="&ns_ai;" xmlns:graph="&ns_graphs;"
	 xmlns="http://www.w3.org/2000/svg" xmlns:xlink="http://www.w3.org/1999/xlink" x="0px" y="0px" width="20px" height="16px"
	 viewBox="0 0 20 16" enable-background="new 0 0 20 16" xml:space="preserve">
<metadata>
	<sfw  xmlns="&ns_sfw;">
		<slices></slices>
		<sliceSourceBounds  height="12.756" width="16.637" x="297.181" y="390.122" bottomLeftOrigin="true"></sliceSourceBounds>
	</sfw>
</metadata>
<g id="outline">
	<path fill="#FFFFFF" d="M7.226,11.587v0.295c0.001,0.459,0.374,0.83,0.833,0.83h3.636c0.763,0.752,1.993,0.738,2.74-0.027
		c0.751-0.768,0.737-1.994-0.028-2.745c-0.294-0.287-0.673-0.475-1.079-0.532V4.671c0-0.152-0.126-0.277-0.278-0.277H8.059
		c-0.46,0-0.832,0.374-0.833,0.833v1.404c-1.368,0.15-2.354,1.384-2.202,2.755C5.153,10.546,6.069,11.46,7.226,11.587L7.226,11.587z
		 M14.436,11.328c0,0.765-0.62,1.384-1.386,1.384c-0.768,0-1.388-0.619-1.388-1.384c0-0.767,0.62-1.389,1.388-1.389
		C13.815,9.941,14.436,10.563,14.436,11.328z M8.059,4.948h4.712v0.556H8.059c-0.154,0-0.277-0.125-0.277-0.277
		S7.905,4.948,8.059,4.948z M7.782,6.011C7.87,6.043,7.964,6.058,8.059,6.058h4.712v3.35c-0.531,0.075-1.011,0.374-1.32,0.817
		c-0.021-0.004-0.044-0.009-0.065-0.009h-0.83c-0.154,0-0.279,0.128-0.279,0.279s0.125,0.277,0.279,0.277h0.634
		c-0.138,0.459-0.099,0.954,0.106,1.386H8.059c-0.154,0-0.277-0.123-0.277-0.276v-0.295c1.368-0.149,2.355-1.384,2.202-2.751
		C9.927,8.318,9.708,7.832,9.361,7.444h2.301c0.156,0,0.279-0.123,0.279-0.277c0-0.153-0.123-0.277-0.279-0.277H8.645
		c-0.27-0.14-0.563-0.229-0.863-0.259V6.011z M7.504,7.167c1.072,0,1.941,0.87,1.941,1.941c0,1.072-0.869,1.942-1.941,1.942
		c-1.07,0-1.94-0.87-1.94-1.942C5.564,8.037,6.434,7.169,7.504,7.167z"/>
	<path fill="#FFFFFF" d="M17.484,1.622H2.512C2.053,1.623,1.681,1.995,1.681,2.454v11.092c0,0.458,0.372,0.832,0.831,0.832h14.973
		c0.462,0,0.833-0.374,0.834-0.832V2.454C18.317,1.995,17.946,1.623,17.484,1.622z M17.764,13.546c0,0.152-0.125,0.278-0.279,0.278
		H2.512c-0.152,0-0.277-0.126-0.277-0.278V3.84h15.529V13.546z M17.764,3.287H2.235V2.454c0-0.154,0.125-0.277,0.277-0.277h14.973
		c0.154,0,0.279,0.123,0.279,0.277V3.287z"/>
	<path fill="#FFFFFF" d="M7.226,10.458v0.037c0,0.151,0.126,0.277,0.278,0.277c0.152,0,0.278-0.126,0.278-0.277v-0.037
		c0.416-0.13,0.647-0.576,0.517-0.991C8.235,9.263,8.09,9.091,7.898,8.994L7.357,8.727c-0.115-0.06-0.164-0.202-0.105-0.319
		c0.04-0.081,0.122-0.129,0.211-0.129h0.082c0.13,0,0.237,0.105,0.237,0.236v0.041c0,0.153,0.123,0.276,0.277,0.276
		s0.277-0.123,0.277-0.276V8.515c0-0.346-0.224-0.653-0.554-0.754V7.722c0-0.152-0.126-0.278-0.278-0.278
		c-0.152,0-0.278,0.125-0.278,0.278V7.76C6.81,7.889,6.579,8.334,6.708,8.75C6.773,8.955,6.918,9.126,7.11,9.223l0.54,0.269
		C7.766,9.55,7.814,9.693,7.756,9.81c-0.04,0.081-0.122,0.13-0.211,0.13H7.463c-0.13,0-0.237-0.105-0.237-0.237v-0.04
		c0-0.153-0.123-0.276-0.277-0.276c-0.152,0-0.277,0.123-0.277,0.276v0.04C6.672,10.049,6.896,10.355,7.226,10.458z"/>
	<path fill="#FFFFFF" d="M11.662,8h-0.83c-0.154,0-0.276,0.125-0.276,0.278c0,0.151,0.122,0.277,0.276,0.277h0.83
		c0.156,0,0.279-0.126,0.279-0.277C11.941,8.125,11.818,8,11.662,8z"/>
	<path fill="#FFFFFF" d="M15.545,2.454h-0.279c-0.15,0-0.277,0.125-0.277,0.277c0,0.154,0.127,0.277,0.277,0.277h0.279
		c0.151,0,0.277-0.123,0.277-0.277C15.822,2.579,15.696,2.454,15.545,2.454z"/>
	<path fill="#FFFFFF" d="M16.931,2.454h-0.276c-0.154,0-0.277,0.125-0.277,0.277c0,0.154,0.123,0.277,0.277,0.277h0.276
		c0.154,0,0.277-0.123,0.277-0.277C17.208,2.579,17.085,2.454,16.931,2.454z"/>
	<path fill="#FFFFFF" d="M13.798,11.13c-0.105-0.106-0.281-0.106-0.391,0l0,0l-0.079,0.084v-0.719c0-0.151-0.126-0.279-0.278-0.279
		s-0.278,0.128-0.278,0.279v0.719L12.69,11.13c-0.109-0.106-0.285-0.106-0.391,0c-0.108,0.11-0.108,0.286,0,0.392l0.554,0.557
		c0.108,0.106,0.284,0.106,0.391,0l0,0l0.554-0.557C13.908,11.416,13.908,11.24,13.798,11.13L13.798,11.13z"/>
</g>
</svg>
