<?xml version="1.0" encoding="utf-8"?>
<!-- Generator: Adobe Illustrator 16.0.0, SVG Export Plug-In . SVG Version: 6.00 Build 0)  -->
<!DOCTYPE svg PUBLIC "-//W3C//DTD SVG 1.1//EN" "http://www.w3.org/Graphics/SVG/1.1/DTD/svg11.dtd" [
	<!ENTITY ns_extend "http://ns.adobe.com/Extensibility/1.0/">
	<!ENTITY ns_ai "http://ns.adobe.com/AdobeIllustrator/10.0/">
	<!ENTITY ns_graphs "http://ns.adobe.com/Graphs/1.0/">
	<!ENTITY ns_vars "http://ns.adobe.com/Variables/1.0/">
	<!ENTITY ns_imrep "http://ns.adobe.com/ImageReplacement/1.0/">
	<!ENTITY ns_sfw "http://ns.adobe.com/SaveForWeb/1.0/">
	<!ENTITY ns_custom "http://ns.adobe.com/GenericCustomNamespace/1.0/">
	<!ENTITY ns_adobe_xpath "http://ns.adobe.com/XPath/1.0/">
]>
<svg version="1.1" id="Capa_1" xmlns:x="&ns_extend;" xmlns:i="&ns_ai;" xmlns:graph="&ns_graphs;"
	 xmlns="http://www.w3.org/2000/svg" xmlns:xlink="http://www.w3.org/1999/xlink" x="0px" y="0px" width="20px" height="20px"
	 viewBox="0 0 20 20" enable-background="new 0 0 20 20" xml:space="preserve">
<metadata>
	<sfw  xmlns="&ns_sfw;">
		<slices></slices>
		<sliceSourceBounds  height="28.431" width="17.21" x="296.895" y="390.002" bottomLeftOrigin="true"></sliceSourceBounds>
	</sfw>
</metadata>
<g>
	<path fill="#FFFFFF" d="M13.418,9.02c-0.145-0.115-0.301-0.228-0.469-0.311C13.117,8.792,13.273,8.936,13.418,9h0.002
		C13.42,9,13.42,9.021,13.418,9.02z"/>
	<g>
		<path fill="#FFFFFF" d="M18.605,9.061v5.933c0,0.838-0.617,1.504-1.453,1.504H2.858c-0.835,0-1.463-0.666-1.463-1.504V9.061h7.627
			c-0.146,0.24-0.271,0.438-0.369,0.67c-0.119,0.283-0.197,0.584-0.235,0.885c-0.018,0.138-0.026,0.28-0.026,0.419
			c0,0.182,0.015,0.363,0.043,0.54c0.004,0.028,0.009,0.056,0.014,0.082c0.002,0.015-0.017,0.028-0.015,0.043
			c0.016,0.08,0.036,0.161,0.036,0.241l0,0c0,0.025,0.037,0.052,0.046,0.078c0.007,0.025,0.028,0.054,0.037,0.08
			c0.026,0.077,0.065,0.141,0.097,0.217c0.053,0.123,0.13,0.281,0.188,0.344l0,0c0.03,0.119,0.063,0.129,0.101,0.185
			c0.044,0.066,0.061,0.14,0.108,0.202c0.017,0.021,0.021,0.046,0.021,0.068v0.002c0,0.021,0.12,0.043,0.12,0.061v0.002
			c0,0.021,0,0.04,0,0.061v0.002c0.061,0.027,0.075,0.059,0.103,0.088c0.019,0.02,0.077,0.038,0.077,0.059l0,0
			c0,0.047,0.095,0.092,0.144,0.137c0.03,0.026,0.058,0.053,0.09,0.08c0.02,0.016,0.04,0.031,0.062,0.047
			c0.021,0.018,0.042,0.035,0.062,0.052c0.011,0.005,0.021,0.015,0.033,0.022c0.129,0.094,0.264,0.179,0.406,0.252
			c0.012,0.006,0.024,0.014,0.034,0.02c0.025,0.011,0.048,0.023,0.073,0.036c0.048,0.022,0.095,0.045,0.146,0.065
			c0.409,0.174,0.846,0.26,1.292,0.26c0.447,0,0.883-0.086,1.291-0.26c0.396-0.168,0.752-0.406,1.058-0.711
			c0.305-0.306,0.543-0.66,0.709-1.057c0.174-0.408,0.264-0.846,0.264-1.291c0-0.448-0.09-0.898-0.264-1.309
			c-0.099-0.232-0.222-0.43-0.367-0.67L18.605,9.061L18.605,9.061z"/>
		<path fill="#FFFFFF" d="M18.605,6.762v1.939h-4.469c-0.025,0-0.052-0.019-0.078-0.044c-0.306-0.305-0.66-0.525-1.058-0.692
			c-0.408-0.173-0.844-0.251-1.291-0.251c-0.446,0-0.883,0.091-1.292,0.265c-0.395,0.167-0.75,0.372-1.054,0.676
			C9.338,8.681,9.312,8.701,9.287,8.701H1.395V6.762c0-0.806,0.595-1.479,1.4-1.479h14.421C18.021,5.284,18.605,5.956,18.605,6.762z
			"/>
		<path fill="#FFFFFF" d="M14.189,11.048c0,0.065-0.004,0.128-0.01,0.192c-0.08,1.064-0.832,1.943-1.832,2.216
			c-0.031,0.006-0.062,0.015-0.091,0.021c-0.021,0.006-0.041,0.012-0.062,0.015c-0.02,0.005-0.041,0.009-0.061,0.012
			c-0.094,0.019-0.186,0.029-0.281,0.035c-0.021,0.001-0.043,0.002-0.063,0.002c-0.033,0.001-0.063,0.001-0.097,0.001
			c-1.313,0-2.388-1.012-2.485-2.3c-0.006-0.064-0.007-0.127-0.007-0.192c0-0.063,0.001-0.121,0.006-0.182
			c0.025-0.352,0.123-0.68,0.279-0.977C9.49,9.879,9.494,9.869,9.5,9.86C9.515,9.83,9.548,9.8,9.548,9.77l0,0
			c0-0.029,0.039-0.06,0.058-0.087c0.012-0.019,0.025-0.039,0.038-0.057c0.138-0.197,0.303-0.374,0.49-0.524
			c0.158-0.125,0.331-0.233,0.517-0.318c0.316-0.146,0.67-0.228,1.043-0.228c0.371,0,0.726,0.082,1.041,0.228
			c0.021,0.011,0.048,0.021,0.068,0.033c0.16,0.079,0.311,0.175,0.447,0.285c0,0.001,0.002,0.001,0.004,0.002
			c0.186,0.149,0.348,0.325,0.486,0.522c0.014,0.018,0.012,0.038,0.023,0.057c0.02,0.028,0.041,0.058,0.041,0.087l0,0
			c0.12,0.03,0.051,0.06,0.065,0.09c0.006,0.01,0.019,0.019,0.022,0.03c0.154,0.297,0.256,0.625,0.281,0.977
			C14.182,10.927,14.189,10.986,14.189,11.048z"/>
		<polygon fill="#FFFFFF" points="8.313,4.025 4.525,4.025 2.632,5.883 10.208,5.883 		"/>
	</g>
	<circle fill="#FF0000" cx="2.335" cy="10.243" r="0.487"/>
</g>
</svg>
