<?xml version="1.0" encoding="utf-8"?>
<!-- Generator: Adobe Illustrator 16.0.0, SVG Export Plug-In . SVG Version: 6.00 Build 0)  -->
<!DOCTYPE svg PUBLIC "-//W3C//DTD SVG 1.1//EN" "http://www.w3.org/Graphics/SVG/1.1/DTD/svg11.dtd" [
	<!ENTITY ns_extend "http://ns.adobe.com/Extensibility/1.0/">
	<!ENTITY ns_ai "http://ns.adobe.com/AdobeIllustrator/10.0/">
	<!ENTITY ns_graphs "http://ns.adobe.com/Graphs/1.0/">
	<!ENTITY ns_vars "http://ns.adobe.com/Variables/1.0/">
	<!ENTITY ns_imrep "http://ns.adobe.com/ImageReplacement/1.0/">
	<!ENTITY ns_sfw "http://ns.adobe.com/SaveForWeb/1.0/">
	<!ENTITY ns_custom "http://ns.adobe.com/GenericCustomNamespace/1.0/">
	<!ENTITY ns_adobe_xpath "http://ns.adobe.com/XPath/1.0/">
]>
<svg version="1.1" id="Capa_1" xmlns:x="&ns_extend;" xmlns:i="&ns_ai;" xmlns:graph="&ns_graphs;"
	 xmlns="http://www.w3.org/2000/svg" xmlns:xlink="http://www.w3.org/1999/xlink" x="0px" y="0px" width="20px" height="20px"
	 viewBox="0 0 20 20" enable-background="new 0 0 20 20" xml:space="preserve">
<metadata>
	<sfw  xmlns="&ns_sfw;">
		<slices></slices>
		<sliceSourceBounds  height="12.756" width="19.453" x="295.774" y="389.259" bottomLeftOrigin="true"></sliceSourceBounds>
	</sfw>
</metadata>
<g>
	<path fill="#FFFFFF" d="M17.331,17.241H2.669c-1.322,0-2.395-1.078-2.395-2.396V6.881c0-1.322,1.073-2.396,2.395-2.396h14.662
		c1.321,0,2.396,1.075,2.396,2.396v7.963C19.727,16.163,18.652,17.241,17.331,17.241z M2.669,5.135
		c-0.961,0-1.746,0.784-1.746,1.746v7.963c0,0.959,0.785,1.741,1.746,1.741h14.662c0.962,0,1.745-0.782,1.745-1.741V6.881
		c0-0.962-0.783-1.746-1.745-1.746H2.669z"/>
	<rect x="0.781" y="6.63" fill="#FFFFFF" width="18.438" height="2.155"/>
	<rect x="2.503" y="10.351" fill="#FFFFFF" width="6.954" height="0.631"/>
	<rect x="2.503" y="12.118" fill="#FFFFFF" width="6.954" height="0.63"/>
	<rect x="2.503" y="13.932" fill="#FFFFFF" width="6.954" height="0.631"/>
</g>
</svg>
