<?xml version="1.0" encoding="utf-8"?>
<!-- Generator: Adobe Illustrator 16.0.0, SVG Export Plug-In . SVG Version: 6.00 Build 0)  -->
<!DOCTYPE svg PUBLIC "-//W3C//DTD SVG 1.1//EN" "http://www.w3.org/Graphics/SVG/1.1/DTD/svg11.dtd" [
	<!ENTITY ns_extend "http://ns.adobe.com/Extensibility/1.0/">
	<!ENTITY ns_ai "http://ns.adobe.com/AdobeIllustrator/10.0/">
	<!ENTITY ns_graphs "http://ns.adobe.com/Graphs/1.0/">
	<!ENTITY ns_vars "http://ns.adobe.com/Variables/1.0/">
	<!ENTITY ns_imrep "http://ns.adobe.com/ImageReplacement/1.0/">
	<!ENTITY ns_sfw "http://ns.adobe.com/SaveForWeb/1.0/">
	<!ENTITY ns_custom "http://ns.adobe.com/GenericCustomNamespace/1.0/">
	<!ENTITY ns_adobe_xpath "http://ns.adobe.com/XPath/1.0/">
]>
<svg version="1.1" id="Capa_1" xmlns:x="&ns_extend;" xmlns:i="&ns_ai;" xmlns:graph="&ns_graphs;"
	 xmlns="http://www.w3.org/2000/svg" xmlns:xlink="http://www.w3.org/1999/xlink" x="0px" y="0px" width="20px" height="16px"
	 viewBox="0 0 20 16" enable-background="new 0 0 20 16" xml:space="preserve">
<metadata>
	<sfw  xmlns="&ns_sfw;">
		<slices></slices>
		<sliceSourceBounds  height="13.951" width="16.08" x="297.46" y="389.524" bottomLeftOrigin="true"></sliceSourceBounds>
	</sfw>
</metadata>
<g>
	<g>
		<path fill="#FFFFFF" d="M4.248,4.032L4.357,4.13c0.02,0.018,0.037,0.04,0.049,0.063l0.136,0.24
			C4.548,4.446,4.555,4.46,4.561,4.476l0.14,0.421c0.001,0.009,0.005,0.019,0.007,0.028l0.13,0.643L4.94,6.189
			c0.002,0.009,0.003,0.019,0.003,0.028L4.964,6.63c0.001,0.027-0.001,0.054-0.008,0.079L4.9,6.903
			C4.889,6.941,4.87,6.978,4.843,7.006l0,0c-0.038,0.04-0.09,0.066-0.144,0.075L4.391,7.128C4.387,7.129,4.379,7.129,4.375,7.129
			L3.961,7.164C3.896,7.17,3.833,7.203,3.79,7.254L3.638,7.438C3.615,7.466,3.6,7.497,3.59,7.531L3.456,8.018
			C3.45,8.042,3.446,8.067,3.447,8.092l0.028,0.797c0,0.006,0,0.012,0,0.021l0.121,1.086c0.001,0.01,0.004,0.021,0.006,0.028
			l0.235,1.013c0.001,0.012,0.005,0.022,0.01,0.034l0.266,0.688c0.01,0.024,0.025,0.05,0.042,0.068l0.236,0.284
			c0.034,0.041,0.083,0.07,0.135,0.084l0.228,0.054c0.042,0.008,0.083,0.007,0.125-0.005l0.411-0.119
			c0.013-0.004,0.028-0.006,0.041-0.009l0.04-0.005c0.075-0.008,0.152,0.019,0.205,0.072l0.076,0.076
			c0.014,0.016,0.028,0.03,0.038,0.051l0.184,0.312c0.01,0.019,0.017,0.034,0.022,0.052l0.179,0.573
			c0.002,0.005,0.005,0.01,0.006,0.015l0.144,0.605c0.003,0.009,0.005,0.018,0.005,0.027l0.056,0.453
			c0.002,0.012,0.002,0.026,0.002,0.039l-0.01,0.225c-0.001,0.053-0.021,0.103-0.054,0.145l-0.043,0.055
			c-0.039,0.051-0.098,0.084-0.162,0.092l-0.538,0.07c-0.018,0.004-0.038,0.004-0.056,0.002l-0.732-0.061
			c-0.029-0.001-0.2-0.025-0.339-0.075l-0.195-0.085c-0.054-0.021-0.104-0.051-0.149-0.086c-0.039-0.029-0.086-0.064-0.191-0.172
			c-0.002-0.004-0.009-0.01-0.011-0.016l-0.293-0.365c-0.013-0.018-0.081-0.119-0.089-0.137l-0.478-0.936
			c-0.005-0.011-0.01-0.023-0.012-0.033L2.5,11.678c-0.002-0.006-0.004-0.016-0.005-0.022L2.17,10.209
			c-0.002-0.008-0.003-0.018-0.005-0.023L2.006,8.871c-0.001-0.006-0.001-0.014-0.001-0.02L1.96,7.703c0-0.014,0-0.027,0.002-0.04
			l0.124-1.014C2.088,6.637,2.09,6.625,2.093,6.614l0.228-0.83c0.002-0.008,0.005-0.015,0.007-0.022l0.245-0.646
			C2.581,5.1,2.588,5.084,2.596,5.07l0.281-0.436c0.012-0.021,0.029-0.039,0.048-0.053l0.258-0.227
			C3.204,4.336,3.228,4.322,3.25,4.312l0.524-0.221c0.023-0.009,0.045-0.015,0.071-0.017L4.248,4.032L4.248,4.032z"/>
		<path fill="#FFFFFF" d="M5.034,3.814l0.134,0.075c0.013,0.007,0.025,0.019,0.036,0.03L5.348,4.1
			c0.01,0.013,0.017,0.029,0.021,0.044l0.087,0.319l0.125,0.443l0.12,0.432C5.703,5.345,5.706,5.353,5.707,5.36l0.041,0.425
			L5.78,6.257l0.01,0.399c0,0.013-0.001,0.027-0.005,0.039L5.71,6.938C5.699,6.973,5.67,7.002,5.636,7.017l-0.179,0.07
			c-0.019,0.008-0.04,0.011-0.059,0.008l-0.16-0.017C5.19,7.072,5.151,7.041,5.134,6.997l0,0c-0.006-0.02-0.009-0.04-0.005-0.059
			l0.022-0.155c0-0.006,0-0.012,0-0.018L5.15,6.487L5.136,6.153c0-0.004,0-0.008-0.001-0.012L5.086,5.788L5.038,5.433
			c0-0.003,0-0.004-0.001-0.007L4.975,5.109c0-0.004,0-0.009-0.001-0.013L4.889,4.814C4.888,4.811,4.887,4.808,4.887,4.806
			L4.789,4.55c0-0.004-0.001-0.009-0.002-0.012l-0.059-0.22C4.723,4.305,4.718,4.292,4.71,4.28L4.594,4.115
			C4.586,4.104,4.582,4.091,4.577,4.077L4.563,4.026c-0.012-0.045,0-0.093,0.036-0.125l0.005-0.005
			c0.015-0.012,0.031-0.022,0.049-0.027l0.158-0.045c0.01-0.003,0.02-0.004,0.031-0.004L5.034,3.814L5.034,3.814z"/>
		<path fill="#FFFFFF" d="M7.153,14.6l0.068-0.192c0.004-0.007,0.006-0.013,0.007-0.021l0.034-0.2
			c0.002-0.012,0.004-0.021,0.002-0.033l-0.029-0.284c0-0.004-0.001-0.009-0.002-0.015l-0.067-0.317l-0.089-0.421
			c-0.001-0.006-0.004-0.012-0.004-0.016l-0.141-0.396c-0.001-0.002-0.002-0.007-0.005-0.011L6.733,12.26
			c-0.003-0.007-0.008-0.015-0.013-0.021l-0.239-0.323c-0.007-0.011-0.017-0.02-0.028-0.027L6.24,11.739
			c-0.027-0.021-0.059-0.027-0.093-0.022l-0.195,0.037c-0.016,0.003-0.036,0.012-0.048,0.021l-0.109,0.076
			c-0.044,0.029-0.063,0.084-0.048,0.135l0.012,0.047c0.002,0.01,0.007,0.019,0.012,0.025l0.096,0.168l0.153,0.244
			c0.002,0.006,0.003,0.01,0.006,0.012l0.124,0.263c0.001,0.006,0.005,0.014,0.007,0.021l0.078,0.289l0.086,0.295l0.081,0.284
			c0.001,0.005,0.002,0.009,0.003,0.013l0.059,0.32c0.001,0.004,0.002,0.008,0.002,0.012l0.021,0.25l0.02,0.246
			c0.001,0.012,0.001,0.021-0.002,0.034l-0.038,0.19c-0.002,0.01-0.002,0.021-0.002,0.031l0.001,0.006
			c0.006,0.062,0.055,0.109,0.117,0.111l0.107,0.008c0.02,0,0.037-0.002,0.052-0.008l0.221-0.082
			c0.013-0.008,0.028-0.016,0.039-0.025L7.153,14.6L7.153,14.6L7.153,14.6z"/>
	</g>
	<g>
		<path fill="#FFFFFF" d="M18.012,7.708C17.971,7.293,17.891,6.88,17.77,6.48c-0.117-0.396-0.275-0.784-0.465-1.15
			c-0.193-0.368-0.42-0.718-0.679-1.042c-0.26-0.326-0.554-0.63-0.87-0.899c-0.66-0.561-1.419-0.979-2.252-1.24
			c-0.834-0.262-1.693-0.353-2.557-0.27C10.533,1.919,10.119,2,9.72,2.119C9.322,2.238,8.936,2.395,8.568,2.586
			C8.2,2.777,7.85,3.007,7.526,3.264c-0.326,0.26-0.63,0.552-0.898,0.87c-0.271,0.32-0.51,0.663-0.713,1.026L6.03,5.325
			c0.006,0.01,0.013,0.021,0.017,0.031l0.075,0.17c1.337-2.603,4.392-3.943,7.274-3.038c3.225,1.014,5.019,4.447,4.004,7.671
			c-1.012,3.225-4.446,5.017-7.67,4.004c-0.678-0.214-1.294-0.534-1.833-0.937L7.57,13.303c-0.015,0.004-0.028,0.006-0.044,0.006
			L7.43,13.311c0.647,0.537,1.386,0.938,2.194,1.191c0.833,0.264,1.694,0.352,2.556,0.27c0.416-0.039,0.83-0.119,1.229-0.237
			c0.397-0.12,0.782-0.277,1.151-0.47c0.364-0.189,0.717-0.418,1.041-0.676c0.325-0.26,0.627-0.555,0.898-0.869
			c0.563-0.662,0.979-1.42,1.238-2.254C18.003,9.434,18.093,8.572,18.012,7.708z"/>
	</g>
	<g>
		<path fill="#FFFFFF" d="M7.982,10.523V9.805l0.655-0.594c1.111-0.993,1.65-1.563,1.665-2.157c0-0.415-0.249-0.743-0.837-0.743
			c-0.437,0-0.82,0.219-1.086,0.422L8.043,5.882c0.382-0.289,0.978-0.523,1.665-0.523c1.147,0,1.782,0.671,1.782,1.593
			c0,0.851-0.618,1.531-1.352,2.188L9.669,9.53v0.017h1.913v0.977H7.982L7.982,10.523z"/>
		<path fill="#FFFFFF" d="M14.419,10.523V9.313H12.17V8.539l1.922-3.095h1.452v2.977h0.608v0.892h-0.608v1.211H14.419z
			 M14.419,8.421V7.296c0-0.304,0.017-0.618,0.039-0.945h-0.032c-0.162,0.328-0.295,0.625-0.468,0.945l-0.681,1.11v0.016
			L14.419,8.421L14.419,8.421z"/>
	</g>
	<path fill="#FFFFFF" d="M11.579,2.566c0.614-0.123,1.229-0.245,1.844-0.367c-0.608-0.147-1.219-0.294-1.827-0.441L9.854,1.025
		L9.817,1.042l0.545,0.945l0.087,0.151l-0.093,0.147L9.773,3.202l0.035,0.025L11.579,2.566z"/>
	<path fill="#FFFFFF" d="M14.068,13.553c-0.467,0.348-0.932,0.693-1.398,1.041c0.568-0.117,1.139-0.24,1.707-0.357l1.754-0.08
		l0.021-0.03l-0.834-0.575l-0.133-0.091l0.021-0.161l0.122-1l-0.04-0.008L14.068,13.553z"/>
</g>
</svg>
