<?xml version="1.0" encoding="utf-8"?>
<!-- Generator: Adobe Illustrator 16.0.0, SVG Export Plug-In . SVG Version: 6.00 Build 0)  -->
<!DOCTYPE svg PUBLIC "-//W3C//DTD SVG 1.1//EN" "http://www.w3.org/Graphics/SVG/1.1/DTD/svg11.dtd" [
	<!ENTITY ns_extend "http://ns.adobe.com/Extensibility/1.0/">
	<!ENTITY ns_ai "http://ns.adobe.com/AdobeIllustrator/10.0/">
	<!ENTITY ns_graphs "http://ns.adobe.com/Graphs/1.0/">
	<!ENTITY ns_vars "http://ns.adobe.com/Variables/1.0/">
	<!ENTITY ns_imrep "http://ns.adobe.com/ImageReplacement/1.0/">
	<!ENTITY ns_sfw "http://ns.adobe.com/SaveForWeb/1.0/">
	<!ENTITY ns_custom "http://ns.adobe.com/GenericCustomNamespace/1.0/">
	<!ENTITY ns_adobe_xpath "http://ns.adobe.com/XPath/1.0/">
]>
<svg version="1.1" id="Capa_1" xmlns:x="&ns_extend;" xmlns:i="&ns_ai;" xmlns:graph="&ns_graphs;"
	 xmlns="http://www.w3.org/2000/svg" xmlns:xlink="http://www.w3.org/1999/xlink" x="0px" y="0px" width="20px" height="16px"
	 viewBox="0 0 20 16" enable-background="new 0 0 20 16" xml:space="preserve">
<metadata>
	<sfw  xmlns="&ns_sfw;">
		<slices></slices>
		<sliceSourceBounds  height="14.76" width="11.219" x="299.899" y="389.12" bottomLeftOrigin="true"></sliceSourceBounds>
	</sfw>
</metadata>
<g>
	<g>
		<path fill="#FF0000" d="M15.592,5.562l-0.018,4.694c0,0.014-0.002,0.025-0.004,0.039c-0.021,0.246-0.229,0.439-0.48,0.439
			L4.878,10.693c-0.252,0-0.46-0.197-0.478-0.445c-0.001-0.014,0-0.023,0-0.037l0.019-4.695c0-0.006,0-0.012,0-0.016
			c0.01-0.258,0.221-0.463,0.482-0.462L15.113,5.08c0.261,0.002,0.472,0.208,0.479,0.466C15.594,5.552,15.592,5.557,15.592,5.562z"
			/>
		<path fill="#FFFAFA" d="M15.592,5.546c-0.008-0.258-0.219-0.465-0.479-0.466l-1.568-0.007L6.468,5.044L4.902,5.037
			C4.64,5.036,4.428,5.242,4.418,5.5c0,0.005,0,0.011-0.001,0.016L4.413,6.804L4.404,8.922l0,0L4.4,10.211
			c0,0.006,0,0.012-0.001,0.016l0,0c0,0.006,0.001,0.015,0.002,0.021c0,0,0,0,0.001,0.004c-0.001,0,0,0.002-0.001,0.004
			c0.001,0.006,0.002,0.012,0.003,0.02c0,0.002,0.001,0.005,0.002,0.007c0,0.006,0.001,0.01,0.001,0.016
			c0.001,0.004,0.002,0.007,0.002,0.009c0.001,0.004,0.001,0.008,0.002,0.016c0.002,0,0.001,0.006,0.003,0.006
			c0,0.006,0.002,0.012,0.004,0.016c0.001,0.004,0.002,0.006,0.003,0.01s0.001,0.008,0.004,0.013c0,0.004,0.001,0.008,0.004,0.012
			c0,0.002,0.001,0.006,0.003,0.013c0.002,0.002,0.003,0.004,0.004,0.01c0.002,0,0.003,0.004,0.005,0.008
			c0.001,0.004,0.003,0.008,0.004,0.012c0.003,0.004,0.003,0.006,0.006,0.01c0.001,0.004,0.003,0.006,0.005,0.01
			c0.001,0.002,0.003,0.006,0.005,0.011c0.003,0.004,0.005,0.008,0.007,0.008c0.001,0.006,0.004,0.008,0.005,0.012
			c0.002,0.005,0.005,0.009,0.007,0.011c0.003,0.004,0.004,0.006,0.005,0.01c0.003,0.004,0.004,0.006,0.007,0.008
			c0.004,0.006,0.004,0.008,0.008,0.01c0.003,0.004,0.004,0.008,0.007,0.01c0.001,0.002,0.006,0.006,0.007,0.01
			c0.003,0.003,0.004,0.005,0.008,0.009c0.002,0.004,0.004,0.006,0.006,0.008c0.004,0.004,0.006,0.008,0.01,0.011
			c0,0,0.002,0.002,0.005,0.004c0.004,0.006,0.005,0.008,0.009,0.01c0.003,0.004,0.004,0.004,0.009,0.006
			c0.001,0.004,0.004,0.006,0.009,0.01c0.001,0.002,0.003,0.002,0.006,0.006c0.004,0.002,0.006,0.004,0.01,0.006
			c0.002,0.002,0.006,0.006,0.009,0.008c-0.002-0.004,0.002-0.004,0.005,0c0.002,0.002,0.005,0.002,0.008,0.006
			c0.004,0,0.008,0.005,0.011,0.007c0.002,0.002,0.007,0.002,0.009,0.004c0.003,0.004,0.006,0.006,0.009,0.008
			c0.004,0,0.008,0.004,0.011,0.004c0.004,0.004,0.007,0.004,0.01,0.009c0.002,0,0.007,0.002,0.01,0.004
			c0.004,0.002,0.007,0.002,0.012,0.006c0.002,0,0.005,0.002,0.01,0.004c0.003,0.002,0.007,0.004,0.009,0.004
			c0.004,0.002,0.008,0.004,0.011,0.004c0.004,0.002,0.007,0.004,0.011,0.006c0.005,0,0.007,0.002,0.012,0.004
			c0.003,0.002,0.006,0.002,0.01,0.002c0.003,0.002,0.008,0.002,0.011,0.004c0.005,0,0.009,0.004,0.012,0.002
			c0.004,0.002,0.008,0,0.014,0.004c0.002,0.002,0.006,0,0.009,0.004c0.005-0.002,0.009-0.002,0.014,0c0.002,0,0.007,0,0.01,0.002
			c0.004,0,0.011,0,0.015,0.002c0.001,0.002,0.005,0,0.007,0.002c0.006,0,0.012,0,0.017,0c0.002,0,0.005,0,0.009,0
			c0.008,0,0.014,0,0.023,0.002l0,0l0,0l1.566,0.007l7.077,0.026l1.568,0.008c0.008,0,0.016,0,0.022,0c0.002,0,0.006,0,0.008-0.002
			c0.008,0,0.013,0.002,0.017,0c0.004,0,0.006,0,0.01-0.002c0.004,0,0.01,0,0.014-0.002c0.004,0,0.006,0,0.012-0.002
			c0.004,0,0.008,0,0.014-0.002c0.002,0.002,0.007-0.002,0.011-0.002s0.008-0.002,0.012-0.002c0.007,0,0.011-0.002,0.011-0.002
			c0.004-0.002,0.008-0.004,0.014-0.006c0.004,0,0.006-0.002,0.01-0.002c0.004-0.002,0.01-0.004,0.014-0.004
			c0-0.002,0.004-0.002,0.008-0.004c0.006-0.002,0.01-0.002,0.013-0.004c0.004,0,0.008-0.004,0.01-0.006
			c0.004,0,0.008-0.002,0.013-0.002c0.004-0.004,0.008-0.006,0.012-0.006c0.002-0.002,0.006-0.004,0.008-0.006
			c0.004,0,0.008-0.005,0.01-0.007c0.006,0,0.01-0.004,0.012-0.004c0.002-0.004,0.006-0.006,0.01-0.008s0.008-0.002,0.011-0.006
			c0.004-0.002,0.006-0.005,0.012-0.007c0-0.002,0.004-0.004,0.009-0.006c0.004-0.002,0.006-0.004,0.01-0.008
			c0.002,0,0.006-0.004,0.008-0.006c0.004-0.002,0.006-0.006,0.01-0.01c0.004,0,0.004-0.004,0.008-0.006s0.006-0.004,0.01-0.008
			c0.002-0.002,0.006-0.004,0.008-0.006c0.002-0.004,0.004-0.006,0.009-0.009c0.002-0.006,0.004-0.006,0.008-0.01
			c0.002-0.004,0.006-0.006,0.008-0.008c0.002-0.005,0.007-0.007,0.009-0.011c0.002-0.002,0.006-0.006,0.006-0.008
			c0.004-0.002,0.008-0.006,0.01-0.01c0.002-0.002,0.004-0.004,0.006-0.008c0.004-0.002,0.006-0.006,0.008-0.01
			c0.002,0,0.004-0.006,0.006-0.008c0.002-0.004,0.006-0.006,0.006-0.011c0.004-0.004,0.006-0.004,0.008-0.01
			c0-0.004,0.002-0.006,0.006-0.012c0.002-0.003,0.005-0.005,0.007-0.011c0-0.002,0.002-0.006,0.006-0.008
			c0.002-0.006,0.002-0.008,0.004-0.01c0.002-0.006,0.004-0.008,0.006-0.014c0.003-0.002,0.005-0.006,0.005-0.01
			c0.002-0.002,0.006-0.004,0.006-0.011c0-0.004,0.002-0.006,0.004-0.008c0-0.006,0.004-0.01,0.004-0.012
			c0.002-0.007,0.002-0.009,0.004-0.013s0.002-0.008,0.004-0.014c0.002-0.002,0.002-0.006,0.004-0.008
			c0-0.006,0.002-0.012,0.002-0.016c0.002-0.002,0.002-0.006,0.004-0.008c0-0.007,0.002-0.011,0.002-0.017
			c0.002-0.004,0.002-0.006,0.002-0.008c0-0.007,0.004-0.013,0.004-0.019c-0.002-0.002,0-0.004,0-0.008
			c0-0.006,0.002-0.012,0.002-0.018c0,0,0-0.002,0-0.006l0,0c0.002-0.006,0.002-0.017,0.004-0.023l0,0
			c-0.002-0.004-0.002-0.01,0-0.014l0,0l0.002-1.291l0.012-2.116l0.005-1.287C15.592,5.557,15.594,5.552,15.592,5.546z
			 M15.076,9.082c-0.191,0.064-0.377,0.154-0.557,0.273c-0.373,0.244-0.658,0.563-0.83,0.905l-7.405-0.028
			C6.113,9.887,5.833,9.566,5.462,9.318C5.248,9.176,5.02,9.07,4.792,9.002l0.009-2.275C5.03,6.66,5.257,6.558,5.473,6.417
			c0.374-0.245,0.657-0.566,0.832-0.91l7.402,0.032c0.17,0.345,0.451,0.668,0.822,0.915c0.178,0.121,0.367,0.212,0.555,0.28
			L15.076,9.082z"/>
		<path fill="#FFFAFA" d="M9.747,8.916C9.488,8.904,9.238,8.844,8.999,8.74l0.003-0.59c0.136,0.072,0.285,0.131,0.447,0.177
			C9.609,8.375,9.751,8.399,9.873,8.4c0.101,0,0.175-0.013,0.222-0.036c0.047-0.025,0.07-0.063,0.069-0.121
			c0.002-0.039-0.016-0.072-0.051-0.1c-0.031-0.026-0.087-0.059-0.168-0.094C9.867,8.014,9.761,7.973,9.626,7.925
			c-0.15-0.058-0.271-0.12-0.363-0.189C9.17,7.664,9.105,7.588,9.062,7.501C9.02,7.416,9,7.308,9,7.181
			c0.002-0.197,0.064-0.349,0.19-0.457c0.127-0.11,0.314-0.177,0.565-0.203l0.002-0.395l0.368,0.002l-0.002,0.389
			c0.236,0.015,0.473,0.074,0.711,0.179L10.621,7.2c-0.247-0.113-0.47-0.169-0.668-0.17c-0.096,0.001-0.161,0.012-0.2,0.035
			C9.716,7.089,9.697,7.122,9.697,7.167C9.696,7.206,9.708,7.239,9.738,7.264C9.766,7.289,9.814,7.316,9.882,7.35
			c0.068,0.032,0.164,0.067,0.285,0.11c0.246,0.088,0.424,0.188,0.532,0.301c0.107,0.112,0.158,0.257,0.16,0.435
			c-0.002,0.198-0.066,0.359-0.191,0.484c-0.127,0.123-0.309,0.199-0.553,0.228l-0.001,0.475H9.746L9.747,8.916z"/>
	</g>
	<path fill="#FFFAFA" d="M5.942,11.994c0.049,0.148,0.104,0.297,0.171,0.445c0.473,1.039,1.324,1.832,2.394,2.233h0.001
		c1.071,0.397,2.234,0.359,3.273-0.114c0.121-0.058,0.24-0.117,0.354-0.183l0.459,1.004l1.463-2.647l-2.951-0.625l0.588,1.293
		c-0.113,0.069-0.229,0.135-0.354,0.19c-0.78,0.354-1.653,0.388-2.458,0.086c-0.788-0.297-1.415-0.875-1.776-1.629"/>
	<path fill="#FFFAFA" d="M14.055,3.979c-0.05-0.142-0.101-0.281-0.162-0.419c-0.475-1.04-1.324-1.833-2.396-2.233l0,0
		c-1.069-0.4-2.233-0.36-3.273,0.113c-0.123,0.057-0.24,0.117-0.356,0.184L7.409,0.62L5.946,3.269L8.9,3.893L8.312,2.599
		c0.113-0.07,0.23-0.135,0.353-0.191c0.78-0.355,1.654-0.385,2.458-0.084c0.804,0.301,1.443,0.898,1.8,1.679
		c0.004,0.006,0.004,0.012,0.009,0.019"/>
</g>
</svg>
