<?xml version="1.0" encoding="utf-8"?>
<!-- Generator: Adobe Illustrator 16.0.0, SVG Export Plug-In . SVG Version: 6.00 Build 0)  -->
<!DOCTYPE svg PUBLIC "-//W3C//DTD SVG 1.1//EN" "http://www.w3.org/Graphics/SVG/1.1/DTD/svg11.dtd" [
	<!ENTITY ns_extend "http://ns.adobe.com/Extensibility/1.0/">
	<!ENTITY ns_ai "http://ns.adobe.com/AdobeIllustrator/10.0/">
	<!ENTITY ns_graphs "http://ns.adobe.com/Graphs/1.0/">
	<!ENTITY ns_vars "http://ns.adobe.com/Variables/1.0/">
	<!ENTITY ns_imrep "http://ns.adobe.com/ImageReplacement/1.0/">
	<!ENTITY ns_sfw "http://ns.adobe.com/SaveForWeb/1.0/">
	<!ENTITY ns_custom "http://ns.adobe.com/GenericCustomNamespace/1.0/">
	<!ENTITY ns_adobe_xpath "http://ns.adobe.com/XPath/1.0/">
]>
<svg version="1.1" id="Capa_1" xmlns:x="&ns_extend;" xmlns:i="&ns_ai;" xmlns:graph="&ns_graphs;"
	 xmlns="http://www.w3.org/2000/svg" xmlns:xlink="http://www.w3.org/1999/xlink" x="0px" y="0px" width="34px" height="24px"
	 viewBox="0 0 34 24" enable-background="new 0 0 34 24" xml:space="preserve">
<metadata>
	<sfw  xmlns="&ns_sfw;">
		<slices></slices>
		<sliceSourceBounds  height="24" width="34" y="384.5" x="288.5" bottomLeftOrigin="true"></sliceSourceBounds>
	</sfw>
</metadata>
<path fill="#FF0000" d="M10,0h24v24H10L0,12L10,0z"/>
<path fill="#FFFFFF" d="M25.471,7.528c0.262,0.26,0.262,0.683,0,0.943l-8,8c-0.26,0.261-0.682,0.261-0.942,0
	c-0.261-0.26-0.261-0.682,0-0.942l8-8C24.789,7.268,25.211,7.268,25.471,7.528z"/>
<path fill="#FFFFFF" d="M16.529,7.528c0.26-0.26,0.682-0.26,0.942,0l8,8c0.262,0.261,0.262,0.683,0,0.942
	c-0.26,0.261-0.682,0.261-0.941,0l-8-8C16.268,8.211,16.268,7.789,16.529,7.528z"/>
</svg>
