<?xml version="1.0" encoding="utf-8"?>
<!-- Generator: Adobe Illustrator 16.0.0, SVG Export Plug-In . SVG Version: 6.00 Build 0)  -->
<!DOCTYPE svg PUBLIC "-//W3C//DTD SVG 1.1//EN" "http://www.w3.org/Graphics/SVG/1.1/DTD/svg11.dtd" [
	<!ENTITY ns_extend "http://ns.adobe.com/Extensibility/1.0/">
	<!ENTITY ns_ai "http://ns.adobe.com/AdobeIllustrator/10.0/">
	<!ENTITY ns_graphs "http://ns.adobe.com/Graphs/1.0/">
	<!ENTITY ns_vars "http://ns.adobe.com/Variables/1.0/">
	<!ENTITY ns_imrep "http://ns.adobe.com/ImageReplacement/1.0/">
	<!ENTITY ns_sfw "http://ns.adobe.com/SaveForWeb/1.0/">
	<!ENTITY ns_custom "http://ns.adobe.com/GenericCustomNamespace/1.0/">
	<!ENTITY ns_adobe_xpath "http://ns.adobe.com/XPath/1.0/">
]>
<svg version="1.1" id="Capa_1" xmlns:x="&ns_extend;" xmlns:i="&ns_ai;" xmlns:graph="&ns_graphs;"
	 xmlns="http://www.w3.org/2000/svg" xmlns:xlink="http://www.w3.org/1999/xlink" x="0px" y="0px" width="24px" height="24px"
	 viewBox="0 0 24 24" enable-background="new 0 0 24 24" xml:space="preserve">
<metadata>
	<sfw  xmlns="&ns_sfw;">
		<slices></slices>
		<sliceSourceBounds  height="20" width="20" y="386.5" x="295.5" bottomLeftOrigin="true"></sliceSourceBounds>
	</sfw>
</metadata>
<path fill="#FF0000" d="M3,14c0.552,0,1,0.447,1,1v4c0,0.266,0.105,0.52,0.293,0.707S4.735,20,5,20h14
	c0.266,0,0.52-0.105,0.707-0.293S20,19.266,20,19v-4c0-0.553,0.447-1,1-1s1,0.447,1,1v4c0,0.796-0.316,1.559-0.879,2.121
	S19.796,22,19,22H5c-0.795,0-1.559-0.316-2.121-0.879C2.316,20.559,2,19.795,2,19v-4C2,14.447,2.448,14,3,14z"/>
<path fill="#FF0000" d="M6.293,9.293c0.391-0.391,1.023-0.391,1.414,0L12,13.586l4.293-4.293c0.391-0.391,1.023-0.391,1.414,0
	s0.391,1.023,0,1.414l-5,5c-0.391,0.391-1.023,0.391-1.414,0l-5-5C5.902,10.316,5.902,9.684,6.293,9.293z"/>
<path fill="#FF0000" d="M12,2c0.553,0,1,0.448,1,1v12c0,0.553-0.447,1-1,1c-0.552,0-1-0.447-1-1V3C11,2.448,11.448,2,12,2z"/>
</svg>
