<?xml version="1.0" encoding="utf-8"?>
<!-- Generator: Adobe Illustrator 16.0.0, SVG Export Plug-In . SVG Version: 6.00 Build 0)  -->
<!DOCTYPE svg PUBLIC "-//W3C//DTD SVG 1.1//EN" "http://www.w3.org/Graphics/SVG/1.1/DTD/svg11.dtd" [
	<!ENTITY ns_extend "http://ns.adobe.com/Extensibility/1.0/">
	<!ENTITY ns_ai "http://ns.adobe.com/AdobeIllustrator/10.0/">
	<!ENTITY ns_graphs "http://ns.adobe.com/Graphs/1.0/">
	<!ENTITY ns_vars "http://ns.adobe.com/Variables/1.0/">
	<!ENTITY ns_imrep "http://ns.adobe.com/ImageReplacement/1.0/">
	<!ENTITY ns_sfw "http://ns.adobe.com/SaveForWeb/1.0/">
	<!ENTITY ns_custom "http://ns.adobe.com/GenericCustomNamespace/1.0/">
	<!ENTITY ns_adobe_xpath "http://ns.adobe.com/XPath/1.0/">
]>
<svg version="1.1" id="Capa_1" xmlns:x="&ns_extend;" xmlns:i="&ns_ai;" xmlns:graph="&ns_graphs;"
	 xmlns="http://www.w3.org/2000/svg" xmlns:xlink="http://www.w3.org/1999/xlink" x="0px" y="0px" width="14px" height="14px"
	 viewBox="0 0 14 14" enable-background="new 0 0 14 14" xml:space="preserve">
<metadata>
	<sfw  xmlns="&ns_sfw;">
		<slices></slices>
		<sliceSourceBounds  height="11.234" width="11.43" y="390.843" x="299.345" bottomLeftOrigin="true"></sliceSourceBounds>
	</sfw>
</metadata>
<g>
	<path fill="#FF0000" d="M8.818,3.859C9.15,4.202,9.463,4.528,9.789,4.866c-0.094,0.096-3.62,3.565-5.286,5.195
		c-0.113,0.112-0.23,0.229-0.368,0.313c-0.299,0.185-0.599,0.151-0.849-0.093C3.037,10.035,3,9.74,3.179,9.432
		c0.057-0.1,0.136-0.191,0.218-0.271C5.155,7.437,8.756,3.911,8.818,3.859z"/>
	<path fill="#FF0000" d="M11.406,5.366c0,0-2.017-2.062-3.021-3.091c0.245-0.208,0.487-0.471,0.78-0.654
		c0.53-0.332,1.172-0.239,1.662,0.214c0.324,0.298,0.627,0.619,0.93,0.939c0.671,0.707,0.702,1.525,0.026,2.224
		C11.65,5.135,11.406,5.366,11.406,5.366z"/>
	<path fill="#FF0000" d="M7.836,2.838c0,0,0.349,0.324,0.519,0.482C8.217,3.457,8.112,3.555,8.01,3.656
		C6.348,5.285,4.684,6.914,3.023,8.541c-0.096,0.093-0.24,0.262-0.355,0.291C2.535,8.868,2.397,8.842,2.3,8.743
		C2.23,8.672,2.192,8.53,2.215,8.399C2.23,8.313,2.37,8.188,2.443,8.117c1.746-1.711,3.494-3.422,5.241-5.132
		C7.726,2.945,7.836,2.838,7.836,2.838z"/>
	<path fill="#FF0000" d="M10.279,5.331c0,0,0.347,0.323,0.517,0.482c-0.138,0.138-0.241,0.233-0.346,0.335
		c-1.661,1.629-3.323,3.257-4.986,4.885c-0.095,0.094-0.239,0.263-0.353,0.293c-0.133,0.034-0.272,0.009-0.371-0.092
		c-0.07-0.068-0.105-0.212-0.083-0.342c0.016-0.086,0.152-0.212,0.228-0.283c1.748-1.712,3.496-3.421,5.241-5.131
		C10.167,5.438,10.279,5.331,10.279,5.331z"/>
	<path fill="#FF0000" d="M1.716,9.307c0.467,0.122,0.649,0.343,0.699,0.799c0.063,0.588,0.495,0.925,1.219,1.067
		c0.207,0.041,0.38,0.18,0.466,0.372c0.042,0.092,0.086,0.192,0.134,0.3c-1.124,0.269-2.217,0.532-3.388,0.813
		C1.143,11.508,1.428,10.412,1.716,9.307z"/>
</g>
</svg>
