<?xml version="1.0" encoding="utf-8"?>
<!-- Generator: Adobe Illustrator 16.0.0, SVG Export Plug-In . SVG Version: 6.00 Build 0)  -->
<!DOCTYPE svg PUBLIC "-//W3C//DTD SVG 1.1//EN" "http://www.w3.org/Graphics/SVG/1.1/DTD/svg11.dtd" [
	<!ENTITY ns_extend "http://ns.adobe.com/Extensibility/1.0/">
	<!ENTITY ns_ai "http://ns.adobe.com/AdobeIllustrator/10.0/">
	<!ENTITY ns_graphs "http://ns.adobe.com/Graphs/1.0/">
	<!ENTITY ns_vars "http://ns.adobe.com/Variables/1.0/">
	<!ENTITY ns_imrep "http://ns.adobe.com/ImageReplacement/1.0/">
	<!ENTITY ns_sfw "http://ns.adobe.com/SaveForWeb/1.0/">
	<!ENTITY ns_custom "http://ns.adobe.com/GenericCustomNamespace/1.0/">
	<!ENTITY ns_adobe_xpath "http://ns.adobe.com/XPath/1.0/">
]>
<svg version="1.1" id="Capa_1" xmlns:x="&ns_extend;" xmlns:i="&ns_ai;" xmlns:graph="&ns_graphs;"
	 xmlns="http://www.w3.org/2000/svg" xmlns:xlink="http://www.w3.org/1999/xlink" x="0px" y="0px" width="22px" height="24px"
	 viewBox="0 0 22 24" enable-background="new 0 0 22 24" xml:space="preserve">
<metadata>
	<sfw  xmlns="&ns_sfw;">
		<slices></slices>
		<sliceSourceBounds  height="20.598" width="20.421" x="295.22" y="386.598" bottomLeftOrigin="true"></sliceSourceBounds>
	</sfw>
</metadata>
<g>
	<path fill="none" stroke="#FFFFFF" stroke-width="0.9634" stroke-linecap="round" d="M18.264,14.541H3.597
		c-1.321,0-2.395-1.074-2.395-2.395V4.182c0-1.321,1.074-2.396,2.395-2.396h14.667c1.32,0,2.396,1.075,2.396,2.396v7.965
		C20.657,13.467,19.584,14.541,18.264,14.541z M3.597,2.438c-0.961,0-1.743,0.783-1.743,1.744v7.965
		c0,0.962,0.782,1.744,1.743,1.744h14.667c0.963,0,1.744-0.781,1.744-1.744V4.182c0-0.961-0.781-1.744-1.744-1.744H3.597z"/>
	
		<rect x="1.712" y="3.932" fill="none" stroke="#FFFFFF" stroke-width="0.9634" stroke-linecap="round" width="18.438" height="2.155"/>
	
		<rect x="3.432" y="7.652" fill="none" stroke="#FFFFFF" stroke-width="0.9634" stroke-linecap="round" width="6.955" height="0.628"/>
	
		<rect x="3.432" y="9.421" fill="none" stroke="#FFFFFF" stroke-width="0.9634" stroke-linecap="round" width="6.955" height="0.628"/>
	
		<rect x="3.432" y="11.235" fill="none" stroke="#FFFFFF" stroke-width="0.9634" stroke-linecap="round" width="6.955" height="0.628"/>
</g>
<g>
	<circle fill="#FF0000" cx="5.609" cy="17.651" r="4.111"/>
	<path fill="#FFFFFF" d="M2.918,20.948c-0.104-0.089-0.206-0.183-0.305-0.281c-0.807-0.797-1.25-1.866-1.257-2.997
		c-0.012-2.345,1.888-4.256,4.229-4.271c2.347-0.006,4.263,1.894,4.269,4.231c0.006,1.138-0.428,2.209-1.228,3.017
		c-0.803,0.808-1.866,1.25-3.003,1.256C4.627,21.906,3.682,21.57,2.918,20.948z M8.213,14.463c-0.715-0.585-1.629-0.938-2.619-0.931
		c-1.105,0.006-2.137,0.438-2.913,1.219c-0.775,0.781-1.199,1.817-1.194,2.919c0.004,1.1,0.438,2.133,1.219,2.908
		c0.78,0.773,1.815,1.197,2.918,1.195c1.102-0.006,2.133-0.438,2.909-1.215c0.773-0.787,1.198-1.819,1.195-2.92l0,0
		C9.725,16.361,9.13,15.214,8.213,14.463z"/>
	<circle fill="#FFFFFF" cx="5.609" cy="17.651" r="3.662"/>
	<path fill="none" stroke="#FF0000" stroke-miterlimit="10" d="M5.482,15.166v4.818"/>
	<path fill="none" stroke="#FF0000" stroke-miterlimit="10" d="M3.074,17.576H7.89"/>
</g>
</svg>
