<?xml version="1.0" encoding="utf-8"?>
<!-- Generator: Adobe Illustrator 16.0.0, SVG Export Plug-In . SVG Version: 6.00 Build 0)  -->
<!DOCTYPE svg PUBLIC "-//W3C//DTD SVG 1.1//EN" "http://www.w3.org/Graphics/SVG/1.1/DTD/svg11.dtd" [
	<!ENTITY ns_extend "http://ns.adobe.com/Extensibility/1.0/">
	<!ENTITY ns_ai "http://ns.adobe.com/AdobeIllustrator/10.0/">
	<!ENTITY ns_graphs "http://ns.adobe.com/Graphs/1.0/">
	<!ENTITY ns_vars "http://ns.adobe.com/Variables/1.0/">
	<!ENTITY ns_imrep "http://ns.adobe.com/ImageReplacement/1.0/">
	<!ENTITY ns_sfw "http://ns.adobe.com/SaveForWeb/1.0/">
	<!ENTITY ns_custom "http://ns.adobe.com/GenericCustomNamespace/1.0/">
	<!ENTITY ns_adobe_xpath "http://ns.adobe.com/XPath/1.0/">
]>
<svg version="1.1" id="Capa_1" xmlns:x="&ns_extend;" xmlns:i="&ns_ai;" xmlns:graph="&ns_graphs;"
	 xmlns="http://www.w3.org/2000/svg" xmlns:xlink="http://www.w3.org/1999/xlink" x="0px" y="0px" width="20px" height="16px"
	 viewBox="0 0 20 16" enable-background="new 0 0 20 16" xml:space="preserve">
<metadata>
	<sfw  xmlns="&ns_sfw;">
		<slices></slices>
		<sliceSourceBounds  height="13.606" width="11.013" x="299.993" y="389.696" bottomLeftOrigin="true"></sliceSourceBounds>
	</sfw>
</metadata>
<g>
	<path fill="#FFFFFF" d="M8.681,5.28h0.136c0.111,0,0.201-0.089,0.201-0.199c0-0.11-0.09-0.199-0.201-0.199H8.681
		c-0.11,0-0.199,0.089-0.199,0.199C8.482,5.191,8.571,5.28,8.681,5.28z"/>
	<path fill="#FFFFFF" d="M9.739,5.28h0.137c0.109,0,0.198-0.089,0.198-0.199c0-0.11-0.089-0.199-0.198-0.199H9.739
		c-0.111,0-0.201,0.089-0.201,0.199C9.539,5.191,9.628,5.28,9.739,5.28z"/>
	<path fill="#FFFFFF" d="M10.796,5.28h0.138c0.109,0,0.198-0.089,0.198-0.199c0-0.11-0.089-0.199-0.198-0.199h-0.138
		c-0.109,0-0.198,0.089-0.198,0.199C10.598,5.191,10.687,5.28,10.796,5.28L10.796,5.28z"/>
	<path fill="#FFFFFF" d="M8.681,6.21h0.136c0.111,0,0.201-0.089,0.201-0.199c0-0.11-0.09-0.199-0.201-0.199H8.681
		c-0.11,0-0.199,0.089-0.199,0.199C8.482,6.121,8.571,6.21,8.681,6.21z"/>
	<path fill="#FFFFFF" d="M9.739,6.21h0.137c0.109,0,0.198-0.089,0.198-0.199c0-0.11-0.089-0.199-0.198-0.199H9.739
		c-0.111,0-0.201,0.089-0.201,0.199C9.539,6.121,9.628,6.21,9.739,6.21z"/>
	<path fill="#FFFFFF" d="M10.796,6.21h0.138c0.109,0,0.198-0.089,0.198-0.199c0-0.11-0.089-0.199-0.198-0.199h-0.138
		c-0.109,0-0.198,0.089-0.198,0.199C10.598,6.121,10.687,6.21,10.796,6.21L10.796,6.21z"/>
	<path fill="#FFFFFF" d="M8.681,7.141h0.136c0.111,0,0.201-0.089,0.201-0.199c0-0.11-0.09-0.199-0.201-0.199H8.681
		c-0.11,0-0.199,0.089-0.199,0.199C8.482,7.052,8.571,7.141,8.681,7.141z"/>
	<path fill="#FFFFFF" d="M9.739,7.141h0.137c0.109,0,0.198-0.089,0.198-0.199c0-0.11-0.089-0.199-0.198-0.199H9.739
		c-0.111,0-0.201,0.089-0.201,0.199C9.539,7.052,9.628,7.141,9.739,7.141z"/>
	<path fill="#FFFFFF" d="M10.796,7.141h0.138c0.109,0,0.198-0.089,0.198-0.199c0-0.11-0.089-0.199-0.198-0.199h-0.138
		c-0.109,0-0.198,0.089-0.198,0.199C10.598,7.052,10.687,7.141,10.796,7.141L10.796,7.141z"/>
	<path fill="#FFFFFF" d="M12.888,6.454H12.75c-0.109,0-0.198,0.089-0.198,0.199s0.089,0.199,0.198,0.199h0.138
		c0.109,0,0.199-0.089,0.199-0.199S12.997,6.454,12.888,6.454L12.888,6.454z"/>
	<path fill="#FFFFFF" d="M12.888,7.385H12.75c-0.109,0-0.198,0.089-0.198,0.199c0,0.11,0.089,0.199,0.198,0.199h0.138
		c0.109,0,0.199-0.089,0.199-0.199C13.087,7.474,12.997,7.385,12.888,7.385L12.888,7.385z"/>
	<path fill="#FFFFFF" d="M12.888,8.314H12.75c-0.109,0-0.198,0.089-0.198,0.2c0,0.109,0.089,0.199,0.198,0.199h0.138
		c0.109,0,0.199-0.09,0.199-0.199C13.087,8.403,12.997,8.314,12.888,8.314L12.888,8.314z"/>
	<path fill="#FFFFFF" d="M6.726,6.853h0.138c0.11,0,0.199-0.089,0.199-0.199S6.974,6.454,6.864,6.454H6.726
		c-0.108,0-0.198,0.089-0.198,0.199S6.618,6.853,6.726,6.853z"/>
	<path fill="#FFFFFF" d="M6.726,7.783h0.138c0.11,0,0.199-0.089,0.199-0.199c0-0.11-0.089-0.199-0.199-0.199H6.726
		c-0.108,0-0.198,0.089-0.198,0.199C6.528,7.694,6.618,7.783,6.726,7.783z"/>
	<path fill="#FFFFFF" d="M6.726,8.713h0.138c0.11,0,0.199-0.09,0.199-0.199c0-0.11-0.089-0.2-0.199-0.2H6.726
		c-0.108,0-0.198,0.089-0.198,0.2C6.528,8.623,6.618,8.713,6.726,8.713z"/>
	<path fill="#FFFFFF" d="M15.491,1.989c-0.041-0.121-0.143-0.207-0.268-0.226l-0.364-0.053l-0.162-0.329
		c-0.057-0.114-0.171-0.185-0.298-0.185l0,0c-0.126,0-0.24,0.071-0.296,0.185L13.94,1.711l-0.363,0.053
		c-0.139,0.021-0.249,0.123-0.277,0.263c-0.03-0.142-0.141-0.243-0.278-0.263l-0.362-0.053l-0.163-0.329
		C12.44,1.268,12.327,1.197,12.2,1.197l0,0c-0.126,0-0.242,0.071-0.298,0.185l-0.161,0.329l-0.365,0.053
		c-0.137,0.021-0.249,0.123-0.277,0.263c-0.028-0.142-0.141-0.243-0.276-0.263l-0.363-0.053l-0.161-0.329
		C10.242,1.268,10.127,1.197,10,1.197l0,0c-0.127,0-0.241,0.071-0.298,0.185L9.54,1.711L9.178,1.764
		C9.039,1.784,8.929,1.887,8.901,2.027C8.872,1.885,8.761,1.784,8.624,1.764L8.259,1.711L8.097,1.382
		C8.041,1.268,7.927,1.197,7.8,1.197l0,0c-0.126,0-0.24,0.071-0.296,0.185L7.34,1.711L6.978,1.764
		c-0.139,0.02-0.249,0.123-0.277,0.263C6.67,1.885,6.56,1.784,6.422,1.764L6.06,1.711L5.896,1.382
		C5.84,1.268,5.727,1.197,5.601,1.197l0,0c-0.127,0-0.242,0.071-0.298,0.185L5.141,1.711L4.777,1.764
		C4.652,1.782,4.549,1.868,4.509,1.989C4.471,2.11,4.503,2.24,4.593,2.329l0.263,0.256L4.794,2.947
		c-0.022,0.125,0.029,0.25,0.132,0.325c0.103,0.074,0.237,0.084,0.349,0.024l0.325-0.17l0.324,0.17
		c0.112,0.06,0.247,0.05,0.35-0.024c0.103-0.075,0.152-0.199,0.132-0.325L6.344,2.585l0.263-0.256
		c0.048-0.048,0.081-0.108,0.094-0.171c0.012,0.063,0.044,0.123,0.093,0.171l0.263,0.256L6.994,2.947
		c-0.021,0.125,0.03,0.25,0.132,0.325c0.103,0.074,0.238,0.084,0.35,0.024L7.8,3.125l0.325,0.17c0.112,0.06,0.247,0.05,0.35-0.024
		c0.103-0.075,0.153-0.199,0.131-0.325L8.545,2.585l0.263-0.256c0.047-0.048,0.08-0.107,0.094-0.171
		c0.012,0.063,0.043,0.123,0.094,0.171l0.262,0.256L9.195,2.947c-0.021,0.125,0.03,0.25,0.132,0.325
		C9.43,3.346,9.562,3.355,9.675,3.296L10,3.125l0.326,0.171c0.111,0.059,0.244,0.049,0.347-0.025
		c0.103-0.075,0.154-0.199,0.133-0.325l-0.063-0.362l0.263-0.256c0.051-0.047,0.082-0.107,0.094-0.171
		c0.015,0.063,0.047,0.124,0.094,0.171l0.263,0.256l-0.061,0.362c-0.022,0.125,0.027,0.25,0.131,0.325
		c0.104,0.074,0.237,0.084,0.351,0.025L12.2,3.125l0.324,0.171c0.112,0.059,0.247,0.05,0.35-0.025
		c0.103-0.075,0.152-0.199,0.133-0.325l-0.063-0.362l0.263-0.256c0.05-0.047,0.082-0.107,0.094-0.171
		c0.013,0.063,0.045,0.124,0.094,0.171l0.263,0.256l-0.063,0.362c-0.021,0.125,0.029,0.25,0.132,0.325
		c0.104,0.074,0.237,0.084,0.35,0.025l0.324-0.171l0.325,0.171c0.112,0.059,0.247,0.05,0.349-0.025
		c0.104-0.075,0.155-0.199,0.133-0.325l-0.063-0.362l0.263-0.256C15.496,2.24,15.529,2.11,15.491,1.989L15.491,1.989z M6.041,2.324
		C5.962,2.4,5.926,2.51,5.945,2.617L5.99,2.88L5.755,2.756C5.706,2.731,5.653,2.718,5.601,2.718c-0.053,0-0.107,0.013-0.155,0.038
		L5.211,2.88l0.043-0.263C5.273,2.51,5.238,2.4,5.16,2.324L4.969,2.139l0.264-0.038c0.109-0.016,0.202-0.083,0.251-0.182L5.601,1.68
		l0.117,0.239c0.047,0.098,0.141,0.166,0.249,0.182l0.264,0.038L6.041,2.324z M8.24,2.324C8.162,2.4,8.128,2.51,8.146,2.617
		L8.189,2.88L7.955,2.756C7.907,2.731,7.853,2.718,7.8,2.718c-0.052,0-0.105,0.013-0.155,0.038L7.411,2.88l0.045-0.263
		C7.474,2.51,7.439,2.4,7.359,2.324L7.17,2.139l0.263-0.038c0.109-0.016,0.202-0.083,0.25-0.182L7.8,1.68l0.118,0.239
		c0.049,0.098,0.143,0.166,0.25,0.182l0.264,0.038L8.24,2.324z M10.439,2.324C10.363,2.4,10.326,2.51,10.345,2.617L10.39,2.88
		l-0.236-0.124c-0.048-0.025-0.1-0.038-0.154-0.038S9.895,2.731,9.846,2.756L9.609,2.88l0.046-0.263
		C9.675,2.51,9.638,2.4,9.561,2.324L9.37,2.139l0.262-0.038C9.74,2.085,9.834,2.017,9.881,1.919L10,1.68l0.118,0.239
		c0.049,0.098,0.143,0.166,0.25,0.182l0.261,0.038L10.439,2.324z M12.641,2.324C12.562,2.4,12.525,2.51,12.544,2.617l0.045,0.263
		l-0.233-0.124c-0.05-0.025-0.103-0.038-0.155-0.038c-0.054,0-0.107,0.013-0.154,0.038L11.811,2.88l0.043-0.263
		C11.872,2.51,11.839,2.4,11.76,2.324l-0.191-0.186l0.264-0.038c0.108-0.016,0.201-0.083,0.251-0.182L12.2,1.68l0.117,0.239
		c0.048,0.098,0.142,0.166,0.249,0.182l0.263,0.038L12.641,2.324z M14.84,2.324C14.762,2.4,14.727,2.51,14.745,2.617l0.044,0.263
		l-0.234-0.124c-0.048-0.025-0.103-0.038-0.155-0.038s-0.105,0.013-0.154,0.038L14.011,2.88l0.045-0.263
		c0.018-0.107-0.018-0.217-0.097-0.293L13.77,2.139l0.264-0.038c0.107-0.016,0.201-0.083,0.249-0.182l0.117-0.239l0.117,0.239
		c0.05,0.098,0.143,0.166,0.251,0.182l0.264,0.038L14.84,2.324z"/>
	<path fill="#FFFFFF" d="M10.621,13.126c0-0.36-0.262-0.662-0.614-0.747v-0.72c0.127,0.063,0.216,0.186,0.216,0.325
		c0,0.11,0.089,0.199,0.197,0.199c0.111,0,0.201-0.089,0.201-0.199c0-0.359-0.262-0.662-0.614-0.746v-0.014
		c0-0.109-0.089-0.198-0.201-0.198c-0.108,0-0.198,0.089-0.198,0.198v0.014c-0.353,0.084-0.614,0.387-0.614,0.746
		s0.261,0.663,0.614,0.747v0.719c-0.13-0.063-0.215-0.185-0.215-0.324c0-0.11-0.089-0.199-0.201-0.199
		c-0.108,0-0.197,0.089-0.197,0.199c0,0.359,0.261,0.661,0.614,0.745v0.014c0,0.11,0.089,0.199,0.198,0.199
		c0.112,0,0.201-0.089,0.201-0.199v-0.014C10.359,13.787,10.621,13.485,10.621,13.126L10.621,13.126z M9.609,12.31
		c-0.13-0.063-0.215-0.186-0.215-0.325s0.085-0.262,0.215-0.325V12.31z M10.007,13.45V12.8c0.127,0.063,0.216,0.186,0.216,0.326
		C10.223,13.266,10.134,13.388,10.007,13.45z"/>
	<path fill="#FFFFFF" d="M7.762,12.355c-0.109,0-0.198,0.09-0.198,0.199c0,0.111,0.089,0.2,0.198,0.2H7.97
		c0.111,0,0.2-0.089,0.2-0.2c0-0.109-0.089-0.199-0.2-0.199H7.762z"/>
	<path fill="#FFFFFF" d="M11.756,12.755c0.111,0,0.201-0.089,0.201-0.2c0-0.109-0.09-0.199-0.201-0.199h-0.207
		c-0.108,0-0.199,0.09-0.199,0.199c0,0.111,0.091,0.2,0.199,0.2H11.756z"/>
	<path fill="#FFFFFF" d="M13.391,10.307c-0.239,0-6.631,0-7.167,0c-0.285,0-0.517,0.232-0.517,0.518v3.463
		c0,0.285,0.232,0.517,0.517,0.517h3.118c0.111,0,0.2-0.09,0.2-0.201c0-0.108-0.089-0.197-0.2-0.197H7.497
		c-0.034-0.752-0.639-1.358-1.39-1.392v-0.918c0.751-0.033,1.356-0.639,1.39-1.39h4.621c0.032,0.751,0.639,1.356,1.391,1.39v0.918
		c-0.752,0.033-1.358,0.64-1.391,1.392h-1.845c-0.11,0-0.199,0.089-0.199,0.197c0,0.111,0.089,0.201,0.199,0.201h3.118
		c0.284,0,0.517-0.231,0.517-0.517c0-0.177,0-3.288,0-3.463C13.907,10.539,13.675,10.307,13.391,10.307L13.391,10.307z
		 M7.097,14.405H6.224c-0.064,0-0.117-0.054-0.117-0.118v-0.875C6.637,13.445,7.064,13.872,7.097,14.405z M6.106,11.696v-0.872
		c0-0.066,0.053-0.118,0.117-0.118h0.874C7.064,11.237,6.637,11.664,6.106,11.696z M13.508,14.287c0,0.064-0.052,0.118-0.117,0.118
		h-0.875c0.032-0.533,0.46-0.96,0.992-0.993V14.287z M13.508,11.696c-0.532-0.032-0.96-0.459-0.992-0.99h0.875
		c0.065,0,0.117,0.052,0.117,0.118V11.696z"/>
	<path fill="#FFFFFF" d="M13.762,7.317c0.112,0,0.201-0.089,0.201-0.199V5.599h0.052c0.108,0,0.197-0.089,0.197-0.2
		c0-0.11-0.089-0.199-0.197-0.199c-0.418,0-1.519,0-1.964,0V4.221c0.103-0.009,0.184-0.094,0.184-0.199
		c0-0.11-0.09-0.199-0.198-0.199c-0.119,0-4.338,0-4.457,0c-0.111,0-0.2,0.089-0.2,0.199c0,0.105,0.082,0.19,0.185,0.199V5.2
		c-0.346,0-1.522,0-1.964,0c-0.111,0-0.2,0.089-0.2,0.199c0,0.11,0.089,0.2,0.2,0.2h0.051v3.969H5.601c-0.111,0-0.2,0.089-0.2,0.199
		s0.089,0.199,0.2,0.199h8.414c0.108,0,0.197-0.089,0.197-0.199s-0.089-0.199-0.197-0.199h-0.052V8.048
		c0-0.11-0.089-0.199-0.201-0.199c-0.108,0-0.197,0.089-0.197,0.199v1.521h-1.514V5.599h1.514v1.519
		C13.564,7.228,13.653,7.317,13.762,7.317L13.762,7.317z M7.564,9.568H6.05V5.599h1.514V9.568z M10.431,9.568H9.183V8.17
		c0-0.005,0.004-0.007,0.008-0.007h1.233c0.004,0,0.007,0.002,0.007,0.007V9.568z M11.652,9.568H10.83V8.17
		c0-0.224-0.182-0.406-0.406-0.406H9.19c-0.223,0-0.406,0.182-0.406,0.406v1.398H7.963c0-0.139,0-5.205,0-5.348h3.689V9.568z"/>
</g>
</svg>
