<?xml version="1.0" encoding="utf-8"?>
<!-- Generator: Adobe Illustrator 16.0.0, SVG Export Plug-In . SVG Version: 6.00 Build 0)  -->
<!DOCTYPE svg PUBLIC "-//W3C//DTD SVG 1.1//EN" "http://www.w3.org/Graphics/SVG/1.1/DTD/svg11.dtd" [
	<!ENTITY ns_extend "http://ns.adobe.com/Extensibility/1.0/">
	<!ENTITY ns_ai "http://ns.adobe.com/AdobeIllustrator/10.0/">
	<!ENTITY ns_graphs "http://ns.adobe.com/Graphs/1.0/">
	<!ENTITY ns_vars "http://ns.adobe.com/Variables/1.0/">
	<!ENTITY ns_imrep "http://ns.adobe.com/ImageReplacement/1.0/">
	<!ENTITY ns_sfw "http://ns.adobe.com/SaveForWeb/1.0/">
	<!ENTITY ns_custom "http://ns.adobe.com/GenericCustomNamespace/1.0/">
	<!ENTITY ns_adobe_xpath "http://ns.adobe.com/XPath/1.0/">
]>
<svg version="1.1" id="Capa_1" xmlns:x="&ns_extend;" xmlns:i="&ns_ai;" xmlns:graph="&ns_graphs;"
	 xmlns="http://www.w3.org/2000/svg" xmlns:xlink="http://www.w3.org/1999/xlink" x="0px" y="0px" width="96px" height="96px"
	 viewBox="0 0 96 96" enable-background="new 0 0 96 96" xml:space="preserve">
<metadata>
	<sfw  xmlns="&ns_sfw;">
		<slices></slices>
		<sliceSourceBounds  height="74.835" width="74.835" y="359.083" x="268.083" bottomLeftOrigin="true"></sliceSourceBounds>
	</sfw>
</metadata>
<path fill="none" stroke="#FF0000" stroke-width="4.4342" stroke-linecap="round" stroke-linejoin="round" stroke-miterlimit="10" d="
	M38.598,64C40.8,65.6,44,67.2,48,67.2c4,0,7.2-1.601,9.402-3.2"/>
<path fill="none" stroke="#FF0000" stroke-width="4.4342" stroke-linecap="round" stroke-linejoin="round" stroke-miterlimit="10" d="
	M64,38.4v6.4"/>
<path fill="none" stroke="#FF0000" stroke-width="4.4342" stroke-linecap="round" stroke-linejoin="round" stroke-miterlimit="10" d="
	M32,38.4v6.4"/>
<path fill="none" stroke="#FF0000" stroke-width="4.4342" stroke-linecap="round" stroke-linejoin="round" stroke-miterlimit="10" d="
	M48,38.4v12.8c0,1.767-1.434,3.2-3.2,3.2"/>
<path fill="none" stroke="#FF0000" stroke-width="4.4342" stroke-linecap="round" stroke-linejoin="round" stroke-miterlimit="10" d="
	M83.201,28.8v-9.6c0-3.536-2.865-6.4-6.4-6.4h-9.6"/>
<path fill="none" stroke="#FF0000" stroke-width="4.4342" stroke-linecap="round" stroke-linejoin="round" stroke-miterlimit="10" d="
	M28.801,12.8h-9.6c-3.536,0-6.4,2.864-6.4,6.4v9.6"/>
<path fill="none" stroke="#FF0000" stroke-width="4.4342" stroke-linecap="round" stroke-linejoin="round" stroke-miterlimit="10" d="
	M67.201,83.2h9.6c3.535,0,6.4-2.864,6.4-6.399V67.2"/>
<path fill="none" stroke="#FF0000" stroke-width="4.4342" stroke-linecap="round" stroke-linejoin="round" stroke-miterlimit="10" d="
	M12.8,67.2v9.601c0,3.535,2.864,6.399,6.4,6.399h9.6"/>
</svg>
