<?xml version="1.0" encoding="utf-8"?>
<!-- Generator: Adobe Illustrator 16.0.0, SVG Export Plug-In . SVG Version: 6.00 Build 0)  -->
<!DOCTYPE svg PUBLIC "-//W3C//DTD SVG 1.1//EN" "http://www.w3.org/Graphics/SVG/1.1/DTD/svg11.dtd" [
	<!ENTITY ns_extend "http://ns.adobe.com/Extensibility/1.0/">
	<!ENTITY ns_ai "http://ns.adobe.com/AdobeIllustrator/10.0/">
	<!ENTITY ns_graphs "http://ns.adobe.com/Graphs/1.0/">
	<!ENTITY ns_vars "http://ns.adobe.com/Variables/1.0/">
	<!ENTITY ns_imrep "http://ns.adobe.com/ImageReplacement/1.0/">
	<!ENTITY ns_sfw "http://ns.adobe.com/SaveForWeb/1.0/">
	<!ENTITY ns_custom "http://ns.adobe.com/GenericCustomNamespace/1.0/">
	<!ENTITY ns_adobe_xpath "http://ns.adobe.com/XPath/1.0/">
]>
<svg version="1.1" id="Capa_1" xmlns:x="&ns_extend;" xmlns:i="&ns_ai;" xmlns:graph="&ns_graphs;"
	 xmlns="http://www.w3.org/2000/svg" xmlns:xlink="http://www.w3.org/1999/xlink" x="0px" y="0px" width="18px" height="25px"
	 viewBox="0 0 18 25" enable-background="new 0 0 18 25" xml:space="preserve">
<metadata>
	<sfw  xmlns="&ns_sfw;">
		<slices></slices>
		<sliceSourceBounds  height="21.394" width="15.643" x="297.856" y="387.098" bottomLeftOrigin="true"></sliceSourceBounds>
	</sfw>
</metadata>
<g>
	<g>
		<path fill="#FFFFFF" d="M14.443,4.375c0,0.067-0.002,0.133-0.004,0.199c-0.004,0.066-0.008,0.131-0.016,0.196
			c-0.011,0.097-0.023,0.194-0.041,0.289c-0.021,0.104-0.041,0.207-0.066,0.307c-0.053,0.195-0.116,0.382-0.198,0.563
			c-0.011,0.025-0.021,0.05-0.034,0.078c-0.041,0.089-0.088,0.177-0.139,0.263c-0.012,0.026-0.024,0.051-0.043,0.078
			c-0.182,0.304-0.4,0.582-0.654,0.825c-0.025,0.023-0.051,0.046-0.074,0.069c-0.042,0.039-0.085,0.076-0.129,0.112
			c-0.029,0.024-0.059,0.047-0.089,0.071c-0.065,0.051-0.134,0.099-0.201,0.147c-0.011,0.006-0.022,0.014-0.032,0.02
			c-0.091,0.062-0.182,0.118-0.279,0.172c-0.088,0.049-0.176,0.092-0.268,0.134C12.17,7.9,12.164,7.903,12.159,7.906
			c-0.183,0.08-0.369,0.148-0.563,0.2c-0.037,0.012-0.08,0.022-0.121,0.031c-0.195,0.046-0.395,0.078-0.598,0.093
			c-0.066,0.005-0.133,0.008-0.199,0.01c-0.033,0-0.064,0-0.099,0c-0.036,0-0.069,0-0.101,0c-0.066-0.002-0.133-0.005-0.199-0.01
			c-0.203-0.017-0.402-0.048-0.596-0.094C9.641,8.127,9.6,8.116,9.561,8.105C9.366,8.052,9.18,7.984,8.997,7.904
			C8.992,7.902,8.986,7.899,8.98,7.897C8.9,7.859,8.82,7.82,8.743,7.778C8.636,7.72,8.535,7.658,8.434,7.591
			c-0.012-0.005-0.021-0.013-0.03-0.02C8.335,7.523,8.267,7.474,8.202,7.424C8.172,7.4,8.143,7.377,8.116,7.353
			C8.068,7.316,8.026,7.279,7.983,7.24C7.938,7.197,7.891,7.152,7.847,7.108c-0.23-0.227-0.43-0.483-0.595-0.761
			C7.237,6.32,7.225,6.296,7.207,6.269C7.16,6.183,7.115,6.095,7.073,6.006C7.062,5.979,7.049,5.955,7.037,5.928
			c-0.079-0.18-0.146-0.367-0.196-0.562C6.815,5.265,6.792,5.162,6.773,5.059c-0.017-0.094-0.031-0.191-0.041-0.29
			c-0.007-0.066-0.013-0.13-0.014-0.196C6.714,4.507,6.714,4.439,6.714,4.374s-0.029-0.133-0.026-0.2
			c0.004-0.041-0.022-0.08-0.022-0.12l0,0c0-0.024,0.036-0.051,0.038-0.075S6.726,3.93,6.726,3.906
			c0.01-0.072,0.025-0.144,0.041-0.216c0.018-0.104,0.044-0.206,0.07-0.307c0.05-0.194,0.118-0.382,0.2-0.562
			c0.005-0.013,0.01-0.026,0.016-0.04c0.008-0.013,0.015-0.027,0.02-0.04c0.041-0.09,0.087-0.178,0.135-0.264
			c0.015-0.023,0.028-0.05,0.042-0.075C7.433,2.097,7.653,1.82,7.911,1.577c0.022-0.023,0.048-0.046,0.072-0.07
			c0.04-0.037,0.085-0.075,0.131-0.112c0.028-0.024,0.058-0.048,0.087-0.071c0.066-0.049,0.134-0.099,0.203-0.146
			c0.01-0.007,0.018-0.015,0.028-0.021C8.607,1.042,8.791,0.939,8.98,0.853C8.986,0.85,8.992,0.847,8.999,0.845
			C9.18,0.764,9.366,0.697,9.561,0.644c0.041-0.011,0.082-0.022,0.123-0.031c0.193-0.046,0.394-0.079,0.596-0.093
			c0.068-0.004,0.135-0.009,0.201-0.01c0.031,0,0.065-0.001,0.102-0.001c0.031,0,0.064,0.001,0.1,0.001
			c0.066,0.001,0.135,0.005,0.197,0.01c0.205,0.015,0.404,0.046,0.6,0.093c0.039,0.009,0.082,0.021,0.123,0.031
			c0.192,0.052,0.381,0.119,0.562,0.201c0.007,0.002,0.013,0.005,0.017,0.008c0.193,0.087,0.377,0.188,0.549,0.304
			c0.013,0.007,0.021,0.013,0.033,0.021c0.066,0.046,0.133,0.096,0.199,0.147c0.029,0.023,0.061,0.046,0.09,0.071
			c0.043,0.037,0.086,0.075,0.129,0.113c0.022,0.023,0.049,0.045,0.07,0.068c0.256,0.243,0.477,0.521,0.659,0.826
			c0.018,0.025,0.03,0.05,0.043,0.077C14,2.567,14.047,2.655,14.09,2.745c0.014,0.025,0.023,0.051,0.034,0.078
			c0.08,0.181,0.146,0.368,0.196,0.562c0.027,0.101,0.051,0.203,0.068,0.307c0.016,0.096,0.03,0.191,0.043,0.29
			c0,0.03,0.004,0.061,0.006,0.091c0.004,0.035,0.004,0.07,0.006,0.104C14.441,4.242,14.443,4.308,14.443,4.375z"/>
		<path fill="#FFFFFF" d="M6.725,4.054c0,0,0.001,0.001,0.002,0.001l0,0l0,0C6.726,4.054,6.725,4.054,6.725,4.054z M6.656,4.016
			c0.004,0.002,0.006,0.005,0.01,0.006c0.017,0.009,0.032,0.02,0.06,0.03C6.719,4.05,6.716,4.048,6.712,4.046
			C6.695,4.035,6.673,4.027,6.656,4.016z"/>
		<path fill="#FFFFFF" d="M6.656,4.016c0.019,0.011,0.04,0.019,0.059,0.028C6.698,4.037,6.682,4.03,6.665,4.023
			C6.661,4.022,6.659,4.02,6.656,4.016z"/>
		<path fill="#FFFFFF" d="M6.727,4.055L6.727,4.055L6.727,4.055z"/>
	</g>
	<path fill="#FFFFFF" d="M16.993,11.94v4.003c0,0.082-0.022,0.156-0.099,0.156H4.265c-0.08,0-0.126-0.074-0.126-0.156V11.94
		c0-0.065-0.014-0.128-0.013-0.191c0.047-0.954,0.421-1.818,1.021-2.467c0.017-0.019,0.031-0.039,0.048-0.057
		C5.493,8.914,5.84,8.656,6.223,8.466c0.024-0.012,0.046-0.023,0.069-0.035C6.4,8.383,6.506,8.337,6.619,8.298
		C6.642,8.289,6.668,8.28,6.693,8.273C6.79,8.24,6.891,8.21,6.993,8.188c0.125,0.119,0.257,0.234,0.393,0.34
		c0.348,0.274,0.725,0.5,1.127,0.677C8.586,9.24,8.666,9.271,8.742,9.3C9.039,9.415,9.34,9.501,9.65,9.558
		c0.303,0.055,0.613,0.084,0.924,0.084c0.357,0,0.709-0.059,1.053-0.132c0.043-0.009,0.086-0.051,0.129-0.051l0,0
		c0.064,0,0.129,0,0.191,0l0,0c0.166,0,0.33-0.106,0.496-0.17c0.063-0.026,0.129-0.043,0.189-0.072
		c0.313-0.139,0.609-0.285,0.891-0.495l0,0c0.031,0,0.063-0.057,0.092-0.081c0.185-0.135,0.359-0.291,0.527-0.45
		c1.584,0.369,2.771,1.814,2.855,3.559C17,11.815,16.993,11.876,16.993,11.94z"/>
</g>
<g>
	<circle fill="#FF0000" cx="5.609" cy="17.651" r="4.111"/>
	<path fill="#FFFFFF" d="M2.918,20.948c-0.104-0.089-0.206-0.183-0.305-0.281c-0.807-0.797-1.25-1.866-1.257-2.997
		c-0.012-2.345,1.888-4.256,4.229-4.271c2.347-0.006,4.263,1.894,4.269,4.231c0.006,1.138-0.428,2.209-1.228,3.017
		c-0.803,0.808-1.866,1.25-3.003,1.256C4.627,21.906,3.682,21.57,2.918,20.948z M8.213,14.463c-0.715-0.585-1.629-0.938-2.619-0.931
		c-1.105,0.006-2.137,0.438-2.913,1.219c-0.775,0.781-1.199,1.817-1.194,2.919c0.004,1.1,0.438,2.133,1.219,2.908
		c0.78,0.773,1.815,1.197,2.918,1.195c1.102-0.006,2.133-0.438,2.909-1.215c0.773-0.787,1.197-1.819,1.195-2.92l0,0
		C9.725,16.361,9.13,15.214,8.213,14.463z"/>
	<circle fill="#FFFFFF" cx="5.609" cy="17.651" r="3.662"/>
	<path fill="none" stroke="#FF0000" stroke-miterlimit="10" d="M3.192,17.739h3.916"/>
	<path fill="#FF0000" d="M5.852,15.081c-0.233-0.233-0.61-0.233-0.844,0c-0.232,0.233-0.232,0.61,0,0.844L5.852,15.081z
		 M7.668,17.739l0.422,0.422c0.232-0.233,0.232-0.611,0-0.845L7.668,17.739z M5.008,19.557c-0.232,0.232-0.232,0.61,0,0.844
		c0.233,0.233,0.61,0.233,0.844,0L5.008,19.557z M5.008,15.923l2.237,2.238l0.845-0.845l-2.238-2.237L5.008,15.923z M7.246,17.318
		l-2.237,2.238l0.844,0.842l2.238-2.236L7.246,17.318z"/>
</g>
</svg>
