<?xml version="1.0" encoding="utf-8"?>
<!-- Generator: Adobe Illustrator 16.0.0, SVG Export Plug-In . SVG Version: 6.00 Build 0)  -->
<!DOCTYPE svg PUBLIC "-//W3C//DTD SVG 1.1//EN" "http://www.w3.org/Graphics/SVG/1.1/DTD/svg11.dtd" [
	<!ENTITY ns_extend "http://ns.adobe.com/Extensibility/1.0/">
	<!ENTITY ns_ai "http://ns.adobe.com/AdobeIllustrator/10.0/">
	<!ENTITY ns_graphs "http://ns.adobe.com/Graphs/1.0/">
	<!ENTITY ns_vars "http://ns.adobe.com/Variables/1.0/">
	<!ENTITY ns_imrep "http://ns.adobe.com/ImageReplacement/1.0/">
	<!ENTITY ns_sfw "http://ns.adobe.com/SaveForWeb/1.0/">
	<!ENTITY ns_custom "http://ns.adobe.com/GenericCustomNamespace/1.0/">
	<!ENTITY ns_adobe_xpath "http://ns.adobe.com/XPath/1.0/">
]>
<svg version="1.1" id="Capa_1" xmlns:x="&ns_extend;" xmlns:i="&ns_ai;" xmlns:graph="&ns_graphs;"
	 xmlns="http://www.w3.org/2000/svg" xmlns:xlink="http://www.w3.org/1999/xlink" x="0px" y="0px" width="12px" height="12px"
	 viewBox="0 0 12 12" enable-background="new 0 0 12 12" xml:space="preserve">
<metadata>
	<sfw  xmlns="&ns_sfw;">
		<slices></slices>
		<sliceSourceBounds  height="10.283" width="7.497" y="391.358" x="301.751" bottomLeftOrigin="true"></sliceSourceBounds>
	</sfw>
</metadata>
<g>
	<path fill="#FF0000" d="M5.013,4.577C5.01,4.16,5.002,3.75,5.007,3.332C5.01,2.882,5.293,2.508,5.71,2.377
		C6.125,2.248,6.576,2.4,6.834,2.759c0.111,0.159,0.182,0.338,0.182,0.536C7.014,3.801,7.006,4.292,7,4.797
		c0,0.01-0.002,0.019-0.004,0.019h1.525c-0.002,0-0.006-0.036-0.006-0.061C8.52,4.304,8.521,3.861,8.523,3.408
		C8.527,2.603,8.234,1.934,7.617,1.41C7.256,1.105,6.838,0.938,6.37,0.873C6.29,0.862,6.208,0.858,6.13,0.858
		c-0.08,0-0.157,0-0.237,0c-0.074,0-0.149,0.003-0.224,0.015c-1.026,0.17-1.708,0.747-2.053,1.723C3.522,2.862,3.497,3.138,3.5,3.42
		c0.002,0.452,0.004,0.887,0.008,1.338c0,0.022,0,0.058,0,0.058h1.518C5.02,4.785,5.013,4.66,5.013,4.577z"/>
	<path fill="#FF0000" d="M9.748,5.687c0-0.72-0.582-1.304-1.303-1.304H3.554c-0.721,0-1.303,0.583-1.303,1.304v4.152
		c0,0.719,0.582,1.303,1.303,1.303h4.891c0.721,0,1.303-0.584,1.303-1.303V5.687z"/>
	<path fill="#FFFFFF" d="M6.541,8.21v1.404c0,0.287-0.228,0.523-0.516,0.523c-0.287,0-0.52-0.236-0.52-0.523V8.21
		C5.113,8.019,4.838,7.624,4.838,7.166c0-0.645,0.513-1.167,1.157-1.167c0.645,0,1.178,0.522,1.178,1.167
		C7.174,7.624,6.887,8.019,6.541,8.21z"/>
</g>
</svg>
