<?xml version="1.0" encoding="utf-8"?>
<!-- Generator: Adobe Illustrator 16.0.0, SVG Export Plug-In . SVG Version: 6.00 Build 0)  -->
<!DOCTYPE svg PUBLIC "-//W3C//DTD SVG 1.1//EN" "http://www.w3.org/Graphics/SVG/1.1/DTD/svg11.dtd" [
	<!ENTITY ns_extend "http://ns.adobe.com/Extensibility/1.0/">
	<!ENTITY ns_ai "http://ns.adobe.com/AdobeIllustrator/10.0/">
	<!ENTITY ns_graphs "http://ns.adobe.com/Graphs/1.0/">
	<!ENTITY ns_vars "http://ns.adobe.com/Variables/1.0/">
	<!ENTITY ns_imrep "http://ns.adobe.com/ImageReplacement/1.0/">
	<!ENTITY ns_sfw "http://ns.adobe.com/SaveForWeb/1.0/">
	<!ENTITY ns_custom "http://ns.adobe.com/GenericCustomNamespace/1.0/">
	<!ENTITY ns_adobe_xpath "http://ns.adobe.com/XPath/1.0/">
]>
<svg version="1.1" id="Capa_1" xmlns:x="&ns_extend;" xmlns:i="&ns_ai;" xmlns:graph="&ns_graphs;"
	 xmlns="http://www.w3.org/2000/svg" xmlns:xlink="http://www.w3.org/1999/xlink" x="0px" y="0px" width="20px" height="16px"
	 viewBox="0 0 20 16" enable-background="new 0 0 20 16" xml:space="preserve">
<metadata>
	<sfw  xmlns="&ns_sfw;">
		<slices></slices>
		<sliceSourceBounds  height="11.497" width="16.387" x="297.6" y="390.673" bottomLeftOrigin="true"></sliceSourceBounds>
	</sfw>
</metadata>
<g>
	<path fill="#FFFFFF" d="M14.805,11.831H3.884c-0.985,0-1.784-0.804-1.784-1.784V4.114c0-0.983,0.799-1.784,1.784-1.784h10.919
		c0.983,0,1.782,0.8,1.782,1.784v5.93C16.586,11.027,15.787,11.831,14.805,11.831z M3.884,2.814c-0.716,0-1.301,0.584-1.301,1.3
		v5.93c0,0.716,0.585,1.299,1.301,1.299h10.919c0.717,0,1.299-0.583,1.299-1.299v-5.93c0-0.716-0.582-1.3-1.299-1.3H3.884z"/>
	<rect x="2.478" y="3.928" fill="#FFFFFF" width="13.73" height="1.605"/>
	<rect x="3.76" y="6.699" fill="#FFFFFF" width="5.179" height="0.47"/>
	<rect x="3.76" y="8.015" fill="#FFFFFF" width="5.179" height="0.469"/>
	<rect x="3.76" y="9.366" fill="#FFFFFF" width="5.179" height="0.469"/>
</g>
<path fill="#FF0000" stroke="#FF0000" stroke-width="1.117" stroke-miterlimit="10" d="M17.736,8.943l-0.403-0.701
	c-0.052-0.094-0.186-0.105-0.275-0.055L16.653,8.42l-0.002,0.002c-0.168-0.174-0.389-0.359-0.623-0.488l0.121-0.452
	c0.027-0.1-0.032-0.203-0.133-0.23L15.235,7.04c-0.102-0.026-0.203,0.033-0.23,0.133l-0.121,0.449h0.002
	c-0.26-0.008-0.49,0.005-0.778,0.097l-0.231-0.404c-0.052-0.089-0.176-0.123-0.267-0.074l-0.702,0.403
	c-0.09,0.053-0.081,0.152-0.029,0.244l0.232,0.406l0.001,0.002c-0.228,0.195-0.372,0.395-0.502,0.631l-0.468-0.113
	c-0.1-0.025-0.202,0.033-0.229,0.135L11.7,9.729c-0.027,0.102,0.033,0.207,0.133,0.232l0.451,0.123l0.003,0.004
	c-0.009,0.258,0.009,0.496,0.101,0.783l-0.404,0.23c-0.09,0.053-0.104,0.146-0.053,0.234l0.404,0.703
	c0.053,0.09,0.133,0.113,0.221,0.063l0.404-0.232h0.002c0.198,0.225,0.393,0.363,0.627,0.494l-0.113,0.459
	c-0.027,0.1,0.031,0.201,0.132,0.229l0.784,0.211c0.1,0.027,0.205-0.033,0.232-0.133l0.127-0.453l0.01-0.008
	c0.261,0.01,0.515-0.018,0.8-0.109l0.233,0.406c0.051,0.09,0.121,0.135,0.211,0.084l0.703-0.406c0.09-0.051,0.135-0.162,0.082-0.252
	l-0.229-0.404l-0.001-0.002c0.224-0.197,0.349-0.385,0.478-0.617l0.445,0.123c0.101,0.027,0.202-0.031,0.229-0.133l0.211-0.781
	c0.026-0.102-0.033-0.205-0.133-0.23l-0.453-0.125l-0.004-0.008c0.008-0.262-0.013-0.508-0.104-0.793l0.403-0.23
	C17.722,9.135,17.788,9.033,17.736,8.943z M13.894,9.426c0.089-0.115,0.201-0.215,0.334-0.291c0.167-0.096,0.347-0.145,0.525-0.154
	c0.019,0,0.037,0,0.057,0c0.01,0,0.019,0,0.027,0c0.02,0,0.037,0.002,0.057,0.002c0.019,0.002,0.037,0.006,0.057,0.008
	c0.01,0,0.02,0.002,0.027,0.002c0.037,0.006,0.074,0.014,0.109,0.021c0.01,0.002,0.019,0.004,0.026,0.006
	c0.019,0.006,0.037,0.012,0.054,0.018c0.01,0.004,0.02,0.006,0.027,0.01c0.018,0.006,0.034,0.014,0.052,0.02
	c0.009,0.002,0.019,0.008,0.026,0.012c0.012,0.004,0.023,0.012,0.035,0.016c0.015,0.006,0.027,0.012,0.041,0.02
	c0.017,0.01,0.033,0.018,0.049,0.027c0.021,0.016,0.043,0.027,0.064,0.039c0.01,0.008,0.021,0.018,0.029,0.023
	c0.016,0.01,0.031,0.021,0.046,0.035c0.022,0.016,0.044,0.033,0.065,0.055c0.014,0.012,0.027,0.025,0.041,0.041
	c0.066,0.066,0.127,0.145,0.176,0.232c0.092,0.156,0.141,0.326,0.152,0.498c0.002,0.027,0.004,0.057,0.004,0.084
	c0,0.018-0.002,0.037-0.002,0.055c-0.002,0.02-0.002,0.039-0.004,0.057c-0.004,0.049-0.012,0.094-0.021,0.141
	c-0.004,0.018-0.009,0.035-0.014,0.055c-0.008,0.025-0.016,0.053-0.023,0.08c-0.007,0.016-0.014,0.033-0.021,0.051
	c-0.004,0.01-0.006,0.018-0.01,0.027c-0.008,0.018-0.015,0.033-0.022,0.051c-0.013,0.023-0.024,0.051-0.039,0.074
	c-0.011,0.016-0.021,0.031-0.031,0.047c-0.097,0.15-0.231,0.281-0.397,0.377c-0.139,0.08-0.288,0.127-0.438,0.146
	c-0.019,0.002-0.036,0.002-0.057,0.004c-0.056,0.004-0.112,0.004-0.169,0c-0.02-0.002-0.037-0.002-0.057-0.004
	c-0.009-0.002-0.019-0.004-0.027-0.006c-0.027-0.002-0.055-0.008-0.082-0.014c-0.311-0.068-0.592-0.264-0.764-0.561
	c-0.08-0.141-0.127-0.293-0.146-0.443c-0.008-0.066-0.01-0.131-0.005-0.195c0.001-0.02,0.002-0.043,0.004-0.064
	c0.007-0.055,0.017-0.107,0.028-0.158c0.014-0.055,0.031-0.105,0.051-0.156c0.003-0.008,0.008-0.016,0.011-0.025
	c0.008-0.016,0.017-0.031,0.024-0.049c0.007-0.02,0.016-0.035,0.023-0.051c0.02-0.033,0.038-0.066,0.061-0.098
	c0.007-0.012,0.015-0.02,0.021-0.029C13.878,9.445,13.884,9.436,13.894,9.426z"/>
<path fill="#FFFFFF" d="M17.735,8.943l-0.403-0.701c-0.052-0.094-0.186-0.105-0.275-0.055L16.652,8.42L16.65,8.422
	c-0.168-0.174-0.389-0.359-0.623-0.488l0.121-0.452c0.027-0.1-0.032-0.203-0.133-0.23L15.234,7.04
	c-0.102-0.026-0.203,0.033-0.23,0.133l-0.121,0.449h0.002c-0.26-0.008-0.49,0.005-0.778,0.097l-0.231-0.404
	c-0.052-0.089-0.176-0.123-0.267-0.074l-0.702,0.403c-0.09,0.053-0.081,0.152-0.029,0.244l0.232,0.406l0.001,0.002
	c-0.228,0.195-0.372,0.395-0.502,0.631l-0.468-0.113c-0.1-0.025-0.202,0.033-0.229,0.135l-0.212,0.779
	c-0.027,0.102,0.033,0.207,0.133,0.232l0.451,0.123l0.003,0.004c-0.009,0.258,0.009,0.496,0.101,0.783l-0.404,0.23
	c-0.09,0.053-0.104,0.146-0.053,0.234l0.404,0.703c0.053,0.09,0.133,0.113,0.221,0.063l0.404-0.232h0.002
	c0.198,0.225,0.393,0.363,0.627,0.494l-0.113,0.459c-0.027,0.1,0.031,0.201,0.132,0.229l0.784,0.211
	c0.1,0.027,0.205-0.033,0.232-0.133l0.127-0.453l0.01-0.008c0.261,0.01,0.515-0.018,0.8-0.109l0.233,0.406
	c0.051,0.09,0.121,0.135,0.211,0.084l0.703-0.406c0.09-0.051,0.135-0.162,0.082-0.252l-0.229-0.404l-0.001-0.002
	c0.224-0.197,0.349-0.385,0.478-0.617l0.445,0.123c0.101,0.027,0.202-0.031,0.229-0.133l0.211-0.781
	c0.026-0.102-0.033-0.205-0.133-0.23l-0.453-0.125l-0.004-0.008c0.008-0.262-0.013-0.508-0.104-0.793l0.403-0.23
	C17.721,9.135,17.787,9.033,17.735,8.943z M13.893,9.426c0.089-0.115,0.201-0.215,0.334-0.291c0.167-0.096,0.347-0.145,0.525-0.154
	c0.019,0,0.037,0,0.057,0c0.01,0,0.019,0,0.027,0c0.02,0,0.037,0.002,0.057,0.002c0.019,0.002,0.037,0.006,0.057,0.008
	c0.01,0,0.02,0.002,0.027,0.002c0.037,0.006,0.074,0.014,0.109,0.021c0.01,0.002,0.019,0.004,0.026,0.006
	c0.019,0.006,0.037,0.012,0.054,0.018c0.01,0.004,0.02,0.006,0.027,0.01c0.018,0.006,0.034,0.014,0.052,0.02
	c0.009,0.002,0.019,0.008,0.026,0.012c0.012,0.004,0.023,0.012,0.035,0.016c0.015,0.006,0.027,0.012,0.041,0.02
	c0.017,0.01,0.033,0.018,0.049,0.027c0.021,0.016,0.043,0.027,0.064,0.039c0.01,0.008,0.021,0.018,0.029,0.023
	c0.016,0.01,0.031,0.021,0.046,0.035c0.022,0.016,0.044,0.033,0.065,0.055c0.014,0.012,0.027,0.025,0.041,0.041
	c0.066,0.066,0.127,0.145,0.176,0.232c0.092,0.156,0.141,0.326,0.152,0.498c0.002,0.027,0.004,0.057,0.004,0.084
	c0,0.018-0.002,0.037-0.002,0.055c-0.002,0.02-0.002,0.039-0.004,0.057c-0.004,0.049-0.012,0.094-0.021,0.141
	c-0.004,0.018-0.009,0.035-0.014,0.055c-0.008,0.025-0.016,0.053-0.023,0.08c-0.007,0.016-0.014,0.033-0.021,0.051
	c-0.004,0.01-0.006,0.018-0.01,0.027c-0.008,0.018-0.015,0.033-0.022,0.051c-0.013,0.023-0.024,0.051-0.039,0.074
	c-0.011,0.016-0.021,0.031-0.031,0.047c-0.097,0.15-0.231,0.281-0.397,0.377c-0.139,0.08-0.288,0.127-0.438,0.146
	c-0.019,0.002-0.036,0.002-0.057,0.004c-0.056,0.004-0.112,0.004-0.169,0c-0.02-0.002-0.037-0.002-0.057-0.004
	c-0.009-0.002-0.019-0.004-0.027-0.006c-0.027-0.002-0.055-0.008-0.082-0.014c-0.311-0.068-0.592-0.264-0.764-0.561
	c-0.08-0.141-0.127-0.293-0.146-0.443c-0.008-0.066-0.01-0.131-0.005-0.195c0.001-0.02,0.002-0.043,0.004-0.064
	c0.007-0.055,0.017-0.107,0.028-0.158c0.014-0.055,0.031-0.105,0.051-0.156c0.003-0.008,0.008-0.016,0.011-0.025
	c0.008-0.016,0.017-0.031,0.024-0.049c0.007-0.02,0.016-0.035,0.023-0.051c0.02-0.033,0.038-0.066,0.061-0.098
	c0.007-0.012,0.015-0.02,0.021-0.029C13.877,9.445,13.883,9.436,13.893,9.426z"/>
</svg>
