<?xml version="1.0" encoding="utf-8"?>
<!-- Generator: Adobe Illustrator 16.0.0, SVG Export Plug-In . SVG Version: 6.00 Build 0)  -->
<!DOCTYPE svg PUBLIC "-//W3C//DTD SVG 1.1//EN" "http://www.w3.org/Graphics/SVG/1.1/DTD/svg11.dtd" [
	<!ENTITY ns_extend "http://ns.adobe.com/Extensibility/1.0/">
	<!ENTITY ns_ai "http://ns.adobe.com/AdobeIllustrator/10.0/">
	<!ENTITY ns_graphs "http://ns.adobe.com/Graphs/1.0/">
	<!ENTITY ns_vars "http://ns.adobe.com/Variables/1.0/">
	<!ENTITY ns_imrep "http://ns.adobe.com/ImageReplacement/1.0/">
	<!ENTITY ns_sfw "http://ns.adobe.com/SaveForWeb/1.0/">
	<!ENTITY ns_custom "http://ns.adobe.com/GenericCustomNamespace/1.0/">
	<!ENTITY ns_adobe_xpath "http://ns.adobe.com/XPath/1.0/">
]>
<svg version="1.1" id="Capa_1" xmlns:x="&ns_extend;" xmlns:i="&ns_ai;" xmlns:graph="&ns_graphs;"
	 xmlns="http://www.w3.org/2000/svg" xmlns:xlink="http://www.w3.org/1999/xlink" x="0px" y="0px" width="20px" height="16px"
	 viewBox="0 0 20 16" enable-background="new 0 0 20 16" xml:space="preserve">
<metadata>
	<sfw  xmlns="&ns_sfw;">
		<slices></slices>
		<sliceSourceBounds  height="12.756" width="11.203" x="299.898" y="390.122" bottomLeftOrigin="true"></sliceSourceBounds>
	</sfw>
</metadata>
<g>
	<g>
		<g>
			<path fill="#FFFFFF" d="M15.529,12.514l-0.461-0.459c0.123-0.391,0.023-0.828-0.275-1.129c-1.686-1.684-1.689-1.688-1.697-1.691
				c-0.273-0.249-0.697-0.246-0.961,0.004c-0.09,0.084-0.152,0.185-0.188,0.294c-0.049-0.011-0.1-0.018-0.152-0.018
				c-0.08,0-0.16,0.014-0.236,0.042V2.292c0-0.369-0.301-0.67-0.67-0.67h-5.82c-0.37,0-0.67,0.301-0.67,0.67v10.745
				c0,0.369,0.3,0.67,0.67,0.67h5.157c0.041,0.17,0.129,0.325,0.256,0.452c0.119,0.121,0.281,0.188,0.449,0.188l0,0
				c0.17,0,0.33-0.066,0.449-0.188l0.305-0.304c0.096-0.096,0.137-0.096,0.281-0.098c0.041,0,0.084-0.003,0.135-0.004l0.662,0.085
				c0.164,0.021,0.324,0.012,0.48-0.028l0.494,0.494c0.051,0.048,0.113,0.073,0.178,0.073c0.063,0,0.127-0.025,0.176-0.073
				l1.439-1.438C15.625,12.77,15.625,12.611,15.529,12.514z M4.896,2.292c0-0.095,0.077-0.171,0.172-0.171h5.82
				c0.096,0,0.174,0.077,0.174,0.171V3.48H4.896V2.292z M4.896,3.979h6.166v6.19c-0.152,0.019-0.297,0.084-0.41,0.198
				c-0.053,0.052-0.096,0.11-0.127,0.172c-0.19-0.189-0.343-0.343-0.466-0.466v-0.7c0-0.137-0.11-0.249-0.25-0.249H6.147
				c-0.137,0-0.249,0.112-0.249,0.249v1.556c0,0.138,0.112,0.25,0.249,0.25h3.021l0.338,0.338h-4.61V3.979z M8.541,10.55
				c0.003,0.006,0.007,0.009,0.012,0.015c0,0,0.001,0,0.002,0.001l0.114,0.114H6.397V9.624h2.126
				C8.3,9.889,8.302,10.287,8.541,10.55z M10.481,12.787c-0.119,0.12-0.203,0.264-0.247,0.421H5.068
				c-0.095,0-0.172-0.077-0.172-0.171v-1.023h5.11l0.625,0.624L10.481,12.787z M13.254,13.279c-0.133,0.063-0.281,0.085-0.426,0.066
				l-0.689-0.089c-0.018-0.003-0.137,0.002-0.18,0.002c-0.182,0.003-0.387,0.004-0.627,0.244l-0.305,0.305
				c-0.027,0.026-0.061,0.04-0.098,0.04l0,0c-0.035,0-0.07-0.014-0.096-0.04c-0.09-0.089-0.139-0.208-0.139-0.334
				c0-0.004,0-0.006,0-0.01l0,0c0.002-0.123,0.051-0.237,0.139-0.324l0.326-0.326c0.1-0.101,0.109-0.241,0-0.352l-2.247-2.244
				c-0.001-0.001-0.002-0.001-0.002-0.001c-0.077-0.082-0.072-0.214,0.011-0.291c0.077-0.072,0.2-0.072,0.284,0
				c0.069,0.068,1.707,1.705,1.707,1.705c0.047,0.049,0.113,0.072,0.176,0.072c0.064,0,0.127-0.023,0.176-0.072
				c0.098-0.097,0.098-0.255,0-0.353l-0.252-0.254c-0.008-0.008-0.012-0.016-0.02-0.023c-0.07-0.081-0.064-0.205,0.012-0.281
				c0.076-0.075,0.195-0.081,0.277-0.014l0.277,0.276c0.049,0.05,0.113,0.074,0.176,0.074s0.127-0.024,0.176-0.074
				c0.098-0.097,0.098-0.255,0-0.352c0,0-0.268-0.269-0.271-0.274c-0.072-0.082-0.066-0.205,0.012-0.282
				c0.039-0.04,0.092-0.061,0.145-0.061c0.049,0,0.096,0.016,0.131,0.045l0.279,0.28c0.049,0.05,0.113,0.072,0.178,0.072
				c0.063,0,0.127-0.022,0.176-0.072c0.098-0.097,0.098-0.255,0-0.353c0,0-0.094-0.096-0.098-0.101
				c-0.072-0.083-0.066-0.209,0.016-0.285c0.076-0.072,0.199-0.072,0.285,0c0.076,0.076,1.123,1.123,1.678,1.679
				c0.193,0.193,0.238,0.49,0.111,0.729l-1.254,1.254C13.281,13.268,13.268,13.271,13.254,13.279z M13.914,13.777l-0.213-0.213
				l1.086-1.087l0.211,0.213L13.914,13.777z"/>
		</g>
	</g>
	<g>
		<g>
			<path fill="#FFFFFF" d="M8.531,12.362H7.428c-0.138,0-0.25,0.112-0.25,0.249c0,0.138,0.112,0.25,0.25,0.25h1.103
				c0.137,0,0.248-0.112,0.248-0.25C8.779,12.475,8.667,12.362,8.531,12.362z"/>
		</g>
	</g>
	<g>
		<g>
			<path fill="#FFFFFF" d="M10.125,2.751c-0.001-0.015-0.006-0.031-0.013-0.046c-0.006-0.016-0.015-0.03-0.023-0.043
				s-0.019-0.026-0.03-0.038c-0.013-0.011-0.024-0.022-0.039-0.031C10.007,2.584,9.993,2.576,9.979,2.57
				C9.963,2.564,9.948,2.56,9.931,2.556C9.85,2.54,9.764,2.567,9.707,2.624C9.695,2.636,9.684,2.648,9.675,2.662
				S9.659,2.69,9.652,2.706C9.647,2.721,9.641,2.736,9.638,2.751C9.636,2.768,9.634,2.785,9.634,2.8
				c0,0.017,0.002,0.033,0.004,0.048c0.003,0.017,0.009,0.033,0.014,0.047c0.006,0.016,0.014,0.03,0.023,0.043
				s0.02,0.026,0.031,0.038C9.717,2.988,9.73,2.999,9.745,3.008c0.013,0.009,0.028,0.016,0.043,0.023
				c0.016,0.006,0.03,0.011,0.047,0.014C9.85,3.048,9.867,3.05,9.882,3.05c0.018,0,0.032-0.001,0.049-0.005
				c0.016-0.003,0.032-0.007,0.048-0.014c0.014-0.007,0.028-0.014,0.041-0.023c0.015-0.009,0.026-0.02,0.039-0.031
				c0.046-0.047,0.073-0.111,0.073-0.177C10.132,2.785,10.13,2.768,10.125,2.751z"/>
		</g>
	</g>
	<g>
		<g>
			<path fill="#FFFFFF" d="M8.957,2.552H6.075c-0.137,0-0.249,0.111-0.249,0.249c0,0.138,0.112,0.25,0.249,0.25h2.882
				c0.138,0,0.25-0.111,0.25-0.25C9.207,2.663,9.095,2.552,8.957,2.552z"/>
		</g>
	</g>
	<g>
		<g>
			<path fill="#FFFFFF" d="M9.533,5.021C9.126,4.615,8.59,4.386,8.021,4.376C7.417,4.364,6.85,4.593,6.424,5.02
				S5.769,6.013,5.78,6.617c0.011,0.569,0.24,1.105,0.646,1.512c0.405,0.405,0.943,0.635,1.512,0.645
				c0.013,0.001,0.028,0.001,0.042,0.001c0.587,0,1.139-0.229,1.555-0.644c0.426-0.427,0.656-0.994,0.644-1.597
				C10.167,5.964,9.938,5.428,9.533,5.021z M9.182,7.777c-0.33,0.33-0.769,0.506-1.235,0.499C7.043,8.258,6.294,7.511,6.279,6.607
				C6.27,6.14,6.446,5.702,6.776,5.372C7.098,5.05,7.524,4.874,7.979,4.874c0.011,0,0.021,0,0.032,0
				C8.915,4.891,9.662,5.639,9.68,6.542C9.689,7.009,9.511,7.447,9.182,7.777z"/>
		</g>
	</g>
	<g>
		<g>
			<path fill="#FFFFFF" d="M8.109,6.347V5.931c0.178,0.013,0.23,0.105,0.321,0.105c0.121,0,0.169-0.157,0.169-0.235
				c0-0.196-0.321-0.242-0.49-0.247V5.483c0-0.041-0.053-0.078-0.104-0.078C7.944,5.406,7.9,5.443,7.9,5.483v0.08
				C7.61,5.605,7.353,5.779,7.353,6.142c0,0.365,0.296,0.487,0.547,0.587V7.19C7.698,7.153,7.605,6.985,7.489,6.985
				c-0.103,0-0.185,0.143-0.185,0.24c0,0.182,0.269,0.358,0.596,0.37v0.072c0,0.04,0.044,0.077,0.105,0.077
				c0.051,0,0.104-0.037,0.104-0.077V7.583c0.321-0.054,0.54-0.268,0.54-0.622C8.649,6.577,8.358,6.443,8.109,6.347z M7.929,6.278
				c-0.105-0.046-0.176-0.097-0.176-0.18c0-0.068,0.053-0.134,0.176-0.159V6.278z M8.082,7.188V6.806
				C8.18,6.854,8.249,6.914,8.249,7.008C8.249,7.111,8.175,7.164,8.082,7.188z"/>
		</g>
	</g>
</g>
</svg>
