<?xml version="1.0" encoding="utf-8"?>
<!-- Generator: Adobe Illustrator 16.0.0, SVG Export Plug-In . SVG Version: 6.00 Build 0)  -->
<!DOCTYPE svg PUBLIC "-//W3C//DTD SVG 1.1//EN" "http://www.w3.org/Graphics/SVG/1.1/DTD/svg11.dtd" [
	<!ENTITY ns_extend "http://ns.adobe.com/Extensibility/1.0/">
	<!ENTITY ns_ai "http://ns.adobe.com/AdobeIllustrator/10.0/">
	<!ENTITY ns_graphs "http://ns.adobe.com/Graphs/1.0/">
	<!ENTITY ns_vars "http://ns.adobe.com/Variables/1.0/">
	<!ENTITY ns_imrep "http://ns.adobe.com/ImageReplacement/1.0/">
	<!ENTITY ns_sfw "http://ns.adobe.com/SaveForWeb/1.0/">
	<!ENTITY ns_custom "http://ns.adobe.com/GenericCustomNamespace/1.0/">
	<!ENTITY ns_adobe_xpath "http://ns.adobe.com/XPath/1.0/">
]>
<svg version="1.1" id="Capa_1" xmlns:x="&ns_extend;" xmlns:i="&ns_ai;" xmlns:graph="&ns_graphs;"
	 xmlns="http://www.w3.org/2000/svg" xmlns:xlink="http://www.w3.org/1999/xlink" x="0px" y="0px" width="20px" height="20px"
	 viewBox="0 0 20 20" enable-background="new 0 0 20 20" xml:space="preserve">
<metadata>
	<sfw  xmlns="&ns_sfw;">
		<slices></slices>
		<sliceSourceBounds  height="11.667" width="16.666" y="390.666" x="297.166" bottomLeftOrigin="true"></sliceSourceBounds>
	</sfw>
</metadata>
<path fill="#FF0000" d="M3.334,10c0-0.46,0.298-0.833,0.667-0.833h12c0.369,0,0.668,0.373,0.668,0.833
	c0,0.46-0.299,0.833-0.668,0.833H4C3.632,10.834,3.334,10.46,3.334,10z"/>
<path fill="#FF0000" d="M1.666,5c0-0.46,0.373-0.833,0.833-0.833h15c0.459,0,0.832,0.373,0.832,0.833
	c0,0.46-0.373,0.833-0.832,0.833h-15C2.039,5.833,1.666,5.46,1.666,5z"/>
<path fill="#FF0000" d="M5.834,15c0-0.46,0.187-0.833,0.417-0.833h7.5c0.23,0,0.418,0.373,0.418,0.833
	c0,0.461-0.188,0.834-0.418,0.834h-7.5C6.021,15.834,5.834,15.461,5.834,15z"/>
</svg>
