<?xml version="1.0" encoding="utf-8"?>
<!-- Generator: Adobe Illustrator 16.0.0, SVG Export Plug-In . SVG Version: 6.00 Build 0)  -->
<!DOCTYPE svg PUBLIC "-//W3C//DTD SVG 1.1//EN" "http://www.w3.org/Graphics/SVG/1.1/DTD/svg11.dtd" [
	<!ENTITY ns_extend "http://ns.adobe.com/Extensibility/1.0/">
	<!ENTITY ns_ai "http://ns.adobe.com/AdobeIllustrator/10.0/">
	<!ENTITY ns_graphs "http://ns.adobe.com/Graphs/1.0/">
	<!ENTITY ns_vars "http://ns.adobe.com/Variables/1.0/">
	<!ENTITY ns_imrep "http://ns.adobe.com/ImageReplacement/1.0/">
	<!ENTITY ns_sfw "http://ns.adobe.com/SaveForWeb/1.0/">
	<!ENTITY ns_custom "http://ns.adobe.com/GenericCustomNamespace/1.0/">
	<!ENTITY ns_adobe_xpath "http://ns.adobe.com/XPath/1.0/">
]>
<svg version="1.1" id="Capa_1" xmlns:x="&ns_extend;" xmlns:i="&ns_ai;" xmlns:graph="&ns_graphs;"
	 xmlns="http://www.w3.org/2000/svg" xmlns:xlink="http://www.w3.org/1999/xlink" x="0px" y="0px" width="20px" height="16px"
	 viewBox="0 0 20 16" enable-background="new 0 0 20 16" xml:space="preserve">
<metadata>
	<sfw  xmlns="&ns_sfw;">
		<slices></slices>
		<sliceSourceBounds  height="12.756" width="10.57" x="300.214" y="390.121" bottomLeftOrigin="true"></sliceSourceBounds>
	</sfw>
</metadata>
<g>
	<g>
		<path fill="#FFFFFF" d="M13.199,4.798c0,0.055-0.002,0.109-0.006,0.163c-0.002,0.055-0.006,0.107-0.01,0.162
			c-0.01,0.08-0.021,0.159-0.035,0.237c-0.014,0.086-0.035,0.169-0.058,0.251c-0.04,0.16-0.095,0.313-0.157,0.463
			c-0.011,0.021-0.022,0.042-0.031,0.062c-0.035,0.075-0.07,0.148-0.109,0.218c-0.014,0.021-0.025,0.041-0.038,0.063
			c-0.146,0.249-0.33,0.478-0.538,0.677c-0.021,0.021-0.04,0.038-0.063,0.056c-0.034,0.032-0.069,0.063-0.104,0.092
			c-0.026,0.022-0.048,0.04-0.073,0.059c-0.054,0.042-0.109,0.082-0.166,0.122c-0.006,0.004-0.016,0.011-0.023,0.018
			c-0.074,0.048-0.153,0.097-0.232,0.141c-0.07,0.04-0.145,0.075-0.219,0.11c-0.005,0-0.01,0.004-0.016,0.004
			c-0.146,0.066-0.299,0.123-0.459,0.167c-0.032,0.009-0.067,0.018-0.103,0.025c-0.159,0.036-0.323,0.063-0.49,0.077
			c-0.055,0.004-0.109,0.006-0.163,0.009c-0.027,0-0.056,0-0.083,0s-0.054,0-0.082,0C9.887,7.97,9.834,7.968,9.779,7.963
			C9.61,7.949,9.448,7.922,9.289,7.886C9.254,7.878,9.219,7.87,9.188,7.861c-0.16-0.044-0.314-0.101-0.46-0.167
			c-0.004,0-0.009-0.004-0.014-0.004C8.645,7.659,8.58,7.626,8.516,7.592c-0.088-0.047-0.171-0.1-0.255-0.153
			C8.252,7.433,8.245,7.426,8.237,7.421C8.181,7.382,8.125,7.342,8.072,7.3C8.046,7.281,8.024,7.263,7.999,7.241
			c-0.037-0.029-0.072-0.06-0.106-0.092c-0.04-0.035-0.076-0.07-0.114-0.107c-0.186-0.187-0.35-0.398-0.486-0.625
			C7.282,6.395,7.269,6.375,7.255,6.354c-0.04-0.07-0.075-0.144-0.11-0.218c-0.01-0.02-0.021-0.041-0.031-0.062
			c-0.063-0.15-0.118-0.303-0.16-0.463C6.934,5.529,6.913,5.446,6.899,5.36C6.885,5.281,6.873,5.202,6.864,5.123
			C6.86,5.068,6.855,5.015,6.853,4.96C6.851,4.907,6.85,4.853,6.85,4.798c0-0.055,0.01-0.11,0.014-0.165
			c0-0.031,0.013-0.066,0.013-0.097V4.534c0-0.02-0.004-0.042-0.003-0.062c0.003-0.02,0-0.04,0.003-0.06
			C6.885,4.352,6.89,4.293,6.9,4.234c0.016-0.086,0.034-0.169,0.056-0.252c0.041-0.159,0.096-0.313,0.16-0.461
			C7.121,3.51,7.125,3.5,7.131,3.49c0.005-0.011,0.01-0.022,0.014-0.033c0.035-0.073,0.07-0.146,0.11-0.217
			C7.268,3.22,7.281,3.198,7.292,3.178C7.44,2.928,7.625,2.7,7.831,2.5c0.022-0.019,0.041-0.038,0.062-0.056
			c0.035-0.032,0.07-0.063,0.106-0.092c0.025-0.02,0.047-0.04,0.073-0.058c0.053-0.043,0.109-0.083,0.165-0.121
			c0.008-0.005,0.015-0.011,0.024-0.017c0.143-0.095,0.294-0.179,0.452-0.25C8.718,1.903,8.723,1.902,8.727,1.9
			c0.146-0.067,0.3-0.121,0.46-0.165C9.219,1.726,9.254,1.717,9.288,1.71c0.159-0.039,0.322-0.065,0.49-0.077
			c0.056-0.004,0.108-0.006,0.163-0.008c0.028-0.002,0.056-0.002,0.082-0.002s0.055,0,0.083,0.002
			c0.054,0.001,0.108,0.003,0.163,0.008c0.167,0.012,0.331,0.039,0.49,0.077c0.034,0.007,0.069,0.016,0.103,0.025
			c0.16,0.044,0.313,0.098,0.459,0.165c0.006,0.002,0.011,0.003,0.016,0.006c0.157,0.072,0.309,0.155,0.451,0.25
			c0.009,0.006,0.018,0.011,0.023,0.017c0.057,0.039,0.112,0.078,0.166,0.121c0.025,0.019,0.047,0.038,0.073,0.058
			c0.035,0.029,0.07,0.06,0.104,0.092c0.021,0.018,0.041,0.037,0.062,0.056c0.208,0.199,0.394,0.428,0.539,0.678
			c0.013,0.021,0.024,0.042,0.038,0.063c0.039,0.072,0.074,0.145,0.109,0.217c0.009,0.022,0.021,0.042,0.031,0.064
			c0.063,0.149,0.117,0.303,0.157,0.461c0.021,0.083,0.044,0.167,0.058,0.252c0.014,0.079,0.025,0.158,0.035,0.237
			c0,0.024,0.004,0.05,0.004,0.075c0.004,0.028,0.004,0.059,0.006,0.086C13.197,4.688,13.199,4.743,13.199,4.798z"/>
		<path fill="#FFFFFF" d="M6.86,4.534L6.86,4.534C6.86,4.534,6.86,4.534,6.86,4.534L6.86,4.534C6.86,4.534,6.86,4.534,6.86,4.534z
			 M6.803,4.503C6.805,4.505,6.807,4.507,6.812,4.51C6.825,4.517,6.838,4.525,6.86,4.534C6.855,4.532,6.851,4.529,6.849,4.527
			C6.833,4.519,6.816,4.512,6.803,4.503z"/>
		<path fill="#FFFFFF" d="M6.803,4.503c0.013,0.008,0.031,0.015,0.046,0.024C6.838,4.521,6.825,4.514,6.812,4.51
			C6.807,4.507,6.805,4.505,6.803,4.503z"/>
		<rect x="6.861" y="4.533" fill="#FFFFFF" width="0" height="0.001"/>
	</g>
	<path fill="#FFFFFF" d="M15.271,11.01v3.29c0,0.065,0.004,0.079-0.063,0.079H4.838c-0.064,0-0.122-0.014-0.122-0.079v-3.29
		c0-0.053-0.003-0.104-0.001-0.154c0.039-0.785,0.352-1.494,0.841-2.026C5.572,8.811,5.585,8.795,5.599,8.78
		C5.845,8.525,6.13,8.314,6.447,8.156C6.464,8.147,6.482,8.139,6.504,8.13C6.589,8.087,6.68,8.051,6.77,8.02
		c0.02-0.008,0.042-0.015,0.061-0.022C6.913,7.972,6.996,7.949,7.08,7.927C7.183,8.028,7.291,8.121,7.4,8.209
		c0.286,0.223,0.597,0.408,0.927,0.555c0.062,0.027,0.126,0.055,0.189,0.078c0.242,0.092,0.492,0.164,0.747,0.211
		c0.246,0.047,0.501,0.07,0.757,0.07c0.293,0,0.583-0.025,0.865-0.088c0.035-0.01,0.07-0.021,0.105-0.021l0,0
		c0.053,0,0.105,0,0.158,0l0,0c0.136,0,0.271-0.105,0.403-0.158c0.054-0.021,0.105-0.07,0.158-0.092
		c0.259-0.115,0.502-0.269,0.731-0.439l0,0c0.024,0,0.051-0.025,0.076-0.044c0.149-0.11,0.295-0.225,0.432-0.357
		c1.301,0.302,2.268,1.495,2.333,2.927C15.289,10.902,15.271,10.957,15.271,11.01z"/>
</g>
</svg>
