<?xml version="1.0" encoding="utf-8"?>
<!-- Generator: Adobe Illustrator 16.0.0, SVG Export Plug-In . SVG Version: 6.00 Build 0)  -->
<!DOCTYPE svg PUBLIC "-//W3C//DTD SVG 1.1//EN" "http://www.w3.org/Graphics/SVG/1.1/DTD/svg11.dtd" [
	<!ENTITY ns_extend "http://ns.adobe.com/Extensibility/1.0/">
	<!ENTITY ns_ai "http://ns.adobe.com/AdobeIllustrator/10.0/">
	<!ENTITY ns_graphs "http://ns.adobe.com/Graphs/1.0/">
	<!ENTITY ns_vars "http://ns.adobe.com/Variables/1.0/">
	<!ENTITY ns_imrep "http://ns.adobe.com/ImageReplacement/1.0/">
	<!ENTITY ns_sfw "http://ns.adobe.com/SaveForWeb/1.0/">
	<!ENTITY ns_custom "http://ns.adobe.com/GenericCustomNamespace/1.0/">
	<!ENTITY ns_adobe_xpath "http://ns.adobe.com/XPath/1.0/">
]>
<svg version="1.1" id="Capa_1" xmlns:x="&ns_extend;" xmlns:i="&ns_ai;" xmlns:graph="&ns_graphs;"
	 xmlns="http://www.w3.org/2000/svg" xmlns:xlink="http://www.w3.org/1999/xlink" x="0px" y="0px" width="20px" height="16px"
	 viewBox="0 0 20 16" enable-background="new 0 0 20 16" xml:space="preserve">
<metadata>
	<sfw  xmlns="&ns_sfw;">
		<slices></slices>
		<sliceSourceBounds  height="14.035" width="16.653" x="296.8" y="389.891" bottomLeftOrigin="true"></sliceSourceBounds>
	</sfw>
</metadata>
<g id="XMLID_4918_">
	<path id="XMLID_4924_" fill="#FFFFFF" d="M16.424,14.609c0.826,0,1.5-0.67,1.502-1.496l0.027-8.293
		c0.002-0.827-0.67-1.503-1.496-1.505L2.833,3.271c-0.002,0-0.003,0-0.005,0c-0.825,0-1.498,0.669-1.501,1.495L1.3,13.059
		c-0.001,0.4,0.153,0.779,0.436,1.063c0.283,0.283,0.659,0.441,1.059,0.441l13.625,0.047C16.422,14.609,16.424,14.609,16.424,14.609
		z M3.359,13.941H2.832v-0.01H2.797c-0.232-0.002-0.45-0.094-0.613-0.258c-0.164-0.165-0.253-0.381-0.252-0.611l0.027-8.295
		C1.96,4.29,2.35,3.901,2.828,3.901c0.001,0,0.002,0,0.003,0l13.622,0.045c0.48,0.001,0.869,0.393,0.869,0.871l-0.029,8.292
		c-0.002,0.478-0.391,0.867-0.869,0.867l0,0L3.359,13.936V13.941z"/>
	<path id="XMLID_4921_" fill="#FFFFFF" d="M15.652,4.583h-3.158c-0.088,0-0.158,0.072-0.158,0.159v4.197
		c0,0.086,0.07,0.155,0.158,0.155h3.158c0.088,0,0.158-0.069,0.158-0.155V4.742C15.811,4.655,15.74,4.583,15.652,4.583z
		 M15.494,8.781H12.65V4.899h2.844V8.781z"/>
	<path id="XMLID_4920_" fill="#FFFFFF" d="M3.887,10.287h4.896c0.175,0,0.316-0.139,0.316-0.313c0-0.175-0.142-0.318-0.316-0.318
		H3.887c-0.175,0-0.316,0.145-0.316,0.318S3.712,10.287,3.887,10.287z"/>
	<path id="XMLID_4919_" fill="#FFFFFF" d="M11.072,11.475H3.887c-0.175,0-0.316,0.141-0.316,0.313c0,0.175,0.141,0.317,0.316,0.317
		h7.186c0.174,0,0.315-0.144,0.315-0.317S11.246,11.475,11.072,11.475z"/>
</g>
<g>
	<circle fill="#FF0000" cx="9.532" cy="3.419" r="2.75"/>
	<path fill="#FFFFFF" d="M7.732,5.625c-0.07-0.06-0.138-0.123-0.204-0.188c-0.54-0.533-0.836-1.248-0.841-2.005
		C6.68,1.863,7.951,0.583,9.518,0.574c1.571-0.004,2.852,1.266,2.857,2.831c0.002,0.76-0.287,1.478-0.822,2.018
		c-0.537,0.54-1.249,0.835-2.01,0.84C8.876,6.266,8.244,6.042,7.732,5.625z M11.275,1.285c-0.479-0.391-1.089-0.627-1.752-0.623
		c-0.739,0.005-1.43,0.294-1.949,0.815C7.055,2,6.771,2.694,6.775,3.432C6.777,4.167,7.068,4.859,7.59,5.377
		c0.521,0.518,1.215,0.802,1.952,0.8c0.737-0.002,1.429-0.292,1.946-0.812c0.519-0.526,0.804-1.218,0.802-1.955l0,0
		C12.288,2.555,11.891,1.788,11.275,1.285z"/>
	<circle fill="#FFFFFF" cx="9.532" cy="3.419" r="2.45"/>
	<path id="XMLID_1_" fill="#FC0000" d="M9.833,1.752H9.229c-0.125,0-0.227,0.102-0.227,0.228v0.91h-0.91
		c-0.126,0-0.228,0.102-0.228,0.227V3.72c0,0.126,0.101,0.229,0.228,0.229h0.91v0.909c0,0.126,0.102,0.228,0.227,0.228h0.604
		c0.125,0,0.227-0.101,0.227-0.228V3.949h0.907c0.127,0,0.229-0.103,0.229-0.229V3.117c0-0.125-0.103-0.227-0.229-0.227H10.06V1.98
		C10.061,1.854,9.958,1.752,9.833,1.752z"/>
</g>
</svg>
