<?xml version="1.0" encoding="utf-8"?>
<!-- Generator: Adobe Illustrator 16.0.0, SVG Export Plug-In . SVG Version: 6.00 Build 0)  -->
<!DOCTYPE svg PUBLIC "-//W3C//DTD SVG 1.1//EN" "http://www.w3.org/Graphics/SVG/1.1/DTD/svg11.dtd" [
	<!ENTITY ns_extend "http://ns.adobe.com/Extensibility/1.0/">
	<!ENTITY ns_ai "http://ns.adobe.com/AdobeIllustrator/10.0/">
	<!ENTITY ns_graphs "http://ns.adobe.com/Graphs/1.0/">
	<!ENTITY ns_vars "http://ns.adobe.com/Variables/1.0/">
	<!ENTITY ns_imrep "http://ns.adobe.com/ImageReplacement/1.0/">
	<!ENTITY ns_sfw "http://ns.adobe.com/SaveForWeb/1.0/">
	<!ENTITY ns_custom "http://ns.adobe.com/GenericCustomNamespace/1.0/">
	<!ENTITY ns_adobe_xpath "http://ns.adobe.com/XPath/1.0/">
]>
<svg version="1.1" id="Capa_1" xmlns:x="&ns_extend;" xmlns:i="&ns_ai;" xmlns:graph="&ns_graphs;"
	 xmlns="http://www.w3.org/2000/svg" xmlns:xlink="http://www.w3.org/1999/xlink" x="0px" y="0px" width="18px" height="24px"
	 viewBox="0 0 18 24" enable-background="new 0 0 18 24" xml:space="preserve">
<metadata>
	<sfw  xmlns="&ns_sfw;">
		<slices></slices>
		<sliceSourceBounds  height="21.394" width="15.728" x="297.626" y="386.598" bottomLeftOrigin="true"></sliceSourceBounds>
	</sfw>
</metadata>
<g>
	<g>
		<path fill="#FFFFFF" d="M11.443,4.375c0,0.067-0.002,0.133-0.004,0.199c-0.004,0.066-0.008,0.131-0.017,0.196
			c-0.011,0.097-0.022,0.194-0.041,0.289c-0.021,0.104-0.041,0.207-0.065,0.307c-0.053,0.195-0.116,0.382-0.198,0.563
			c-0.011,0.025-0.021,0.05-0.034,0.078c-0.041,0.089-0.088,0.177-0.139,0.263c-0.012,0.026-0.024,0.051-0.043,0.078
			c-0.182,0.304-0.4,0.582-0.654,0.825c-0.025,0.023-0.051,0.046-0.074,0.069c-0.042,0.039-0.085,0.076-0.129,0.112
			c-0.029,0.024-0.059,0.047-0.089,0.071C9.891,7.476,9.822,7.524,9.755,7.572c-0.011,0.006-0.022,0.014-0.032,0.02
			C9.632,7.654,9.541,7.71,9.443,7.764C9.355,7.813,9.268,7.856,9.176,7.898C9.17,7.9,9.164,7.903,9.159,7.906
			c-0.183,0.08-0.369,0.148-0.563,0.2c-0.037,0.012-0.08,0.022-0.121,0.031C8.279,8.183,8.08,8.215,7.877,8.23
			C7.811,8.235,7.744,8.238,7.678,8.24c-0.033,0-0.064,0-0.099,0c-0.036,0-0.069,0-0.101,0C7.412,8.238,7.346,8.235,7.279,8.23
			C7.076,8.213,6.877,8.182,6.684,8.136C6.641,8.127,6.6,8.116,6.561,8.105C6.366,8.052,6.18,7.984,5.997,7.904
			C5.992,7.902,5.986,7.899,5.98,7.897C5.9,7.859,5.82,7.82,5.743,7.778C5.636,7.72,5.535,7.658,5.434,7.591
			c-0.012-0.005-0.021-0.013-0.03-0.02C5.335,7.523,5.267,7.474,5.202,7.424C5.172,7.4,5.143,7.377,5.116,7.353
			C5.068,7.316,5.026,7.279,4.983,7.24C4.938,7.197,4.891,7.152,4.847,7.108c-0.23-0.227-0.43-0.483-0.595-0.761
			C4.237,6.32,4.225,6.296,4.207,6.269C4.16,6.183,4.115,6.095,4.073,6.006C4.062,5.979,4.049,5.955,4.037,5.928
			c-0.079-0.18-0.146-0.367-0.196-0.562C3.815,5.265,3.792,5.162,3.773,5.059c-0.017-0.094-0.031-0.191-0.041-0.29
			c-0.007-0.066-0.013-0.13-0.014-0.196C3.714,4.507,3.714,4.439,3.714,4.374s-0.029-0.133-0.026-0.2
			c0.004-0.041-0.022-0.08-0.022-0.12l0,0c0-0.024,0.036-0.051,0.038-0.075S3.726,3.93,3.726,3.906
			c0.01-0.072,0.025-0.144,0.041-0.216c0.018-0.104,0.044-0.206,0.07-0.307c0.05-0.194,0.118-0.382,0.2-0.562
			c0.005-0.013,0.01-0.026,0.016-0.04c0.008-0.013,0.015-0.027,0.02-0.04c0.041-0.09,0.087-0.178,0.135-0.264
			c0.015-0.023,0.028-0.05,0.042-0.075C4.433,2.097,4.653,1.82,4.911,1.577c0.022-0.023,0.048-0.046,0.072-0.07
			c0.04-0.037,0.085-0.075,0.131-0.112c0.028-0.024,0.058-0.048,0.087-0.071c0.066-0.049,0.134-0.099,0.203-0.146
			c0.01-0.007,0.018-0.015,0.028-0.021C5.607,1.042,5.791,0.939,5.98,0.853C5.986,0.85,5.992,0.847,5.999,0.845
			C6.18,0.764,6.366,0.697,6.561,0.644c0.041-0.011,0.082-0.022,0.123-0.031C6.877,0.567,7.077,0.534,7.279,0.52
			C7.348,0.516,7.414,0.511,7.48,0.51c0.031,0,0.065-0.001,0.102-0.001c0.031,0,0.064,0.001,0.1,0.001
			c0.066,0.001,0.135,0.005,0.197,0.01c0.205,0.015,0.404,0.046,0.6,0.093c0.039,0.009,0.082,0.021,0.123,0.031
			c0.192,0.052,0.381,0.119,0.562,0.201C9.17,0.847,9.176,0.85,9.18,0.853C9.373,0.94,9.557,1.041,9.729,1.157
			C9.741,1.164,9.75,1.17,9.762,1.178c0.066,0.046,0.133,0.096,0.199,0.147c0.029,0.023,0.061,0.046,0.09,0.071
			c0.043,0.037,0.086,0.075,0.129,0.113c0.022,0.023,0.049,0.045,0.07,0.068c0.256,0.243,0.477,0.521,0.659,0.826
			c0.018,0.025,0.03,0.05,0.043,0.077C11,2.567,11.047,2.655,11.09,2.745c0.014,0.025,0.023,0.051,0.034,0.078
			c0.08,0.181,0.146,0.368,0.196,0.562c0.027,0.101,0.051,0.203,0.068,0.307c0.016,0.096,0.029,0.191,0.043,0.29
			c0,0.03,0.004,0.061,0.006,0.091c0.004,0.035,0.004,0.07,0.006,0.104C11.441,4.242,11.443,4.308,11.443,4.375z"/>
		<path fill="#FFFFFF" d="M3.725,4.054c0,0,0.001,0.001,0.002,0.001l0,0l0,0C3.726,4.054,3.725,4.054,3.725,4.054z M3.656,4.016
			c0.004,0.002,0.006,0.005,0.01,0.006c0.017,0.009,0.032,0.02,0.06,0.03C3.719,4.05,3.716,4.048,3.712,4.046
			C3.695,4.035,3.673,4.027,3.656,4.016z"/>
		<path fill="#FFFFFF" d="M3.656,4.016c0.019,0.011,0.04,0.019,0.059,0.028C3.698,4.037,3.682,4.03,3.665,4.023
			C3.661,4.022,3.659,4.02,3.656,4.016z"/>
		<path fill="#FFFFFF" d="M3.727,4.055L3.727,4.055L3.727,4.055z"/>
	</g>
	<path fill="#FFFFFF" d="M13.993,11.94v4.003c0,0.082-0.022,0.156-0.099,0.156H1.265c-0.08,0-0.126-0.074-0.126-0.156V11.94
		c0-0.065-0.014-0.128-0.013-0.191c0.047-0.954,0.421-1.818,1.021-2.467c0.017-0.019,0.031-0.039,0.048-0.057
		C2.493,8.914,2.84,8.656,3.223,8.466c0.024-0.012,0.046-0.023,0.069-0.035C3.4,8.383,3.506,8.337,3.619,8.298
		C3.642,8.289,3.668,8.28,3.693,8.273C3.79,8.24,3.891,8.21,3.993,8.188c0.125,0.119,0.257,0.234,0.393,0.34
		c0.348,0.274,0.725,0.5,1.127,0.677C5.586,9.24,5.666,9.271,5.742,9.3C6.039,9.415,6.34,9.501,6.65,9.558
		c0.303,0.055,0.613,0.084,0.924,0.084c0.357,0,0.709-0.059,1.053-0.132C8.67,9.501,8.713,9.459,8.756,9.459l0,0
		c0.064,0,0.129,0,0.191,0l0,0c0.166,0,0.33-0.106,0.496-0.17c0.063-0.026,0.129-0.043,0.189-0.072
		c0.313-0.139,0.609-0.285,0.892-0.495l0,0c0.031,0,0.063-0.057,0.092-0.081c0.185-0.135,0.359-0.291,0.527-0.45
		c1.584,0.369,2.771,1.814,2.854,3.559C14,11.815,13.993,11.876,13.993,11.94z"/>
</g>
<g>
	<circle fill="#FF0000" cx="12.6" cy="17.65" r="4.111"/>
	<path fill="#FFFFFF" d="M15.291,14.354c0.104,0.088,0.206,0.183,0.305,0.28c0.807,0.798,1.25,1.866,1.258,2.997
		c0.013,2.346-1.889,4.256-4.229,4.271c-2.348,0.006-4.263-1.895-4.269-4.231c-0.006-1.138,0.428-2.209,1.228-3.017
		c0.803-0.809,1.866-1.25,3.003-1.256C13.582,13.395,14.527,13.73,15.291,14.354z M9.996,20.838
		c0.715,0.585,1.629,0.938,2.619,0.932c1.105-0.006,2.137-0.438,2.912-1.22c0.774-0.78,1.199-1.817,1.195-2.919
		c-0.006-1.1-0.438-2.133-1.221-2.908c-0.779-0.772-1.814-1.197-2.918-1.195c-1.104,0.007-2.133,0.438-2.909,1.216
		c-0.773,0.787-1.197,1.819-1.195,2.92l0,0C8.484,18.939,9.079,20.087,9.996,20.838z"/>
	<circle fill="#FFFFFF" cx="12.6" cy="17.65" r="3.662"/>
	<path fill="#FF0000" stroke="#FF0000" stroke-width="1.125" stroke-miterlimit="10" d="M15.018,17.563h-3.916"/>
	<path fill="#FF0000" d="M12.357,20.22c0.231,0.233,0.608,0.233,0.844,0c0.232-0.233,0.232-0.61,0-0.844L12.357,20.22z
		 M10.541,17.563l-0.422-0.422c-0.232,0.232-0.232,0.61,0,0.844L10.541,17.563z M13.201,15.744c0.232-0.232,0.232-0.61,0-0.844
		c-0.233-0.233-0.61-0.233-0.844,0L13.201,15.744z M13.201,19.378l-2.237-2.237l-0.845,0.844l2.238,2.238L13.201,19.378z
		 M10.963,17.982l2.237-2.238l-0.845-0.842l-2.237,2.236L10.963,17.982z"/>
</g>
</svg>
