<?xml version="1.0" encoding="utf-8"?>
<!-- Generator: Adobe Illustrator 16.0.0, SVG Export Plug-In . SVG Version: 6.00 Build 0)  -->
<!DOCTYPE svg PUBLIC "-//W3C//DTD SVG 1.1//EN" "http://www.w3.org/Graphics/SVG/1.1/DTD/svg11.dtd" [
	<!ENTITY ns_extend "http://ns.adobe.com/Extensibility/1.0/">
	<!ENTITY ns_ai "http://ns.adobe.com/AdobeIllustrator/10.0/">
	<!ENTITY ns_graphs "http://ns.adobe.com/Graphs/1.0/">
	<!ENTITY ns_vars "http://ns.adobe.com/Variables/1.0/">
	<!ENTITY ns_imrep "http://ns.adobe.com/ImageReplacement/1.0/">
	<!ENTITY ns_sfw "http://ns.adobe.com/SaveForWeb/1.0/">
	<!ENTITY ns_custom "http://ns.adobe.com/GenericCustomNamespace/1.0/">
	<!ENTITY ns_adobe_xpath "http://ns.adobe.com/XPath/1.0/">
]>
<svg version="1.1" id="Capa_1" xmlns:x="&ns_extend;" xmlns:i="&ns_ai;" xmlns:graph="&ns_graphs;"
	 xmlns="http://www.w3.org/2000/svg" xmlns:xlink="http://www.w3.org/1999/xlink" x="0px" y="0px" width="20px" height="16px"
	 viewBox="0 0 20 16" enable-background="new 0 0 20 16" xml:space="preserve">
<metadata>
	<sfw  xmlns="&ns_sfw;">
		<slices></slices>
		<sliceSourceBounds  height="13.508" width="15.759" x="297.633" y="389.743" bottomLeftOrigin="true"></sliceSourceBounds>
	</sfw>
</metadata>
<g>
	<path fill="#FFFAFA" d="M12.982,3.585c-0.119-0.156-0.229-0.307-0.356-0.457c-0.983-1.107-2.328-1.772-3.812-1.867l0,0
		c-1.473-0.096-2.901,0.391-4.01,1.368C4.678,2.748,4.556,2.863,4.437,2.993L3.491,1.918L2.666,5.753l3.896-0.339L5.348,4.03
		c0.114-0.129,0.233-0.25,0.368-0.368c0.834-0.73,1.905-1.098,3.008-1.026c1.111,0.07,2.131,0.566,2.861,1.406
		c0.006,0.004,0.011,0.018,0.022,0.019"/>
	<g>
		<path fill="#FF0000" d="M14.615,1.78l3.13,5.199c0.015,0.023,0.019,0.03,0.022,0.047c0.141,0.287,0.045,0.644-0.235,0.814
			L6.21,14.65c-0.282,0.172-0.644,0.092-0.827-0.172c-0.011-0.017-0.019-0.026-0.022-0.039L2.224,9.232
			C2.218,9.223,2.215,9.22,2.208,9.212c-0.156-0.29-0.06-0.662,0.228-0.837l11.33-6.802c0.285-0.174,0.658-0.091,0.846,0.187
			C14.609,1.762,14.607,1.77,14.615,1.78z"/>
		<path fill="#FFFAFA" d="M14.604,1.762c-0.181-0.281-0.554-0.365-0.84-0.19l-1.742,1.041L4.171,7.335l-1.733,1.04
			c-0.29,0.173-0.387,0.548-0.229,0.837c0.008,0.011,0.01,0.015,0.014,0.022l0.861,1.426l1.411,2.354l0,0l0.865,1.428
			c0.002,0.006,0.004,0.01,0.005,0.014l0,0c0.006,0.011,0.014,0.023,0.018,0.025c0,0,0,0,0.003,0.002c-0.002,0.002,0,0.002,0,0.004
			c0.006,0.011,0.009,0.015,0.018,0.023c0,0.001,0.002,0.004,0.007,0.004c0.005,0.01,0.013,0.01,0.018,0.018
			c0.003,0.005,0.005,0.005,0.005,0.007c0.002,0.003,0.007,0.011,0.013,0.017c0.001,0,0.006,0.012,0.008,0.01
			c0.001,0.004,0.006,0.009,0.012,0.014c0.003,0.005,0.004,0.007,0.007,0.007c0.006,0.011,0.008,0.013,0.018,0.011
			c0.001,0.002,0.008,0.012,0.013,0.012c0,0.002,0.005,0.011,0.01,0.016c0.002,0.001,0.004,0.001,0.007,0.005
			c0.007-0.004,0.015,0.005,0.018,0.005c0.001,0.006,0.007,0.014,0.01,0.016c0.004,0.002,0.005,0.002,0.01,0.002
			c0.005,0.011,0.015,0.008,0.017,0.009c0.005,0.005,0.009,0.01,0.011,0.013c0.003,0,0.013,0,0.015-0.003
			c0.008,0.013,0.01,0.011,0.013,0.013c0.007,0.01,0.012,0.012,0.014,0.012c0.009-0.002,0.01-0.002,0.018,0.009
			c0.003,0.001,0.004,0.002,0.007,0.002c0.016,0.004,0.016,0.004,0.02,0.006c0.003,0.001,0.005,0.003,0.013,0.008
			c0.001,0.003,0.013,0,0.015,0.003c0.006,0.006,0.007,0.006,0.013,0.008c0.009-0.002,0.01,0,0.013,0
			c0.01,0.006,0.012,0.008,0.015,0.01c0,0,0.012,0.001,0.016,0.002c0.005,0.004,0.006,0.005,0.016,0
			c0.004,0.003,0.005,0,0.011,0.006c0.004,0.003,0.007,0.004,0.019-0.001c0.004,0.006,0.004,0.006,0.009,0.009
			c0.013-0.005,0.015-0.004,0.018-0.004c0.002-0.001,0.006,0,0.012,0.007c-0.006-0.007,0.005-0.014,0.01-0.006
			c0.003,0.003,0.005,0,0.008,0.002c0.01-0.006,0.019,0,0.021,0.002c0.002,0,0.008-0.002,0.015-0.004
			c0.004,0.002,0.007,0,0.01,0.003c0.009-0.007,0.016-0.001,0.02-0.003c0.006,0.002,0.006,0.002,0.018-0.001
			c0.001-0.001,0.005-0.001,0.019,0.001c0.004-0.001,0.005-0.001,0.01-0.001c0-0.001,0.01-0.005,0.014-0.005
			c0.004-0.001,0.016-0.006,0.016-0.006c0.003-0.001,0.009,0.004,0.013,0.003c0.011-0.004,0.014-0.002,0.016-0.002
			c0.011-0.006,0.013-0.006,0.016-0.006c0.008,0.005,0.008,0.005,0.018,0c0.004,0,0.008-0.002,0.017-0.008
			c0.003-0.002,0.007,0,0.009-0.004c0.003,0,0.011-0.007,0.017-0.007c0.01-0.003,0.011-0.005,0.015-0.005
			c0.001-0.003,0.004-0.005,0.016-0.007c0-0.003,0.012-0.011,0.016-0.003c0.004-0.003,0.007-0.006,0.019-0.01
			c0.001,0.002,0.003-0.002,0.005-0.002c0.009-0.006,0.016-0.008,0.019-0.008c0-0.002,0.011-0.008,0.013-0.01
			c0.011-0.008,0.014-0.011,0.021-0.014l0,0l0,0l1.741-1.04l7.843-4.731l1.744-1.041c0.013-0.009,0.02-0.011,0.022-0.016
			c0.006-0.004,0.009-0.004,0.011-0.006c0.012-0.008,0.018-0.01,0.019-0.014c0.002-0.001,0.011-0.006,0.013-0.009
			c0.002-0.002,0.014-0.008,0.016-0.011c0.002-0.002,0.002-0.002,0.01-0.016c0.003-0.002,0.006-0.005,0.015-0.01
			c0.002,0.002,0.004-0.005,0.006-0.007c0.009-0.007,0.011-0.009,0.017-0.01c0.009-0.006,0.012-0.01,0.012-0.01
			c0-0.004,0-0.012,0.009-0.02c0.002-0.002,0.004-0.005,0.013-0.009C17.727,7.704,17.73,7.7,17.732,7.7
			c0-0.002,0.011-0.007,0.012-0.012c0.01-0.008,0.012-0.008,0.011-0.013c0.003-0.003,0.002-0.011,0.002-0.014
			c0.011-0.005,0.013-0.007,0.021-0.013c0.002-0.006,0-0.014,0.002-0.015c0.002-0.002,0.01-0.009,0.01-0.012
			c0.003-0.002,0.007-0.006,0.012-0.013c0.004-0.002,0.001-0.013,0.002-0.014c0.002-0.002,0.008-0.01,0.01-0.013
			c0-0.004,0.01-0.01,0.01-0.018c0-0.004,0.002-0.006,0.005-0.012c-0.003,0,0.006-0.006,0.009-0.011
			c0.005-0.013,0.005-0.016,0.007-0.02c0,0,0.001-0.006-0.002-0.013c0.011-0.006,0.011-0.01,0.011-0.013
			c0.002-0.002,0.002-0.005,0.008-0.012c-0.002-0.009,0-0.013,0-0.017c0-0.002,0.007-0.011,0.004-0.017c0-0.004,0-0.006,0.012-0.014
			c0-0.005,0-0.005-0.004-0.016c0-0.004,0.004-0.006,0.002-0.01c0.003-0.013,0.007-0.017,0.006-0.021
			c0.001-0.002,0.006-0.011,0.005-0.012c-0.001-0.009,0-0.014-0.001-0.019c-0.002-0.008-0.002-0.01,0.004-0.017
			c0.004-0.003,0.004-0.007,0.004-0.01c0,0,0.002-0.016,0.002-0.018c-0.002-0.006-0.002-0.013-0.006-0.016
			c0.002-0.004,0.004-0.005,0.004-0.011c-0.008-0.008,0-0.015,0-0.022c-0.031-0.006-0.031-0.008-0.031-0.013
			c0-0.002,0.004-0.009,0.008-0.014c-0.014,0-0.016-0.002-0.014-0.002c-0.006-0.011-0.008-0.014-0.006-0.019
			c0.008-0.006,0.006-0.011,0.002-0.02c-0.002-0.001,0-0.005-0.006-0.015c-0.002-0.002-0.002-0.006,0.008-0.012
			c-0.006-0.006-0.008-0.015-0.008-0.017c-0.005-0.012-0.007-0.013-0.007-0.017c0-0.002-0.002-0.007-0.006-0.017
			c0-0.002-0.002-0.004-0.002-0.009c-0.004-0.009,0-0.018-0.002-0.022c0-0.002-0.005-0.01-0.005-0.012
			c-0.008-0.012-0.006-0.015-0.01-0.018c0-0.004-0.002-0.004-0.006-0.011c-0.002-0.007-0.002-0.023-0.004-0.025
			c-0.008,0.006,0,0-0.003-0.003C17.795,7.007,17.795,7,17.788,6.993c0,0,0-0.001-0.002-0.003l0,0c0-0.005-0.009-0.021-0.015-0.031
			l0,0c-0.002-0.002-0.006-0.004-0.008-0.015l0,0l-0.865-1.426l-1.405-2.352l-0.862-1.422C14.607,1.77,14.609,1.762,14.604,1.762z
			 M16.41,6.016c-0.17,0.206-0.313,0.426-0.434,0.68c-0.248,0.52-0.353,1.065-0.312,1.561l-8.208,4.94
			c-0.421-0.268-0.951-0.432-1.526-0.454c-0.327-0.017-0.656,0.015-0.952,0.098l-1.517-2.522c0.202-0.229,0.387-0.493,0.529-0.795
			C4.243,9,4.343,8.456,4.302,7.957l8.216-4.941c0.414,0.271,0.947,0.442,1.522,0.463c0.274,0.014,0.549-0.007,0.8-0.063
			L16.41,6.016z"/>
		<path fill="#FFFAFA" d="M10.405,9.418c-0.296,0.159-0.621,0.257-0.95,0.305L9.059,9.064c0.21-0.006,0.41-0.041,0.615-0.102
			c0.209-0.055,0.385-0.122,0.524-0.205c0.111-0.066,0.184-0.133,0.216-0.191c0.036-0.051,0.037-0.114-0.003-0.176
			c-0.024-0.047-0.064-0.068-0.126-0.075c-0.052-0.01-0.136-0.005-0.244,0.009C9.928,8.335,9.784,8.36,9.605,8.398
			c-0.207,0.04-0.383,0.046-0.532,0.04C8.923,8.417,8.8,8.378,8.692,8.313C8.596,8.244,8.494,8.137,8.408,7.996
			C8.28,7.782,8.244,7.57,8.313,7.369C8.38,7.159,8.54,6.957,8.802,6.766L8.536,6.323l0.409-0.247l0.26,0.431
			c0.27-0.141,0.574-0.238,0.908-0.276l0.098,0.696C9.866,6.971,9.582,7.059,9.362,7.191C9.261,7.255,9.194,7.313,9.161,7.362
			c-0.02,0.052-0.023,0.102,0.008,0.151C9.194,7.561,9.23,7.584,9.281,7.594c0.047,0.01,0.118,0.009,0.216-0.002
			c0.099-0.013,0.232-0.037,0.39-0.074c0.331-0.065,0.597-0.068,0.794-0.02c0.189,0.049,0.346,0.173,0.467,0.372
			c0.134,0.225,0.162,0.44,0.113,0.662c-0.058,0.226-0.212,0.432-0.455,0.623l0.313,0.532L10.715,9.93L10.405,9.418z"/>
	</g>
</g>
</svg>
