<?xml version="1.0" encoding="utf-8"?>
<!-- Generator: Adobe Illustrator 16.0.0, SVG Export Plug-In . SVG Version: 6.00 Build 0)  -->
<!DOCTYPE svg PUBLIC "-//W3C//DTD SVG 1.1//EN" "http://www.w3.org/Graphics/SVG/1.1/DTD/svg11.dtd" [
	<!ENTITY ns_extend "http://ns.adobe.com/Extensibility/1.0/">
	<!ENTITY ns_ai "http://ns.adobe.com/AdobeIllustrator/10.0/">
	<!ENTITY ns_graphs "http://ns.adobe.com/Graphs/1.0/">
	<!ENTITY ns_vars "http://ns.adobe.com/Variables/1.0/">
	<!ENTITY ns_imrep "http://ns.adobe.com/ImageReplacement/1.0/">
	<!ENTITY ns_sfw "http://ns.adobe.com/SaveForWeb/1.0/">
	<!ENTITY ns_custom "http://ns.adobe.com/GenericCustomNamespace/1.0/">
	<!ENTITY ns_adobe_xpath "http://ns.adobe.com/XPath/1.0/">
]>
<svg version="1.1" id="Capa_1" xmlns:x="&ns_extend;" xmlns:i="&ns_ai;" xmlns:graph="&ns_graphs;"
	 xmlns="http://www.w3.org/2000/svg" xmlns:xlink="http://www.w3.org/1999/xlink" x="0px" y="0px" width="20px" height="16px"
	 viewBox="0 0 20 16" enable-background="new 0 0 20 16" xml:space="preserve">
<metadata>
	<sfw  xmlns="&ns_sfw;">
		<slices></slices>
		<sliceSourceBounds  height="13.606" width="13.77" x="298.615" y="389.697" bottomLeftOrigin="true"></sliceSourceBounds>
	</sfw>
</metadata>
<g>
	<path fill="#FFFFFF" d="M16.211,11.846c-0.092-0.063-0.217-0.039-0.28,0.053l-0.463,0.679c-0.15,0.22-0.234,0.476-0.244,0.741
		l-0.048,1.274c-0.004,0.114,0.087,0.21,0.202,0.21c0.107,0,0.197-0.086,0.201-0.194l0.048-1.274
		c0.007-0.189,0.067-0.373,0.174-0.529l0.463-0.679C16.327,12.033,16.303,11.908,16.211,11.846L16.211,11.846z"/>
	<path fill="#FFFFFF" d="M16.603,9.718l-1.216-1.886V4.326c0-0.45-0.366-0.816-0.816-0.816h-1.744V1.584
		c0-0.214-0.175-0.388-0.389-0.388H9.642c-0.111,0-0.201,0.09-0.201,0.201S9.531,1.6,9.642,1.6h2.781v5.57H8.077V1.6h0.76
		c0.111,0,0.201-0.091,0.201-0.202s-0.09-0.201-0.201-0.201H8.061c-0.214,0-0.388,0.174-0.388,0.388v1.925H5.429
		c-0.45,0-0.816,0.366-0.816,0.816v1.549c0,0.111,0.091,0.202,0.202,0.202s0.201-0.091,0.201-0.202V4.326
		c0-0.228,0.186-0.413,0.413-0.413h2.244v0.444H5.926c-0.13,0-0.235,0.106-0.235,0.237v5.293l-0.64,0.694
		c-0.022-0.051-0.035-0.106-0.035-0.163V6.681c0-0.111-0.09-0.202-0.201-0.202S4.613,6.57,4.613,6.681v1.15L3.397,9.718
		c-0.385,0.598-0.375,1.362,0.025,1.949l0.776,1.138c0.107,0.156,0.167,0.34,0.175,0.529l0.047,1.274
		c0.004,0.108,0.095,0.197,0.209,0.194c0.111-0.005,0.198-0.099,0.194-0.21l-0.048-1.274c-0.01-0.265-0.094-0.521-0.244-0.741
		l-0.776-1.138c-0.309-0.453-0.316-1.042-0.02-1.503l0.877-1.361v1.844c0,0.171,0.055,0.336,0.152,0.474l-0.109,0.118
		c-0.075,0.082-0.07,0.209,0.012,0.285c0.082,0.075,0.21,0.07,0.285-0.012l1.882-2.04c0.08-0.088,0.222-0.099,0.313-0.009
		c0.07,0.069,0.087,0.177,0.039,0.263l-1.131,2.044c-0.084,0.15-0.067,0.333,0.042,0.466c0.221,0.268,0.286,0.637,0.172,0.963
		C6.214,13.132,6.183,13.3,6.179,13.47l-0.021,0.935c-0.003,0.113,0.088,0.207,0.202,0.207c0.108,0,0.198-0.088,0.201-0.197
		l0.021-0.935c0.003-0.128,0.026-0.255,0.068-0.376c0.16-0.458,0.068-0.977-0.241-1.352c-0.003-0.004-0.004-0.01-0.001-0.015
		l0.278-0.503h6.626l0.277,0.503c0.003,0.005,0.003,0.011-0.001,0.015c-0.309,0.375-0.401,0.894-0.241,1.352
		c0.043,0.121,0.065,0.248,0.068,0.376l0.021,0.935c0.003,0.108,0.092,0.199,0.207,0.197c0.111-0.003,0.199-0.095,0.196-0.207
		L13.82,13.47c-0.004-0.17-0.034-0.338-0.091-0.499c-0.114-0.326-0.048-0.695,0.172-0.963c0.109-0.133,0.126-0.315,0.043-0.466
		l-1.131-2.044c-0.048-0.086-0.032-0.193,0.038-0.263c0.088-0.085,0.229-0.083,0.314,0.009l1.881,2.04
		c0.076,0.082,0.203,0.087,0.285,0.012c0.082-0.076,0.087-0.203,0.012-0.285l-0.108-0.118c0.098-0.138,0.151-0.301,0.151-0.474
		V8.575l0.877,1.361c0.256,0.396,0.289,0.887,0.089,1.313c-0.047,0.101-0.004,0.221,0.097,0.268
		c0.101,0.048,0.221,0.005,0.269-0.097C16.977,10.868,16.934,10.231,16.603,9.718L16.603,9.718z M6.91,10.831l0.246-0.444h5.688
		l0.246,0.444H6.91z M12.569,8.947c-0.199,0.195-0.244,0.502-0.109,0.746l0.16,0.29H7.379l0.16-0.29
		c0.136-0.244,0.09-0.551-0.109-0.746C7.176,8.699,6.773,8.715,6.538,8.971L6.094,9.45V4.76h1.579v2.41H7.444
		c-0.112,0-0.202,0.091-0.202,0.202s0.09,0.201,0.202,0.201h0.431h4.75h0.432c0.111,0,0.201-0.09,0.201-0.201
		s-0.09-0.202-0.201-0.202h-0.229V4.76h1.31V9.7l-0.674-0.729C13.229,8.717,12.825,8.697,12.569,8.947z M14.539,10.138V4.594
		c0-0.131-0.105-0.237-0.235-0.237h-1.478V3.913h1.744c0.228,0,0.413,0.186,0.413,0.413v6.093c0,0.058-0.012,0.113-0.034,0.164
		L14.539,10.138z"/>
	<path fill="#FFFFFF" d="M5.561,7.518V7.227c0-0.111-0.091-0.202-0.202-0.202S5.158,7.116,5.158,7.227v0.291
		c0,0.111,0.09,0.201,0.201,0.201S5.561,7.629,5.561,7.518z"/>
	<path fill="#FFFFFF" d="M9.917,3.664C9.824,3.602,9.699,3.628,9.638,3.722C9.577,3.815,9.603,3.94,9.697,4.001
		c0.129,0.084,0.228,0.122,0.341,0.139v0.047c0,0.111,0.09,0.202,0.201,0.202s0.202-0.091,0.202-0.202V4.119
		c0.249-0.08,0.408-0.3,0.444-0.517c0.05-0.296-0.11-0.563-0.399-0.665c-0.015-0.005-0.03-0.011-0.045-0.016V2.544
		c0.042,0.018,0.07,0.035,0.072,0.036c0.091,0.063,0.216,0.043,0.28-0.048s0.044-0.217-0.047-0.281
		c-0.008-0.006-0.128-0.089-0.305-0.127V2.085c0-0.111-0.091-0.201-0.202-0.201s-0.201,0.09-0.201,0.201v0.056
		C9.845,2.203,9.703,2.368,9.664,2.574C9.626,2.768,9.691,2.957,9.831,3.067c0.06,0.046,0.13,0.087,0.207,0.124v0.536
		C10.001,3.714,9.965,3.695,9.917,3.664L9.917,3.664z M10.487,3.535c-0.007,0.038-0.022,0.076-0.046,0.109V3.372
		C10.494,3.424,10.494,3.492,10.487,3.535z"/>
	<path fill="#FFFFFF" d="M9.24,5.044h2.02c0.111,0,0.201-0.09,0.201-0.201s-0.09-0.202-0.201-0.202H9.24
		c-0.111,0-0.202,0.091-0.202,0.202S9.128,5.044,9.24,5.044L9.24,5.044z"/>
	<path fill="#FFFFFF" d="M11.26,5.381H9.24c-0.111,0-0.202,0.091-0.202,0.202S9.128,5.785,9.24,5.785h2.02
		c0.111,0,0.201-0.09,0.201-0.201S11.371,5.381,11.26,5.381z"/>
	<path fill="#FFFFFF" d="M11.26,6.122H9.24c-0.111,0-0.202,0.091-0.202,0.202S9.128,6.525,9.24,6.525h2.02
		c0.111,0,0.201-0.09,0.201-0.201S11.371,6.122,11.26,6.122z"/>
</g>
</svg>
