<?xml version="1.0" encoding="utf-8"?>
<!-- Generator: Adobe Illustrator 16.0.0, SVG Export Plug-In . SVG Version: 6.00 Build 0)  -->
<!DOCTYPE svg PUBLIC "-//W3C//DTD SVG 1.1//EN" "http://www.w3.org/Graphics/SVG/1.1/DTD/svg11.dtd" [
	<!ENTITY ns_extend "http://ns.adobe.com/Extensibility/1.0/">
	<!ENTITY ns_ai "http://ns.adobe.com/AdobeIllustrator/10.0/">
	<!ENTITY ns_graphs "http://ns.adobe.com/Graphs/1.0/">
	<!ENTITY ns_vars "http://ns.adobe.com/Variables/1.0/">
	<!ENTITY ns_imrep "http://ns.adobe.com/ImageReplacement/1.0/">
	<!ENTITY ns_sfw "http://ns.adobe.com/SaveForWeb/1.0/">
	<!ENTITY ns_custom "http://ns.adobe.com/GenericCustomNamespace/1.0/">
	<!ENTITY ns_adobe_xpath "http://ns.adobe.com/XPath/1.0/">
]>
<svg version="1.1" id="Capa_1" xmlns:x="&ns_extend;" xmlns:i="&ns_ai;" xmlns:graph="&ns_graphs;"
	 xmlns="http://www.w3.org/2000/svg" xmlns:xlink="http://www.w3.org/1999/xlink" x="0px" y="0px" width="20px" height="16px"
	 viewBox="0 0 20 16" enable-background="new 0 0 20 16" xml:space="preserve">
<metadata>
	<sfw  xmlns="&ns_sfw;">
		<slices></slices>
		<sliceSourceBounds  height="14.084" width="12.775" x="299.112" y="389.458" bottomLeftOrigin="true"></sliceSourceBounds>
	</sfw>
</metadata>
<g>
	<g>
		<path fill="#FFFFFF" d="M8.162,5.507l-0.01-3.95h4.549v11.761H4.212V5.505L8.162,5.507z M3.612,5.305v8.013v0.601h0.599h8.49h0.6
			v-0.601V1.557V0.958h-0.6H7.996L3.612,5.305z"/>
		<rect x="5.067" y="7.271" fill="#FFFFFF" width="6.566" height="0.523"/>
		<rect x="5.067" y="9.085" fill="#FFFFFF" width="6.566" height="0.524"/>
		<rect x="5.067" y="10.902" fill="#FFFFFF" width="6.566" height="0.522"/>
	</g>
	<g>
		<circle fill="#FF0000" cx="13.971" cy="12.623" r="2.339"/>
		<path fill="#FFFFFF" d="M12.439,14.499c-0.061-0.051-0.117-0.104-0.174-0.16c-0.459-0.453-0.711-1.062-0.716-1.705
			c-0.007-1.334,1.074-2.422,2.406-2.43c1.336-0.004,2.425,1.076,2.431,2.407c0.002,0.646-0.244,1.257-0.699,1.716
			c-0.457,0.459-1.063,0.711-1.709,0.715C13.412,15.044,12.874,14.854,12.439,14.499z M15.453,10.809
			c-0.407-0.332-0.928-0.533-1.491-0.528c-0.629,0.004-1.216,0.25-1.657,0.692c-0.441,0.444-0.683,1.034-0.68,1.661
			c0.002,0.625,0.249,1.214,0.693,1.654c0.443,0.44,1.033,0.682,1.66,0.68s1.215-0.248,1.654-0.69
			c0.44-0.446,0.684-1.034,0.682-1.661l0,0C16.313,11.889,15.975,11.236,15.453,10.809z"/>
		<circle fill="#FFFFFF" cx="13.971" cy="12.623" r="2.083"/>
		<path fill="#FF0000" d="M13.749,13.954c-0.294-0.015-0.582-0.078-0.856-0.195l-0.002-0.674c0.155,0.078,0.327,0.146,0.512,0.197
			c0.186,0.053,0.349,0.077,0.484,0.077c0.116,0,0.199-0.017,0.254-0.043c0.053-0.026,0.08-0.073,0.08-0.14
			c0-0.045-0.021-0.084-0.059-0.112c-0.038-0.03-0.104-0.065-0.194-0.104c-0.089-0.039-0.212-0.086-0.364-0.142
			c-0.17-0.063-0.313-0.135-0.416-0.213c-0.106-0.078-0.185-0.168-0.231-0.267c-0.047-0.098-0.073-0.219-0.073-0.364
			c-0.002-0.226,0.07-0.397,0.215-0.524c0.143-0.127,0.355-0.205,0.645-0.236v-0.448l0.419-0.002l0.002,0.444
			c0.269,0.015,0.541,0.08,0.815,0.197l-0.24,0.577c-0.282-0.127-0.539-0.188-0.768-0.188c-0.107,0-0.184,0.015-0.229,0.039
			c-0.047,0.028-0.065,0.065-0.065,0.119c0,0.043,0.019,0.08,0.048,0.108c0.033,0.028,0.088,0.063,0.168,0.099
			c0.078,0.034,0.188,0.075,0.325,0.123c0.283,0.1,0.486,0.213,0.611,0.34c0.123,0.127,0.187,0.293,0.188,0.494
			c0,0.227-0.07,0.411-0.215,0.555c-0.146,0.146-0.354,0.229-0.63,0.269l0.002,0.543l-0.422,0.002L13.749,13.954z"/>
	</g>
</g>
</svg>
