<?xml version="1.0" encoding="utf-8"?>
<!-- Generator: Adobe Illustrator 16.0.0, SVG Export Plug-In . SVG Version: 6.00 Build 0)  -->
<!DOCTYPE svg PUBLIC "-//W3C//DTD SVG 1.1//EN" "http://www.w3.org/Graphics/SVG/1.1/DTD/svg11.dtd" [
	<!ENTITY ns_extend "http://ns.adobe.com/Extensibility/1.0/">
	<!ENTITY ns_ai "http://ns.adobe.com/AdobeIllustrator/10.0/">
	<!ENTITY ns_graphs "http://ns.adobe.com/Graphs/1.0/">
	<!ENTITY ns_vars "http://ns.adobe.com/Variables/1.0/">
	<!ENTITY ns_imrep "http://ns.adobe.com/ImageReplacement/1.0/">
	<!ENTITY ns_sfw "http://ns.adobe.com/SaveForWeb/1.0/">
	<!ENTITY ns_custom "http://ns.adobe.com/GenericCustomNamespace/1.0/">
	<!ENTITY ns_adobe_xpath "http://ns.adobe.com/XPath/1.0/">
]>
<svg version="1.1" id="Capa_1" xmlns:x="&ns_extend;" xmlns:i="&ns_ai;" xmlns:graph="&ns_graphs;"
	 xmlns="http://www.w3.org/2000/svg" xmlns:xlink="http://www.w3.org/1999/xlink" x="0px" y="0px" width="20px" height="20px"
	 viewBox="0 0 20 20" enable-background="new 0 0 20 20" xml:space="preserve">
<metadata>
	<sfw  xmlns="&ns_sfw;">
		<slices></slices>
		<sliceSourceBounds  height="18.5" width="18.5" x="296.25" y="387.25" bottomLeftOrigin="true"></sliceSourceBounds>
	</sfw>
</metadata>
<g>
	
		<circle fill="#FFFFFF" stroke="#F90000" stroke-width="0.5" stroke-linecap="round" stroke-linejoin="round" cx="10" cy="10" r="9"/>
	<path fill="#FF0000" d="M10,5.5c-2.484,0-4.5,2.016-4.5,4.5s2.016,4.5,4.5,4.5s4.5-2.016,4.5-4.5S12.484,5.5,10,5.5z M4.5,10
		c0-3.038,2.462-5.5,5.5-5.5c3.037,0,5.5,2.462,5.5,5.5c0,3.037-2.463,5.5-5.5,5.5C6.962,15.5,4.5,13.037,4.5,10z"/>
	<path fill="#FF0000" d="M10,6.5c0.275,0,0.5,0.225,0.5,0.5v2.691l1.725,0.861c0.246,0.123,0.346,0.424,0.224,0.672
		c-0.123,0.246-0.425,0.346-0.671,0.224l-2-1C9.607,10.361,9.5,10.189,9.5,10V7C9.5,6.725,9.725,6.5,10,6.5z"/>
</g>
</svg>
