<?xml version="1.0" encoding="utf-8"?>
<!-- Generator: Adobe Illustrator 16.0.0, SVG Export Plug-In . SVG Version: 6.00 Build 0)  -->
<!DOCTYPE svg PUBLIC "-//W3C//DTD SVG 1.1//EN" "http://www.w3.org/Graphics/SVG/1.1/DTD/svg11.dtd" [
	<!ENTITY ns_extend "http://ns.adobe.com/Extensibility/1.0/">
	<!ENTITY ns_ai "http://ns.adobe.com/AdobeIllustrator/10.0/">
	<!ENTITY ns_graphs "http://ns.adobe.com/Graphs/1.0/">
	<!ENTITY ns_vars "http://ns.adobe.com/Variables/1.0/">
	<!ENTITY ns_imrep "http://ns.adobe.com/ImageReplacement/1.0/">
	<!ENTITY ns_sfw "http://ns.adobe.com/SaveForWeb/1.0/">
	<!ENTITY ns_custom "http://ns.adobe.com/GenericCustomNamespace/1.0/">
	<!ENTITY ns_adobe_xpath "http://ns.adobe.com/XPath/1.0/">
]>
<svg version="1.1" id="Capa_1" xmlns:x="&ns_extend;" xmlns:i="&ns_ai;" xmlns:graph="&ns_graphs;"
	 xmlns="http://www.w3.org/2000/svg" xmlns:xlink="http://www.w3.org/1999/xlink" x="0px" y="0px" width="20px" height="16px"
	 viewBox="0 0 20 16" enable-background="new 0 0 20 16" xml:space="preserve">
<metadata>
	<sfw  xmlns="&ns_sfw;">
		<slices></slices>
		<sliceSourceBounds  height="13.354" width="16.947" x="297.554" y="389.816" bottomLeftOrigin="true"></sliceSourceBounds>
	</sfw>
</metadata>
<g>
	<path fill="#FFFFFF" d="M6.034,7.324L6.026,3.869h3.981V14.16H2.578V7.323L6.034,7.324z M2.054,7.148v7.012v0.523h0.523h7.429
		h0.523V14.16V3.869V3.345h-0.523H5.889L2.054,7.148z"/>
	<rect x="3.327" y="8.867" fill="#FFFFFF" width="5.745" height="0.457"/>
	<rect x="3.327" y="10.455" fill="#FFFFFF" width="5.745" height="0.459"/>
	<rect x="3.327" y="12.045" fill="#FFFFFF" width="5.745" height="0.459"/>
</g>
<g>
	<path fill="#FF0000" d="M18.975,5.169l-1.474,4.458c-0.004,0.012-0.01,0.023-0.015,0.035c-0.096,0.229-0.354,0.348-0.594,0.27
		L7.197,6.724c-0.239-0.078-0.375-0.33-0.315-0.57C6.884,6.14,6.888,6.13,6.893,6.117l1.474-4.458
		c0.002-0.005,0.004-0.01,0.006-0.015c0.089-0.242,0.354-0.372,0.602-0.29l9.696,3.208c0.246,0.082,0.384,0.344,0.312,0.592
		C18.979,5.16,18.977,5.164,18.975,5.169z"/>
	<path fill="#FFFFFF" d="M18.98,5.154c0.069-0.248-0.064-0.51-0.313-0.592L17.18,4.069l-6.718-2.222L8.974,1.354
		c-0.247-0.082-0.513,0.048-0.602,0.29C8.37,1.649,8.368,1.654,8.366,1.659L7.962,2.882L7.296,4.894l0,0L6.893,6.117
		C6.891,6.123,6.889,6.128,6.887,6.132l0,0C6.885,6.138,6.884,6.146,6.882,6.154c0,0,0,0,0,0.002c-0.001,0-0.001,0.002-0.002,0.004
		C6.879,6.166,6.878,6.172,6.876,6.18c0,0.002,0,0.004,0,0.006c-0.002,0.006-0.002,0.01-0.004,0.016c0,0.004,0,0.006,0,0.008
		C6.871,6.214,6.87,6.218,6.869,6.224C6.87,6.226,6.868,6.23,6.87,6.232C6.868,6.238,6.868,6.244,6.868,6.248s0,0.006,0,0.01
		c0,0.004-0.001,0.008,0,0.012c-0.001,0.004-0.001,0.008,0,0.012c0,0.002,0,0.006,0,0.012C6.869,6.298,6.869,6.3,6.869,6.304
		C6.87,6.306,6.87,6.31,6.87,6.314s0.001,0.008,0.001,0.012C6.872,6.33,6.872,6.332,6.873,6.337c0,0.004,0.001,0.006,0.002,0.01
		c0,0.004,0.001,0.008,0.002,0.012s0.002,0.008,0.003,0.01c0,0.006,0.002,0.008,0.002,0.012c0.001,0.004,0.002,0.008,0.003,0.012
		c0.001,0.004,0.001,0.006,0.002,0.01c0.001,0.004,0.002,0.008,0.004,0.01c0.001,0.006,0.002,0.008,0.004,0.012
		c0.001,0.004,0.002,0.008,0.004,0.01c0,0.004,0.003,0.008,0.004,0.012c0.001,0.002,0.002,0.006,0.004,0.01
		c0.001,0.004,0.002,0.008,0.003,0.01c0.003,0.004,0.004,0.008,0.006,0.012C6.917,6.478,6.918,6.482,6.92,6.484
		C6.922,6.49,6.923,6.492,6.925,6.496s0.003,0.006,0.006,0.008c0.001,0.004,0.003,0.008,0.006,0.012
		C6.938,6.517,6.94,6.519,6.941,6.523c0.003,0.004,0.004,0.006,0.007,0.01c0.001,0.002,0.004,0.006,0.006,0.01
		s0.005,0.006,0.007,0.01C6.963,6.554,6.965,6.556,6.967,6.56C6.97,6.562,6.973,6.566,6.975,6.57
		C6.977,6.572,6.98,6.574,6.982,6.576c0.003,0.004,0.005,0.008,0.007,0.01c0.003,0.002,0.006,0.006,0.008,0.008
		C7,6.598,7.002,6.6,7.004,6.604C7.006,6.605,7.01,6.607,7.012,6.611c0.003,0.002,0.006,0.004,0.009,0.008
		c0.002,0.002,0.005,0.004,0.008,0.008c0.003,0.002,0.006,0.006,0.008,0.006C7.04,6.636,7.043,6.638,7.046,6.64
		s0.005,0.006,0.008,0.008c0.004,0.002,0.007,0.004,0.01,0.008C7.067,6.658,7.069,6.66,7.072,6.662
		c0.003,0.002,0.007,0.004,0.01,0.006c0.004,0.002,0.007,0.006,0.01,0.006C7.095,6.677,7.1,6.677,7.103,6.681
		c0.003,0.002,0.006,0.002,0.009,0.006c0.004,0,0.008,0.002,0.012,0.006c0.002,0,0.006,0.002,0.009,0.004
		c0.004,0.002,0.009,0.004,0.013,0.006C7.147,6.705,7.15,6.705,7.153,6.707c0.005,0.002,0.01,0.004,0.015,0.006
		C7.17,6.714,7.173,6.714,7.176,6.716C7.183,6.718,7.19,6.72,7.197,6.724l0,0l0,0l1.489,0.492l6.718,2.222l1.488,0.494
		c0.008,0.002,0.016,0.004,0.021,0.006c0.002,0.002,0.006,0.002,0.008,0.002c0.009,0.002,0.013,0.004,0.017,0.004
		c0.004,0.002,0.006,0.002,0.01,0.002c0.005,0.004,0.011,0.004,0.015,0.004c0.004,0.002,0.006,0.002,0.011,0.002
		c0.004,0.002,0.008,0.002,0.014,0.002c0.002,0.002,0.008,0,0.012,0.002c0.004,0,0.009,0,0.014,0.002c0.006,0,0.01,0,0.012,0
		c0.004,0,0.008,0,0.014,0c0.003,0,0.007,0,0.011,0s0.009,0,0.013,0c0.002,0,0.006,0,0.01,0c0.008,0,0.011,0,0.015,0
		c0.003,0,0.008-0.002,0.011-0.002c0.004,0,0.01,0,0.014,0c0.004-0.002,0.008-0.002,0.012-0.002s0.008-0.002,0.011-0.002
		c0.005,0,0.009-0.002,0.011-0.002c0.006,0,0.01-0.004,0.012-0.004c0.005-0.002,0.01-0.002,0.014-0.004c0.005,0,0.008,0,0.012-0.002
		c0.006,0,0.008-0.002,0.014-0.002c0.002-0.002,0.006-0.002,0.01-0.004c0.004,0,0.008-0.002,0.012-0.004
		c0.003,0,0.008-0.003,0.01-0.003c0.004-0.002,0.008-0.004,0.012-0.006c0.005,0,0.007-0.002,0.012-0.004
		c0.004,0,0.007-0.002,0.011-0.004c0.005-0.002,0.007-0.002,0.013-0.004c0.002-0.002,0.006-0.004,0.01-0.004
		C17.27,9.9,17.271,9.9,17.275,9.898c0.004-0.004,0.008-0.004,0.011-0.006s0.006-0.004,0.01-0.008
		c0.003-0.002,0.007-0.004,0.009-0.006c0.004-0.002,0.008-0.004,0.012-0.006c0.002-0.002,0.004-0.004,0.01-0.006
		c0.004-0.002,0.007-0.004,0.011-0.01c0.002,0,0.005-0.004,0.009-0.006s0.008-0.004,0.01-0.006c0.004-0.004,0.006-0.004,0.01-0.009
		c0.002-0.002,0.005-0.004,0.009-0.008c0.003-0.002,0.005-0.004,0.009-0.009c0.002-0.002,0.006-0.004,0.008-0.006
		c0.004-0.004,0.006-0.006,0.008-0.008c0.004-0.005,0.006-0.008,0.012-0.012c0.002-0.002,0.005-0.006,0.007-0.008
		s0.006-0.004,0.008-0.008c0.002-0.006,0.005-0.008,0.009-0.01c0.002-0.004,0.006-0.008,0.008-0.01
		c0.002-0.004,0.004-0.007,0.006-0.009c0.004-0.004,0.006-0.008,0.008-0.012c0.003-0.003,0.004-0.007,0.007-0.009
		c0.002-0.004,0.005-0.008,0.007-0.013c0.002-0.003,0.004-0.007,0.006-0.009c0.002-0.004,0.006-0.008,0.008-0.014
		c0.002-0.002,0.002-0.006,0.004-0.008c0.002-0.006,0.007-0.01,0.01-0.016c0-0.002,0.002-0.004,0.004-0.007
		c0.001-0.006,0.005-0.013,0.008-0.019c0,0,0-0.002,0.001-0.004l0,0c0.003-0.007,0.007-0.016,0.011-0.021l0,0
		c0.002-0.004,0.004-0.01,0.006-0.014l0,0l0.401-1.226l0.667-2.01l0.402-1.223C18.977,5.164,18.979,5.16,18.98,5.154z M17.393,8.355
		c-0.201,0.002-0.406,0.031-0.615,0.088c-0.43,0.116-0.799,0.333-1.067,0.604L8.68,6.722c-0.058-0.381-0.224-0.773-0.5-1.123
		C8.02,5.396,7.837,5.226,7.642,5.091l0.715-2.162C8.593,2.937,8.841,2.91,9.09,2.843c0.432-0.117,0.801-0.334,1.073-0.607
		l7.026,2.326c0.056,0.381,0.222,0.775,0.498,1.125c0.133,0.17,0.283,0.316,0.439,0.438L17.393,8.355z"/>
	<path fill="#FFFFFF" d="M11.141,6.634c-0.035-0.059-0.07-0.119-0.102-0.18c-0.253-0.504-0.296-1.078-0.118-1.615
		c0.365-1.107,1.565-1.711,2.673-1.344c1.108,0.367,1.711,1.566,1.344,2.674c-0.176,0.535-0.553,0.971-1.058,1.225
		s-1.078,0.295-1.614,0.117C11.794,7.355,11.4,7.048,11.141,6.634z M14.664,4.412c-0.244-0.391-0.62-0.699-1.09-0.854
		c-0.521-0.173-1.076-0.132-1.566,0.114c-0.488,0.246-0.854,0.668-1.025,1.189c-0.172,0.52-0.131,1.076,0.113,1.564
		c0.247,0.49,0.67,0.854,1.188,1.025c0.521,0.172,1.077,0.131,1.567-0.113c0.485-0.246,0.854-0.668,1.022-1.189l0,0
		C15.077,5.544,14.979,4.912,14.664,4.412z"/>
	<circle fill="#FFFFFF" cx="12.93" cy="5.505" r="1.822"/>
	<path fill="#FF0000" d="M12.377,6.546c-0.242-0.092-0.461-0.227-0.656-0.4l0.188-0.561c0.105,0.111,0.229,0.213,0.369,0.307
		c0.139,0.096,0.267,0.162,0.382,0.201c0.096,0.031,0.17,0.043,0.222,0.035c0.055-0.01,0.087-0.039,0.104-0.094
		c0.015-0.037,0.009-0.074-0.018-0.111c-0.021-0.035-0.064-0.082-0.131-0.141c-0.063-0.057-0.15-0.129-0.266-0.217
		c-0.125-0.102-0.221-0.199-0.285-0.293c-0.066-0.096-0.104-0.189-0.119-0.285c-0.014-0.094,0.001-0.203,0.041-0.324
		c0.063-0.186,0.17-0.311,0.322-0.375c0.154-0.066,0.354-0.071,0.602-0.018l0.124-0.374l0.351,0.116l-0.123,0.37
		c0.222,0.087,0.428,0.216,0.621,0.39l-0.357,0.414c-0.2-0.184-0.396-0.307-0.583-0.369c-0.093-0.029-0.157-0.039-0.201-0.029
		c-0.044,0.01-0.071,0.035-0.087,0.078c-0.014,0.037-0.012,0.072,0.01,0.105c0.02,0.033,0.057,0.074,0.11,0.127
		c0.055,0.051,0.135,0.115,0.235,0.193c0.207,0.16,0.347,0.311,0.412,0.451c0.066,0.14,0.071,0.293,0.02,0.463
		c-0.063,0.188-0.176,0.32-0.332,0.4c-0.159,0.078-0.355,0.094-0.598,0.045l-0.147,0.451l-0.351-0.115L12.377,6.546z"/>
</g>
</svg>
