<?xml version="1.0" encoding="utf-8"?>
<!-- Generator: Adobe Illustrator 16.0.0, SVG Export Plug-In . SVG Version: 6.00 Build 0)  -->
<!DOCTYPE svg PUBLIC "-//W3C//DTD SVG 1.1//EN" "http://www.w3.org/Graphics/SVG/1.1/DTD/svg11.dtd" [
	<!ENTITY ns_extend "http://ns.adobe.com/Extensibility/1.0/">
	<!ENTITY ns_ai "http://ns.adobe.com/AdobeIllustrator/10.0/">
	<!ENTITY ns_graphs "http://ns.adobe.com/Graphs/1.0/">
	<!ENTITY ns_vars "http://ns.adobe.com/Variables/1.0/">
	<!ENTITY ns_imrep "http://ns.adobe.com/ImageReplacement/1.0/">
	<!ENTITY ns_sfw "http://ns.adobe.com/SaveForWeb/1.0/">
	<!ENTITY ns_custom "http://ns.adobe.com/GenericCustomNamespace/1.0/">
	<!ENTITY ns_adobe_xpath "http://ns.adobe.com/XPath/1.0/">
]>
<svg version="1.1" id="Capa_1" xmlns:x="&ns_extend;" xmlns:i="&ns_ai;" xmlns:graph="&ns_graphs;"
	 xmlns="http://www.w3.org/2000/svg" xmlns:xlink="http://www.w3.org/1999/xlink" x="0px" y="0px" width="20px" height="20px"
	 viewBox="0 0 20 20" enable-background="new 0 0 20 20" xml:space="preserve">
<metadata>
	<sfw  xmlns="&ns_sfw;">
		<slices></slices>
		<sliceSourceBounds  height="20" width="20.001" y="386.5" x="295.5" bottomLeftOrigin="true"></sliceSourceBounds>
	</sfw>
</metadata>
<path fill="#FF0000" d="M8.594,0H0.781C0.35,0,0,0.35,0,0.781v7.813c0,0.432,0.35,0.781,0.781,0.781h7.813
	c0.432,0,0.781-0.35,0.781-0.781V0.781C9.375,0.35,9.025,0,8.594,0z M7.813,7.813h-6.25v-6.25h6.25V7.813z"/>
<path fill="#FF0000" d="M6.424,2.17H2.952c-0.431,0-0.781,0.35-0.781,0.781v3.472c0,0.432,0.35,0.781,0.781,0.781h3.473
	c0.431,0,0.781-0.35,0.781-0.781V2.951C7.206,2.52,6.855,2.17,6.424,2.17z M5.643,5.642h-1.91v-1.91h1.91V5.642z"/>
<path fill="#FF0000" d="M19.219,0h-7.813c-0.432,0-0.781,0.35-0.781,0.781v7.813c0,0.432,0.35,0.781,0.781,0.781h7.813
	C19.65,9.375,20,9.025,20,8.594V0.781C20,0.35,19.65,0,19.219,0z M18.438,7.813h-6.25v-6.25h6.25V7.813z"/>
<path fill="#FF0000" d="M17.049,2.17h-3.473c-0.431,0-0.78,0.35-0.78,0.781v3.472c0,0.432,0.35,0.781,0.78,0.781h3.473
	c0.432,0,0.781-0.35,0.781-0.781V2.951C17.83,2.52,17.48,2.17,17.049,2.17z M16.268,5.642h-1.909v-1.91h1.909V5.642z"/>
<path fill="#FF0000" d="M8.594,10.625H0.781C0.35,10.625,0,10.975,0,11.406v7.813C0,19.65,0.35,20,0.781,20h7.813
	c0.432,0,0.781-0.35,0.781-0.781v-7.813C9.375,10.975,9.025,10.625,8.594,10.625z M7.813,18.438h-6.25v-6.25h6.25V18.438z"/>
<path fill="#FF0000" d="M6.424,12.795H2.952c-0.431,0-0.781,0.35-0.781,0.781v3.473c0,0.432,0.35,0.781,0.781,0.781h3.473
	c0.431,0,0.781-0.35,0.781-0.781v-3.473C7.206,13.145,6.855,12.795,6.424,12.795z M5.643,16.268h-1.91v-1.91h1.91V16.268z"/>
<path fill="#FF0000" d="M13.909,10.625h-2.503c-0.432,0-0.781,0.35-0.781,0.781v2.503c0,0.432,0.35,0.781,0.781,0.781
	s0.781-0.35,0.781-0.781v-1.722h1.722c0.432,0,0.781-0.35,0.781-0.781S14.341,10.625,13.909,10.625z"/>
<path fill="#FF0000" d="M19.22,10.625h-2.503c-0.432,0-0.781,0.35-0.781,0.781s0.35,0.781,0.781,0.781h1.722v1.722
	c0,0.432,0.35,0.781,0.781,0.781s0.781-0.35,0.781-0.781v-2.503C20.001,10.975,19.651,10.625,19.22,10.625z"/>
<path fill="#FF0000" d="M13.909,18.438h-1.722v-1.722c0-0.432-0.35-0.781-0.781-0.781s-0.781,0.35-0.781,0.781v2.503
	c0,0.432,0.35,0.781,0.781,0.781h2.503c0.432,0,0.781-0.35,0.781-0.781S14.341,18.438,13.909,18.438z"/>
<path fill="#FF0000" d="M19.22,15.935c-0.432,0-0.781,0.35-0.781,0.781v1.722h-1.722c-0.432,0-0.781,0.35-0.781,0.781
	S16.285,20,16.717,20h2.503c0.432,0,0.781-0.35,0.781-0.781v-2.503C20.001,16.284,19.651,15.935,19.22,15.935z"/>
</svg>
