<?xml version="1.0" encoding="utf-8"?>
<!-- Generator: Adobe Illustrator 16.0.0, SVG Export Plug-In . SVG Version: 6.00 Build 0)  -->
<!DOCTYPE svg PUBLIC "-//W3C//DTD SVG 1.1//EN" "http://www.w3.org/Graphics/SVG/1.1/DTD/svg11.dtd" [
	<!ENTITY ns_extend "http://ns.adobe.com/Extensibility/1.0/">
	<!ENTITY ns_ai "http://ns.adobe.com/AdobeIllustrator/10.0/">
	<!ENTITY ns_graphs "http://ns.adobe.com/Graphs/1.0/">
	<!ENTITY ns_vars "http://ns.adobe.com/Variables/1.0/">
	<!ENTITY ns_imrep "http://ns.adobe.com/ImageReplacement/1.0/">
	<!ENTITY ns_sfw "http://ns.adobe.com/SaveForWeb/1.0/">
	<!ENTITY ns_custom "http://ns.adobe.com/GenericCustomNamespace/1.0/">
	<!ENTITY ns_adobe_xpath "http://ns.adobe.com/XPath/1.0/">
]>
<svg version="1.1" id="Capa_1" xmlns:x="&ns_extend;" xmlns:i="&ns_ai;" xmlns:graph="&ns_graphs;"
	 xmlns="http://www.w3.org/2000/svg" xmlns:xlink="http://www.w3.org/1999/xlink" x="0px" y="0px" width="21px" height="17px"
	 viewBox="0 0 21 17" enable-background="new 0 0 21 17" xml:space="preserve">
<metadata>
	<sfw  xmlns="&ns_sfw;">
		<slices></slices>
		<sliceSourceBounds  height="11.339" width="20.744" x="295" y="391.593" bottomLeftOrigin="true"></sliceSourceBounds>
	</sfw>
</metadata>
<g>
	<g>
		<g>
			<circle fill="#FFFFFF" cx="12.916" cy="8.683" r="1.336"/>
			<path fill="#FF0000" d="M13.313,9.266c-0.076,0.086-0.182,0.142-0.317,0.16v0.195h-0.152V9.43
				c-0.12-0.014-0.219-0.059-0.295-0.135c-0.073-0.076-0.123-0.182-0.146-0.32l0.273-0.03c0.012,0.057,0.033,0.105,0.063,0.145
				c0.031,0.041,0.066,0.07,0.104,0.09V8.74c-0.137-0.04-0.237-0.099-0.301-0.178c-0.063-0.08-0.097-0.176-0.097-0.289
				c0-0.115,0.035-0.211,0.107-0.289c0.072-0.078,0.17-0.123,0.289-0.135V7.745h0.152V7.85c0.111,0.013,0.199,0.051,0.266,0.113
				c0.064,0.063,0.107,0.146,0.125,0.251l-0.266,0.034c-0.016-0.082-0.057-0.139-0.125-0.168v0.41
				c0.168,0.046,0.281,0.104,0.343,0.177c0.062,0.073,0.091,0.165,0.091,0.278C13.428,9.072,13.391,9.18,13.313,9.266z"/>
		</g>
		<path fill="#FFFFFF" d="M12.707,8.26c0,0.037,0.011,0.072,0.033,0.104c0.021,0.031,0.057,0.058,0.102,0.077V8.078
			c-0.041,0.014-0.074,0.037-0.098,0.07C12.719,8.182,12.707,8.219,12.707,8.26z"/>
		<path fill="#FFFFFF" d="M12.994,8.785v0.408c0.053-0.01,0.096-0.032,0.127-0.071c0.033-0.039,0.051-0.085,0.051-0.137
			c0-0.047-0.014-0.087-0.042-0.121C13.102,8.828,13.057,8.803,12.994,8.785z"/>
	</g>
	<path fill="#FFFFFF" d="M8.282,6.104c0.189,0.061,0.365,0.133,0.526,0.207c0.133,0.039,0.264,0.1,0.384,0.184l4.591,3.18
		c0.596,0.412,0.744,1.229,0.332,1.824c-0.414,0.596-1.23,0.744-1.826,0.332l-2.172-1.504l-0.148,0.217l2.169,1.502
		c0.346,0.24,0.766,0.33,1.178,0.256c0.414-0.075,0.772-0.307,1.014-0.651c0.184-0.267,0.279-0.574,0.279-0.896
		c0-0.006,0-0.012,0-0.018L19.4,10.62c0.725-0.017,1.326,0.556,1.343,1.28c0.019,0.725-0.556,1.324-1.28,1.342l-6.859,0.164
		c-0.074,0.002-0.146-0.004-0.219-0.014c-0.523,0.059-1.051-0.074-1.486-0.375l-3.667-2.541c-0.076-0.053-0.149-0.109-0.217-0.172
		c-0.02-0.015-0.056-0.033-0.086-0.044c-0.078-0.024-0.219-0.038-0.289-0.036c-0.036,0.002-0.072,0.002-0.107,0.002H0V5.855h6.48
		C6.783,5.844,7.504,5.85,8.282,6.104z"/>
	<g>
		<g>
			<circle fill="#FFFFFF" cx="18.945" cy="8.683" r="1.336"/>
			<path fill="#FF0000" d="M19.344,9.266c-0.076,0.086-0.183,0.142-0.318,0.16v0.195h-0.151V9.43
				c-0.121-0.014-0.22-0.059-0.295-0.135c-0.076-0.076-0.124-0.182-0.146-0.32l0.273-0.03c0.011,0.057,0.031,0.105,0.063,0.145
				c0.031,0.041,0.065,0.07,0.104,0.09V8.74c-0.138-0.04-0.237-0.099-0.302-0.178c-0.064-0.08-0.096-0.176-0.096-0.289
				c0-0.115,0.035-0.211,0.107-0.289c0.072-0.078,0.168-0.123,0.289-0.135V7.745h0.152V7.85c0.111,0.013,0.199,0.051,0.265,0.113
				s0.108,0.146,0.126,0.251L19.15,8.248c-0.017-0.082-0.059-0.139-0.125-0.168v0.41c0.168,0.046,0.281,0.104,0.342,0.177
				c0.063,0.073,0.092,0.165,0.092,0.278C19.459,9.072,19.42,9.18,19.344,9.266z"/>
		</g>
		<path fill="#FFFFFF" d="M18.736,8.26c0,0.037,0.012,0.072,0.035,0.104c0.021,0.031,0.056,0.058,0.102,0.077V8.078
			c-0.041,0.014-0.074,0.037-0.1,0.07C18.75,8.182,18.736,8.219,18.736,8.26z"/>
		<path fill="#FFFFFF" d="M19.025,8.785v0.408c0.052-0.01,0.094-0.032,0.127-0.071s0.05-0.085,0.05-0.137
			c0-0.047-0.015-0.087-0.042-0.121C19.133,8.828,19.088,8.803,19.025,8.785z"/>
	</g>
	<g>
		<g>
			<circle fill="#FFFFFF" cx="17.479" cy="6.089" r="1.337"/>
			<path fill="#FF0000" d="M17.876,6.672c-0.076,0.086-0.183,0.139-0.319,0.159v0.197h-0.152V6.836
				c-0.119-0.014-0.219-0.06-0.295-0.135c-0.073-0.076-0.123-0.182-0.145-0.32l0.273-0.029c0.012,0.057,0.033,0.104,0.063,0.145
				s0.064,0.07,0.103,0.088v-0.44c-0.137-0.039-0.236-0.098-0.301-0.178c-0.064-0.078-0.097-0.175-0.097-0.289
				c0-0.114,0.035-0.21,0.106-0.289c0.074-0.078,0.171-0.123,0.289-0.135V5.15h0.152v0.104c0.111,0.013,0.199,0.052,0.266,0.115
				s0.107,0.146,0.127,0.25l-0.266,0.035c-0.017-0.082-0.059-0.139-0.127-0.168v0.41C17.723,5.941,17.837,6,17.898,6.073
				c0.062,0.073,0.092,0.165,0.092,0.278C17.991,6.479,17.953,6.584,17.876,6.672z"/>
		</g>
		<path fill="#FFFFFF" d="M17.27,5.666c0,0.037,0.013,0.071,0.033,0.104c0.022,0.031,0.057,0.057,0.102,0.076V5.483
			c-0.041,0.014-0.073,0.038-0.098,0.071C17.281,5.588,17.27,5.625,17.27,5.666z"/>
		<path fill="#FFFFFF" d="M17.557,6.19V6.6c0.053-0.01,0.096-0.035,0.129-0.073c0.032-0.039,0.049-0.085,0.049-0.137
			c0-0.047-0.014-0.086-0.041-0.121C17.665,6.234,17.62,6.209,17.557,6.19z"/>
	</g>
	<g>
		<g>
			<circle fill="#FFFFFF" cx="15.898" cy="8.683" r="1.336"/>
			<path fill="#FF0000" d="M16.298,9.266c-0.077,0.086-0.183,0.142-0.319,0.16v0.195h-0.151V9.43
				c-0.121-0.014-0.22-0.059-0.295-0.135c-0.074-0.076-0.123-0.182-0.146-0.32l0.273-0.03c0.012,0.057,0.033,0.105,0.063,0.145
				c0.03,0.041,0.065,0.07,0.104,0.09V8.74c-0.137-0.04-0.237-0.099-0.301-0.178c-0.064-0.08-0.096-0.176-0.096-0.289
				c0-0.115,0.034-0.211,0.106-0.289c0.071-0.078,0.169-0.123,0.289-0.135V7.745h0.151V7.85c0.111,0.013,0.199,0.051,0.267,0.113
				c0.065,0.063,0.106,0.146,0.125,0.251l-0.265,0.034c-0.018-0.082-0.06-0.139-0.127-0.168v0.41
				c0.168,0.046,0.282,0.104,0.344,0.177c0.061,0.073,0.091,0.165,0.091,0.278C16.412,9.072,16.374,9.18,16.298,9.266z"/>
		</g>
		<path fill="#FFFFFF" d="M15.691,8.26c0,0.037,0.011,0.072,0.033,0.104c0.021,0.032,0.057,0.058,0.102,0.077V8.078
			c-0.041,0.014-0.074,0.037-0.098,0.07C15.703,8.182,15.691,8.219,15.691,8.26z"/>
		<path fill="#FFFFFF" d="M15.979,8.785v0.408c0.054-0.01,0.096-0.032,0.129-0.071c0.031-0.039,0.05-0.085,0.05-0.137
			c0-0.047-0.015-0.087-0.042-0.121C16.086,8.828,16.041,8.803,15.979,8.785z"/>
	</g>
	<g>
		<g>
			<circle fill="#FFFFFF" cx="14.432" cy="6.089" r="1.337"/>
			<path fill="#FF0000" d="M14.83,6.672c-0.076,0.086-0.184,0.139-0.318,0.159v0.197h-0.152V6.836
				c-0.121-0.014-0.221-0.06-0.295-0.135c-0.076-0.076-0.125-0.182-0.145-0.32l0.273-0.029c0.012,0.057,0.031,0.104,0.063,0.145
				s0.064,0.07,0.104,0.088v-0.44c-0.137-0.039-0.237-0.098-0.303-0.178c-0.063-0.078-0.096-0.175-0.096-0.289
				c0-0.114,0.037-0.21,0.109-0.289c0.072-0.078,0.168-0.123,0.289-0.135V5.15h0.15v0.104c0.111,0.013,0.2,0.052,0.266,0.115
				s0.107,0.146,0.127,0.25l-0.266,0.035c-0.017-0.082-0.06-0.139-0.127-0.168v0.41C14.677,5.941,14.792,6,14.854,6.073
				c0.061,0.073,0.092,0.165,0.092,0.278C14.945,6.479,14.906,6.584,14.83,6.672z"/>
		</g>
		<path fill="#FFFFFF" d="M14.223,5.666c0,0.037,0.012,0.071,0.035,0.104c0.021,0.031,0.055,0.057,0.102,0.076V5.483
			c-0.041,0.014-0.073,0.038-0.1,0.071C14.236,5.588,14.223,5.625,14.223,5.666z"/>
		<path fill="#FFFFFF" d="M14.512,6.19V6.6c0.051-0.01,0.094-0.035,0.127-0.073c0.033-0.039,0.049-0.085,0.049-0.137
			c0-0.047-0.014-0.086-0.041-0.121S14.574,6.209,14.512,6.19z"/>
	</g>
	<g>
		<g>
			<circle fill="#FFFFFF" cx="16.052" cy="3.405" r="1.337"/>
			<path fill="#FF0000" d="M16.449,3.987c-0.076,0.087-0.184,0.14-0.318,0.159v0.196h-0.152v-0.19
				c-0.121-0.015-0.219-0.061-0.295-0.136c-0.074-0.075-0.123-0.183-0.145-0.319l0.273-0.029c0.012,0.055,0.031,0.104,0.063,0.145
				s0.064,0.07,0.104,0.088v-0.44c-0.137-0.039-0.237-0.099-0.302-0.178c-0.063-0.08-0.096-0.176-0.096-0.289
				c0-0.115,0.036-0.211,0.108-0.289s0.168-0.123,0.289-0.135V2.467h0.151V2.57c0.111,0.014,0.199,0.051,0.265,0.114
				s0.108,0.146,0.127,0.251L16.256,2.97c-0.016-0.083-0.058-0.138-0.125-0.167v0.41c0.168,0.045,0.281,0.104,0.342,0.176
				c0.063,0.072,0.092,0.166,0.092,0.279C16.564,3.794,16.525,3.9,16.449,3.987z"/>
		</g>
		<path fill="#FFFFFF" d="M15.844,2.981c0,0.038,0.012,0.072,0.033,0.103c0.021,0.033,0.057,0.058,0.102,0.078V2.799
			c-0.041,0.014-0.074,0.038-0.099,0.072S15.844,2.941,15.844,2.981z"/>
		<path fill="#FFFFFF" d="M16.131,3.506v0.409c0.053-0.01,0.096-0.034,0.127-0.073c0.033-0.039,0.051-0.084,0.051-0.137
			c0-0.047-0.015-0.087-0.043-0.121C16.238,3.55,16.193,3.524,16.131,3.506z"/>
	</g>
</g>
</svg>
