<?xml version="1.0" encoding="utf-8"?>
<!-- Generator: Adobe Illustrator 16.0.0, SVG Export Plug-In . SVG Version: 6.00 Build 0)  -->
<!DOCTYPE svg PUBLIC "-//W3C//DTD SVG 1.1//EN" "http://www.w3.org/Graphics/SVG/1.1/DTD/svg11.dtd" [
	<!ENTITY ns_extend "http://ns.adobe.com/Extensibility/1.0/">
	<!ENTITY ns_ai "http://ns.adobe.com/AdobeIllustrator/10.0/">
	<!ENTITY ns_graphs "http://ns.adobe.com/Graphs/1.0/">
	<!ENTITY ns_vars "http://ns.adobe.com/Variables/1.0/">
	<!ENTITY ns_imrep "http://ns.adobe.com/ImageReplacement/1.0/">
	<!ENTITY ns_sfw "http://ns.adobe.com/SaveForWeb/1.0/">
	<!ENTITY ns_custom "http://ns.adobe.com/GenericCustomNamespace/1.0/">
	<!ENTITY ns_adobe_xpath "http://ns.adobe.com/XPath/1.0/">
]>
<svg version="1.1" id="Capa_1" xmlns:x="&ns_extend;" xmlns:i="&ns_ai;" xmlns:graph="&ns_graphs;"
	 xmlns="http://www.w3.org/2000/svg" xmlns:xlink="http://www.w3.org/1999/xlink" x="0px" y="0px" width="20px" height="16px"
	 viewBox="0 0 20 16" enable-background="new 0 0 20 16" xml:space="preserve">
<metadata>
	<sfw  xmlns="&ns_sfw;">
		<slices></slices>
		<sliceSourceBounds  height="12.189" width="13.115" x="298.942" y="390.406" bottomLeftOrigin="true"></sliceSourceBounds>
	</sfw>
</metadata>
<g>
	<path fill="#FFFFFF" d="M3.442,9.24C3.491,9.059,3.535,8.875,3.59,8.693c0.239-0.792,0.655-1.471,1.305-1.992
		c0.161-0.13,0.339-0.239,0.508-0.36c0.034-0.024,0.051-0.013,0.08,0.009C5.629,6.474,5.77,6.604,5.925,6.716
		C6.457,7.098,7.058,7.23,7.704,7.169c0.115-0.011,0.231-0.025,0.354-0.038C8.083,7.23,8.108,7.33,8.129,7.428
		C8.17,7.61,8.212,7.793,8.251,7.976c0.007,0.031,0.011,0.067,0.008,0.099C8.258,8.096,8.243,8.122,8.226,8.131
		C7.9,8.32,7.616,8.563,7.346,8.824C7.25,8.915,7.16,9.01,7.062,9.107C6.684,8.727,6.31,8.353,5.932,7.973
		c-0.021,0.02-0.038,0.036-0.055,0.052C5.428,8.474,4.98,8.921,4.534,9.37C4.5,9.402,4.469,9.417,4.423,9.416
		c-0.271-0.001-0.54-0.001-0.808-0.001C3.548,9.413,3.483,9.41,3.442,9.348C3.442,9.313,3.442,9.275,3.442,9.24z"/>
	<path fill="#FFFFFF" d="M16.549,14.087c-0.023,0-0.047,0-0.072,0c-2.442,0-4.887,0-7.33-0.003c-0.041,0-0.089-0.014-0.122-0.039
		c-0.263-0.193-0.53-0.384-0.785-0.589c-0.433-0.353-0.709-0.81-0.861-1.339c-0.065-0.227-0.099-0.462-0.149-0.692
		c0-0.014,0-0.024,0-0.059c0.635,0,1.265,0,1.897,0c0.004-0.009,0.009-0.021,0.013-0.03c-0.405-0.411-0.81-0.818-1.222-1.238
		C8.07,9.977,8.217,9.85,8.376,9.736c0.195-0.139,0.4-0.266,0.602-0.399C9.02,9.311,9.049,9.313,9.086,9.348
		c0.164,0.147,0.323,0.305,0.5,0.433c0.388,0.278,0.814,0.485,1.289,0.563c1.053,0.178,2.004-0.049,2.822-0.754
		c0.109-0.094,0.217-0.188,0.332-0.285c0.164,0.11,0.332,0.217,0.49,0.331c0.996,0.702,1.631,1.646,1.897,2.839
		c0.117,0.521,0.146,1.053,0.14,1.588C16.557,14.066,16.553,14.074,16.549,14.087z"/>
	<path fill="#FFFFFF" d="M14.52,6.689c0.049,1.514-1.229,3.049-3.059,3.025C9.854,9.689,8.514,8.312,8.514,6.701
		c0-1.636,1.392-3.02,3.033-2.992C13.305,3.739,14.543,5.183,14.52,6.689z"/>
	<path fill="#FFFFFF" d="M7.443,6.647C7.242,6.619,7,6.605,6.768,6.55C6.381,6.458,6.054,6.246,5.769,5.967
		c-0.336-0.33-0.583-0.719-0.672-1.185c-0.29-1.545,0.766-2.696,1.996-2.856c1.074-0.14,2.077,0.437,2.501,1.447
		c0.034,0.08,0.063,0.162,0.088,0.245C9.716,3.733,9.7,3.76,9.595,3.816C9.473,3.881,9.347,3.937,9.232,4.013
		C8.705,4.365,8.354,4.858,8.113,5.438c-0.145,0.35-0.212,0.716-0.228,1.094C7.884,6.584,7.869,6.606,7.817,6.61
		C7.704,6.619,7.595,6.632,7.443,6.647z"/>
	<path fill="#FFFFFF" d="M5.745,8.98c0.681,0.65,1.354,1.291,2.027,1.934c-0.001,0.009-0.001,0.018-0.004,0.023
		c-0.388,0-0.773,0-1.171,0c0.007,0.112,0.011,0.209,0.016,0.303c0.025,0.465,0.105,0.92,0.277,1.354
		c0.232,0.581,0.624,1.037,1.108,1.425c0.018,0.016,0.038,0.028,0.058,0.043c0.002,0.004,0.004,0.008,0.014,0.031
		c-0.194-0.054-0.378-0.101-0.56-0.154c-0.496-0.152-0.958-0.373-1.368-0.695c-0.604-0.475-0.987-1.092-1.187-1.828
		c-0.035-0.129-0.068-0.259-0.098-0.389c-0.012-0.047-0.03-0.063-0.08-0.063c-0.308-0.006-0.615-0.019-0.922-0.026
		c-0.042-0.002-0.084-0.004-0.144-0.006C4.395,10.273,5.067,9.633,5.745,8.98z"/>
</g>
</svg>
