<?xml version="1.0" encoding="utf-8"?>
<!-- Generator: Adobe Illustrator 16.0.0, SVG Export Plug-In . SVG Version: 6.00 Build 0)  -->
<!DOCTYPE svg PUBLIC "-//W3C//DTD SVG 1.1//EN" "http://www.w3.org/Graphics/SVG/1.1/DTD/svg11.dtd" [
	<!ENTITY ns_extend "http://ns.adobe.com/Extensibility/1.0/">
	<!ENTITY ns_ai "http://ns.adobe.com/AdobeIllustrator/10.0/">
	<!ENTITY ns_graphs "http://ns.adobe.com/Graphs/1.0/">
	<!ENTITY ns_vars "http://ns.adobe.com/Variables/1.0/">
	<!ENTITY ns_imrep "http://ns.adobe.com/ImageReplacement/1.0/">
	<!ENTITY ns_sfw "http://ns.adobe.com/SaveForWeb/1.0/">
	<!ENTITY ns_custom "http://ns.adobe.com/GenericCustomNamespace/1.0/">
	<!ENTITY ns_adobe_xpath "http://ns.adobe.com/XPath/1.0/">
]>
<svg version="1.1" id="Capa_1" xmlns:x="&ns_extend;" xmlns:i="&ns_ai;" xmlns:graph="&ns_graphs;"
	 xmlns="http://www.w3.org/2000/svg" xmlns:xlink="http://www.w3.org/1999/xlink" x="0px" y="0px" width="20px" height="16px"
	 viewBox="0 0 20 16" enable-background="new 0 0 20 16" xml:space="preserve">
<metadata>
	<sfw  xmlns="&ns_sfw;">
		<slices></slices>
		<sliceSourceBounds  height="13.9" width="12.465" x="299.112" y="389.642" bottomLeftOrigin="true"></sliceSourceBounds>
	</sfw>
</metadata>
<g>
	<path fill="#FFFFFF" d="M8.162,5.507l-0.01-3.95h4.549v11.761H4.212V5.505L8.162,5.507z M3.612,5.305v8.013v0.601h0.599h8.49h0.6
		v-0.601V1.557V0.958h-0.6H7.996L3.612,5.305z"/>
	<rect x="5.067" y="7.271" fill="#FFFFFF" width="6.566" height="0.523"/>
	<rect x="5.067" y="9.085" fill="#FFFFFF" width="6.566" height="0.524"/>
	<rect x="5.067" y="10.902" fill="#FFFFFF" width="6.566" height="0.522"/>
</g>
<g>
	<circle fill="#FF0000" cx="13.661" cy="12.439" r="2.339"/>
	<path fill="#FFFFFF" d="M12.13,14.315c-0.06-0.051-0.117-0.104-0.174-0.16c-0.459-0.453-0.711-1.062-0.715-1.705
		c-0.007-1.334,1.074-2.422,2.406-2.43c1.336-0.004,2.425,1.076,2.43,2.407c0.002,0.646-0.244,1.257-0.699,1.716
		c-0.457,0.459-1.062,0.711-1.709,0.715C13.103,14.86,12.564,14.67,12.13,14.315z M15.144,10.625
		c-0.407-0.332-0.928-0.533-1.491-0.529c-0.629,0.004-1.216,0.25-1.657,0.693c-0.441,0.444-0.683,1.034-0.68,1.661
		c0.002,0.625,0.249,1.214,0.693,1.654c0.443,0.44,1.033,0.682,1.66,0.68s1.215-0.248,1.655-0.69
		c0.44-0.447,0.683-1.035,0.681-1.662l0,0C16.003,11.705,15.665,11.053,15.144,10.625z"/>
	<circle fill="#FFFFFF" cx="13.661" cy="12.439" r="2.083"/>
</g>
<path fill="none" stroke="#FF0000" stroke-width="0.6429" stroke-linecap="round" stroke-linejoin="round" d="M12.322,12.807
	l0.889,0.86l1.834-2.269"/>
</svg>
