<?xml version="1.0" encoding="utf-8"?>
<!-- Generator: Adobe Illustrator 16.0.0, SVG Export Plug-In . SVG Version: 6.00 Build 0)  -->
<!DOCTYPE svg PUBLIC "-//W3C//DTD SVG 1.1//EN" "http://www.w3.org/Graphics/SVG/1.1/DTD/svg11.dtd" [
	<!ENTITY ns_extend "http://ns.adobe.com/Extensibility/1.0/">
	<!ENTITY ns_ai "http://ns.adobe.com/AdobeIllustrator/10.0/">
	<!ENTITY ns_graphs "http://ns.adobe.com/Graphs/1.0/">
	<!ENTITY ns_vars "http://ns.adobe.com/Variables/1.0/">
	<!ENTITY ns_imrep "http://ns.adobe.com/ImageReplacement/1.0/">
	<!ENTITY ns_sfw "http://ns.adobe.com/SaveForWeb/1.0/">
	<!ENTITY ns_custom "http://ns.adobe.com/GenericCustomNamespace/1.0/">
	<!ENTITY ns_adobe_xpath "http://ns.adobe.com/XPath/1.0/">
]>
<svg version="1.1" id="Capa_1" xmlns:x="&ns_extend;" xmlns:i="&ns_ai;" xmlns:graph="&ns_graphs;"
	 xmlns="http://www.w3.org/2000/svg" xmlns:xlink="http://www.w3.org/1999/xlink" x="0px" y="0px" width="20px" height="16px"
	 viewBox="0 0 20 16" enable-background="new 0 0 20 16" xml:space="preserve">
<metadata>
	<sfw  xmlns="&ns_sfw;">
		<slices></slices>
		<sliceSourceBounds  height="13.606" width="13.606" x="298.697" y="389.697" bottomLeftOrigin="true"></sliceSourceBounds>
	</sfw>
</metadata>
<g id="graduation_hat-education-Bill-Invoice-Payment-Receipt">
	<path fill="#FFFFFF" d="M16.689,10.752l-0.567-0.33V2.331c0-0.626-0.507-1.134-1.133-1.134H6.145c-0.626,0-1.134,0.508-1.134,1.134
		v4.082H3.424c-0.125,0-0.227,0.101-0.227,0.227v1.814c0,0.625,0.508,1.133,1.134,1.133h2.494v0.438l-1.247,0.727
		c-0.072,0.043-0.116,0.119-0.114,0.202c0.002,0.084,0.05,0.159,0.125,0.195l0.329,0.165v1.706c-0.399,0.103-0.679,0.463-0.68,0.874
		v0.682c0,0.125,0.102,0.227,0.226,0.227h1.361c0.125,0,0.228-0.102,0.228-0.227v-0.682c-0.002-0.411-0.281-0.771-0.681-0.874
		v-1.479l0.454,0.228v0.992c0,0.125,0.102,0.228,0.228,0.228h1.133v0.226c0,0.744,1.482,1.135,2.948,1.135
		c1.465,0,2.948-0.391,2.948-1.135v-0.226h1.813c0.126,0,0.227-0.103,0.227-0.228v-1.333l0.556-0.279
		c0.075-0.036,0.124-0.111,0.125-0.195C16.805,10.871,16.762,10.795,16.689,10.752z M5.011,8.454c0,0.375-0.305,0.68-0.68,0.68
		c-0.376,0-0.681-0.305-0.681-0.68V6.867h1.361V8.454z M14.989,1.65c0.375,0.001,0.679,0.306,0.681,0.681v7.826l-4.422-2.579
		c-0.07-0.043-0.158-0.043-0.228,0L7.278,9.76V2.331c0-0.247-0.082-0.485-0.233-0.681H14.989z M5.231,9.134
		c0.151-0.195,0.233-0.435,0.233-0.68V2.331c0-0.376,0.305-0.681,0.681-0.68c0.375,0,0.68,0.304,0.68,0.68v6.803H5.231z
		 M6.599,13.895v0.455H5.691v-0.455c0.001-0.159,0.087-0.309,0.227-0.389v0.389h0.453v-0.389
		C6.511,13.586,6.598,13.735,6.599,13.895z M8.186,12.535H7.278v-0.54l0.908,0.454V12.535z M11.134,13.895
		c-1.615,0-2.494-0.448-2.494-0.68c0-0.23,0.879-0.68,2.494-0.68c1.614,0,2.495,0.449,2.495,0.68
		C13.629,13.446,12.748,13.895,11.134,13.895z M13.629,12.585c-0.551-0.331-1.524-0.503-2.495-0.503
		c-0.971,0-1.944,0.172-2.494,0.503v-1.638c0-0.23,0.879-0.681,2.494-0.681c1.614,0,2.495,0.45,2.495,0.681V12.585z M15.67,12.535
		h-1.588v-0.086l1.588-0.794V12.535z M14.082,11.941v-0.994c0-0.743-1.483-1.133-2.948-1.133c-1.466,0-2.948,0.39-2.948,1.133v0.994
		l-2.019-1.009l4.967-2.896l4.966,2.896L14.082,11.941z"/>
	<path fill="#FFFFFF" d="M10.227,2.558h4.536v0.454h-4.536V2.558z"/>
	<path fill="#FFFFFF" d="M10.227,3.691h4.536v0.454h-4.536V3.691z"/>
	<path fill="#FFFFFF" d="M10.227,4.826h4.536v0.453h-4.536V4.826z"/>
	<path fill="#FFFFFF" d="M8.186,5.96h6.577v0.453H8.186V5.96z"/>
	<path fill="#FFFFFF" d="M8.186,7.093h2.041v0.453H8.186V7.093z"/>
	<path fill="#FFFFFF" d="M8.413,5.053H8.64v0.226h0.453V5.053h0.226c0.126,0,0.228-0.102,0.228-0.227V3.918
		c0-0.125-0.101-0.227-0.228-0.227H8.64V3.238h0.453v0.227h0.454V3.012c0-0.125-0.101-0.227-0.228-0.227H9.093V2.558H8.64v0.227
		H8.413c-0.125,0-0.227,0.102-0.227,0.227v0.907c0,0.125,0.102,0.227,0.227,0.227h0.68v0.454H8.64V4.372H8.186v0.454
		C8.186,4.951,8.288,5.053,8.413,5.053z"/>
</g>
</svg>
