<?xml version="1.0" encoding="utf-8"?>
<!-- Generator: Adobe Illustrator 16.0.0, SVG Export Plug-In . SVG Version: 6.00 Build 0)  -->
<!DOCTYPE svg PUBLIC "-//W3C//DTD SVG 1.1//EN" "http://www.w3.org/Graphics/SVG/1.1/DTD/svg11.dtd" [
	<!ENTITY ns_extend "http://ns.adobe.com/Extensibility/1.0/">
	<!ENTITY ns_ai "http://ns.adobe.com/AdobeIllustrator/10.0/">
	<!ENTITY ns_graphs "http://ns.adobe.com/Graphs/1.0/">
	<!ENTITY ns_vars "http://ns.adobe.com/Variables/1.0/">
	<!ENTITY ns_imrep "http://ns.adobe.com/ImageReplacement/1.0/">
	<!ENTITY ns_sfw "http://ns.adobe.com/SaveForWeb/1.0/">
	<!ENTITY ns_custom "http://ns.adobe.com/GenericCustomNamespace/1.0/">
	<!ENTITY ns_adobe_xpath "http://ns.adobe.com/XPath/1.0/">
]>
<svg version="1.1" id="Capa_1" xmlns:x="&ns_extend;" xmlns:i="&ns_ai;" xmlns:graph="&ns_graphs;"
	 xmlns="http://www.w3.org/2000/svg" xmlns:xlink="http://www.w3.org/1999/xlink" x="0px" y="0px" width="72px" height="102px"
	 viewBox="0 0 72 102" enable-background="new 0 0 72 102" xml:space="preserve">
<metadata>
	<sfw  xmlns="&ns_sfw;">
		<slices></slices>
		<sliceSourceBounds  height="101.659" width="72" y="345.841" x="269.5" bottomLeftOrigin="true"></sliceSourceBounds>
	</sfw>
</metadata>
<path fill="#FF0000" d="M58.061,4.426C51.613,1.491,44.191,0,36.004,0C27.757,0,20.336,1.491,13.94,4.431
	c-1.059,0.487-1.525,1.745-1.038,2.808c0.487,1.063,1.745,1.525,2.809,1.038c5.836-2.681,12.665-4.041,20.293-4.041
	c7.578,0,14.406,1.36,20.302,4.045c0.283,0.127,0.584,0.19,0.877,0.19c0.805,0,1.575-0.458,1.927-1.241
	C59.594,6.167,59.123,4.909,58.061,4.426z"/>
<path fill="#FF0000" d="M67.167,21.81C58.581,13.084,47.801,8.472,35.996,8.472c-11.759,0-22.53,4.612-31.146,13.334
	C4.028,22.64,4.037,23.983,4.867,24.8c0.415,0.411,0.953,0.614,1.487,0.614c0.546,0,1.093-0.212,1.508-0.627
	c7.807-7.904,17.532-12.081,28.134-12.081c10.641,0,20.378,4.172,28.15,12.072c0.817,0.83,2.16,0.843,2.995,0.025
	C67.976,23.987,67.988,22.64,67.167,21.81z"/>
<path fill="#FF0000" d="M35.996,16.943c-3.024,0-6.023,0.373-8.92,1.114c-1.135,0.288-1.817,1.44-1.529,2.571
	c0.288,1.14,1.436,1.821,2.58,1.529c2.55-0.648,5.202-0.979,7.87-0.979c17.52,0,31.768,14.249,31.768,31.769
	c0,1.169,0.949,2.117,2.119,2.117c1.168,0,2.117-0.948,2.117-2.117C72,33.094,55.85,16.943,35.996,16.943z"/>
<path fill="#FF0000" d="M20.815,22.564c-0.593-1.012-1.894-1.347-2.897-0.758c-2.71,1.588-5.223,3.541-7.455,5.803
	C3.868,34.276,0.153,43.26,0,52.913c-0.021,1.173,0.915,2.131,2.084,2.151c0.013,0,0.025,0,0.034,0c1.157,0,2.101-0.928,2.118-2.084
	c0.136-8.552,3.414-16.506,9.238-22.39c1.978-2.004,4.193-3.728,6.582-5.125C21.065,24.872,21.404,23.572,20.815,22.564z"/>
<path fill="#FF0000" d="M56.751,34.869c-5.239-6.01-12.805-9.454-20.755-9.454c-7.387,0-14.317,2.897-19.51,8.154
	C11.314,38.8,8.468,45.865,8.468,53.582C8.48,58.136,7.057,63.6,4.507,68.853l-1.19,2.118c-0.572,1.021-0.212,2.313,0.809,2.885
	c0.33,0.182,0.686,0.271,1.038,0.271c0.741,0,1.457-0.39,1.847-1.08l1.25-2.228c2.923-6.023,4.46-11.988,4.443-17.35
	c0-6.481,2.415-12.492,6.794-16.922c4.396-4.448,10.255-6.896,16.498-6.896c6.722,0,13.127,2.914,17.561,8.006
	c0.775,0.881,2.109,0.966,2.99,0.203C57.429,37.088,57.518,35.754,56.751,34.869z"/>
<path fill="#FF0000" d="M67.463,77.366l-2.385-7.819c-1.342-6.125-1.457-11.979-1.529-15.473l-0.025-1.127
	c0-3.139-0.529-6.227-1.57-9.167c-0.387-1.102-1.598-1.677-2.703-1.292c-1.102,0.394-1.678,1.601-1.287,2.707
	c0.881,2.486,1.325,5.096,1.325,7.807l0.025,1.152c0.072,3.655,0.194,9.768,1.669,16.465l2.423,7.979
	c0.28,0.911,1.122,1.499,2.028,1.499c0.204,0,0.412-0.029,0.619-0.088C67.171,79.67,67.803,78.488,67.463,77.366z"/>
<path fill="#FF0000" d="M61.283,87.143l-1.965-6.303c-3.49-10.903-4.143-23.179-4.262-27.893c0-10.509-8.552-19.061-19.061-19.061
	c-10.509,0-19.057,8.683-19.057,19.429c0.004,2.228-0.407,14.003-9.348,26.901c-0.669,0.962-0.428,2.283,0.534,2.948
	c0.953,0.657,2.279,0.423,2.948-0.534c9.425-13.592,10.115-25.889,10.103-29.387c0-8.337,6.646-15.122,14.816-15.122
	c8.175,0,14.825,6.654,14.825,14.88c0.152,6.15,0.937,18.112,4.461,29.112l1.957,6.286c0.283,0.91,1.121,1.49,2.023,1.49
	c0.213,0,0.42-0.029,0.632-0.097C61.008,89.446,61.631,88.261,61.283,87.143z"/>
<path fill="#FF0000" d="M46.585,52.938c0-5.841-4.748-10.589-10.589-10.589c-5.841,0-10.589,4.752-10.589,10.67
	c0.025,0.703,0.492,17.341-12.957,34.848c-0.712,0.928-0.538,2.258,0.39,2.969c0.932,0.712,2.258,0.538,2.969-0.39
	c14.372-18.705,13.855-36.821,13.83-37.503c0-3.503,2.851-6.354,6.354-6.354c3.502,0,6.358,2.851,6.358,6.405
	c0.055,2.371,0.072,23.771-16.465,45.254c-0.711,0.928-0.542,2.254,0.386,2.97c0.39,0.296,0.843,0.441,1.292,0.441
	c0.635,0,1.266-0.284,1.681-0.835C46.695,78.154,46.648,55.404,46.585,52.938z"/>
<path fill="#FF0000" d="M38.109,52.854c-0.051-1.173-1.004-1.982-2.207-2.02c-1.169,0.051-2.076,1.042-2.025,2.207
	c0,0.03,0.119,3.126-0.669,8.035c-0.186,1.152,0.602,2.241,1.754,2.427c0.114,0.018,0.229,0.025,0.339,0.025
	c1.025,0,1.923-0.74,2.093-1.778C38.258,56.369,38.113,52.994,38.109,52.854z"/>
<path fill="#FF0000" d="M33.95,67.92c-1.119-0.317-2.3,0.31-2.635,1.432c-2.652,8.946-7.053,17.313-13.084,24.855
	c-0.729,0.916-0.58,2.246,0.334,2.979c0.39,0.309,0.86,0.461,1.322,0.461c0.623,0,1.237-0.275,1.652-0.791
	c6.375-7.98,11.03-16.829,13.838-26.305C35.712,69.428,35.072,68.251,33.95,67.92z"/>
<path fill="#FF0000" d="M54.473,93.306l-2.551-8.12c-1.016-3.037-1.965-6.256-1.969-6.265c-0.254-0.86-1.018-1.466-1.91-1.517
	c-0.938-0.102-1.725,0.467-2.072,1.287c-0.047,0.111-4.766,11.2-10.174,19.714c-0.627,0.987-0.335,2.3,0.652,2.923
	c0.352,0.224,0.746,0.33,1.135,0.33c0.699,0,1.385-0.348,1.783-0.975c3.278-5.158,6.248-11.08,8.188-15.206
	c0.115,0.339,0.225,0.683,0.34,1.017l2.537,8.078c0.347,1.113,1.533,1.744,2.655,1.389C54.201,95.609,54.824,94.42,54.473,93.306z"
	/>
</svg>
