<?xml version="1.0" encoding="utf-8"?>
<!-- Generator: Adobe Illustrator 16.0.0, SVG Export Plug-In . SVG Version: 6.00 Build 0)  -->
<!DOCTYPE svg PUBLIC "-//W3C//DTD SVG 1.1//EN" "http://www.w3.org/Graphics/SVG/1.1/DTD/svg11.dtd" [
	<!ENTITY ns_extend "http://ns.adobe.com/Extensibility/1.0/">
	<!ENTITY ns_ai "http://ns.adobe.com/AdobeIllustrator/10.0/">
	<!ENTITY ns_graphs "http://ns.adobe.com/Graphs/1.0/">
	<!ENTITY ns_vars "http://ns.adobe.com/Variables/1.0/">
	<!ENTITY ns_imrep "http://ns.adobe.com/ImageReplacement/1.0/">
	<!ENTITY ns_sfw "http://ns.adobe.com/SaveForWeb/1.0/">
	<!ENTITY ns_custom "http://ns.adobe.com/GenericCustomNamespace/1.0/">
	<!ENTITY ns_adobe_xpath "http://ns.adobe.com/XPath/1.0/">
]>
<svg version="1.1" id="Capa_1" xmlns:x="&ns_extend;" xmlns:i="&ns_ai;" xmlns:graph="&ns_graphs;"
	 xmlns="http://www.w3.org/2000/svg" xmlns:xlink="http://www.w3.org/1999/xlink" x="0px" y="0px" width="20px" height="16px"
	 viewBox="0 0 20 16" enable-background="new 0 0 20 16" xml:space="preserve">
<metadata>
	<sfw  xmlns="&ns_sfw;">
		<slices></slices>
		<sliceSourceBounds  height="13.605" width="10.425" x="300.288" y="389.697" bottomLeftOrigin="true"></sliceSourceBounds>
	</sfw>
</metadata>
<g>
	<g>
		<g>
			<path fill="#FFFFFF" d="M14.545,1.197h-9.09c-0.367,0-0.667,0.299-0.667,0.667v12.272c0,0.367,0.3,0.666,0.667,0.666H12.5
				c0.057,0,0.111-0.021,0.15-0.061l2.5-2.5c0.039-0.041,0.063-0.096,0.063-0.15V1.865C15.213,1.497,14.912,1.197,14.545,1.197z
				 M12.713,14.076v-1.531c0-0.133,0.107-0.24,0.242-0.24h1.529L12.713,14.076z M14.787,11.877h-1.832
				c-0.369,0-0.668,0.301-0.668,0.668v1.832H5.455c-0.133,0-0.24-0.107-0.24-0.24V1.865c0-0.133,0.107-0.241,0.24-0.241h9.09
				c0.133,0,0.242,0.108,0.242,0.241V11.877L14.787,11.877z"/>
		</g>
	</g>
	<g>
		<g>
			<path fill="#FFFFFF" d="M8.636,3.015H6.818c-0.117,0-0.213,0.096-0.213,0.213s0.096,0.213,0.213,0.213h0.697V5.5
				c0,0.119,0.095,0.213,0.213,0.213c0.117,0,0.213-0.094,0.213-0.213V3.441h0.695c0.118,0,0.213-0.095,0.213-0.213
				S8.754,3.015,8.636,3.015z"/>
		</g>
	</g>
	<g>
		<g>
			<path fill="#FFFFFF" d="M10.887,5.439l-0.634-2.11c-0.056-0.188-0.226-0.314-0.422-0.314H9.714c-0.195,0-0.365,0.126-0.422,0.314
				L8.66,5.439C8.625,5.553,8.69,5.672,8.802,5.705c0.113,0.033,0.231-0.031,0.266-0.143L9.159,5.26h1.229l0.091,0.303
				c0.028,0.092,0.112,0.152,0.204,0.152c0.02,0,0.041-0.004,0.061-0.01C10.855,5.672,10.92,5.553,10.887,5.439z M9.287,4.834
				l0.414-1.382c0.002-0.006,0.008-0.01,0.014-0.01h0.116c0.007,0,0.012,0.004,0.014,0.01l0.415,1.382H9.287z"/>
		</g>
	</g>
	<g>
		<g>
			<path fill="#FFFFFF" d="M13.129,5.379l-0.711-1.014l0.711-1.015c0.066-0.096,0.043-0.229-0.053-0.297s-0.229-0.044-0.297,0.052
				l-0.621,0.886l-0.621-0.886c-0.066-0.096-0.199-0.12-0.295-0.052c-0.098,0.067-0.121,0.201-0.053,0.297l0.709,1.015l-0.709,1.014
				c-0.068,0.096-0.045,0.229,0.053,0.297c0.037,0.025,0.078,0.037,0.121,0.037c0.066,0,0.133-0.031,0.174-0.09l0.621-0.887
				l0.621,0.887c0.041,0.059,0.107,0.09,0.176,0.09c0.041,0,0.084-0.012,0.121-0.037C13.172,5.607,13.195,5.475,13.129,5.379z"/>
		</g>
	</g>
	<g>
		<g>
			<path fill="#FFFFFF" d="M6.818,6.879H6.365c-0.118,0-0.214,0.096-0.214,0.213s0.096,0.213,0.214,0.213h0.453
				c0.118,0,0.214-0.096,0.214-0.213S6.936,6.879,6.818,6.879z"/>
		</g>
	</g>
	<g>
		<g>
			<path fill="#FFFFFF" d="M6.818,7.787H6.365C6.247,7.787,6.151,7.883,6.151,8s0.096,0.213,0.214,0.213h0.453
				c0.118,0,0.214-0.096,0.214-0.213S6.936,7.787,6.818,7.787z"/>
		</g>
	</g>
	<g>
		<g>
			<path fill="#FFFFFF" d="M6.818,8.697H6.365c-0.118,0-0.214,0.094-0.214,0.213c0,0.117,0.096,0.213,0.214,0.213h0.453
				c0.118,0,0.214-0.096,0.214-0.213C7.032,8.791,6.936,8.697,6.818,8.697z"/>
		</g>
	</g>
	<g>
		<g>
			<path fill="#FFFFFF" d="M13.637,6.879h-0.455c-0.117,0-0.213,0.096-0.213,0.213s0.096,0.213,0.213,0.213h0.455
				c0.117,0,0.213-0.096,0.213-0.213S13.754,6.879,13.637,6.879z"/>
		</g>
	</g>
	<g>
		<g>
			<path fill="#FFFFFF" d="M13.637,7.787h-0.455c-0.117,0-0.213,0.096-0.213,0.213s0.096,0.213,0.213,0.213h0.455
				c0.117,0,0.213-0.096,0.213-0.213S13.754,7.787,13.637,7.787z"/>
		</g>
	</g>
	<g>
		<g>
			<path fill="#FFFFFF" d="M13.637,8.697h-0.455c-0.117,0-0.213,0.094-0.213,0.213c0,0.117,0.096,0.213,0.213,0.213h0.455
				c0.117,0,0.213-0.096,0.213-0.213C13.85,8.791,13.754,8.697,13.637,8.697z"/>
		</g>
	</g>
	<g>
		<g>
			<path fill="#FFFFFF" d="M10.455,6.879H7.728c-0.118,0-0.213,0.096-0.213,0.213S7.61,7.305,7.728,7.305h2.727
				c0.118,0,0.213-0.096,0.213-0.213S10.572,6.879,10.455,6.879z"/>
		</g>
	</g>
	<g>
		<g>
			<path fill="#FFFFFF" d="M9.545,7.787H7.728C7.61,7.787,7.515,7.883,7.515,8S7.61,8.213,7.728,8.213h1.817
				c0.118,0,0.213-0.096,0.213-0.213S9.664,7.787,9.545,7.787z"/>
		</g>
	</g>
	<g>
		<g>
			<path fill="#FFFFFF" d="M10.455,8.697H7.728c-0.118,0-0.213,0.094-0.213,0.213c0,0.117,0.095,0.213,0.213,0.213h2.727
				c0.118,0,0.213-0.096,0.213-0.213C10.668,8.791,10.572,8.697,10.455,8.697z"/>
		</g>
	</g>
	<g>
		<g>
			<path fill="#FFFFFF" d="M7.259,11.486v-0.74c0.156,0.051,0.256,0.154,0.256,0.252c0,0.117,0.095,0.213,0.213,0.213
				c0.117,0,0.213-0.096,0.213-0.213c0-0.34-0.287-0.617-0.682-0.691v-0.033c0-0.117-0.096-0.213-0.213-0.213
				c-0.118,0-0.213,0.094-0.213,0.213v0.033c-0.396,0.074-0.683,0.352-0.683,0.691c0,0.475,0.38,0.674,0.683,0.789v0.74
				c-0.158-0.053-0.256-0.156-0.256-0.252c0-0.117-0.096-0.213-0.213-0.213c-0.118,0-0.214,0.096-0.214,0.213
				c0,0.34,0.286,0.617,0.683,0.691V13c0,0.117,0.095,0.213,0.213,0.213c0.117,0,0.213-0.096,0.213-0.213v-0.033
				c0.395-0.074,0.682-0.352,0.682-0.691C7.941,11.801,7.562,11.602,7.259,11.486z M6.833,11.322
				c-0.213-0.105-0.256-0.195-0.256-0.324c0-0.098,0.098-0.201,0.256-0.252V11.322z M7.259,12.527v-0.576
				c0.212,0.104,0.256,0.195,0.256,0.324C7.515,12.371,7.416,12.475,7.259,12.527z"/>
		</g>
	</g>
	<g>
		<g>
			<path fill="#FFFFFF" d="M10.227,10.514H8.636c-0.117,0-0.213,0.096-0.213,0.213c0,0.119,0.096,0.215,0.213,0.215h1.591
				c0.118,0,0.213-0.096,0.213-0.215C10.44,10.609,10.345,10.514,10.227,10.514z"/>
		</g>
	</g>
	<g>
		<g>
			<path fill="#FFFFFF" d="M9.545,12.332H8.636c-0.117,0-0.213,0.096-0.213,0.213s0.096,0.213,0.213,0.213h0.909
				c0.118,0,0.213-0.096,0.213-0.213S9.664,12.332,9.545,12.332z"/>
		</g>
	</g>
	<g>
		<g>
			<path fill="#FFFFFF" d="M10.908,12.332h-0.454c-0.118,0-0.213,0.096-0.213,0.213s0.095,0.213,0.213,0.213h0.454
				c0.119,0,0.213-0.096,0.213-0.213S11.027,12.332,10.908,12.332z"/>
		</g>
	</g>
	<g>
		<g>
			<path fill="#FFFFFF" d="M11.59,11.424H8.636c-0.117,0-0.213,0.096-0.213,0.213s0.096,0.213,0.213,0.213h2.954
				c0.119,0,0.215-0.096,0.215-0.213S11.709,11.424,11.59,11.424z"/>
		</g>
	</g>
	<g>
		<g>
			<circle fill="#FFFFFF" cx="10.455" cy="8" r="0.213"/>
		</g>
	</g>
	<g>
		<g>
			<circle fill="#FFFFFF" cx="11.363" cy="8" r="0.213"/>
		</g>
	</g>
	<g>
		<g>
			<circle fill="#FFFFFF" cx="12.271" cy="8" r="0.213"/>
		</g>
	</g>
	<g>
		<g>
			<circle fill="#FFFFFF" cx="11.363" cy="7.092" r="0.213"/>
		</g>
	</g>
	<g>
		<g>
			<circle fill="#FFFFFF" cx="12.271" cy="7.092" r="0.213"/>
		</g>
	</g>
	<g>
		<g>
			<circle fill="#FFFFFF" cx="11.363" cy="8.91" r="0.213"/>
		</g>
	</g>
	<g>
		<g>
			<circle fill="#FFFFFF" cx="12.271" cy="8.91" r="0.213"/>
		</g>
	</g>
</g>
</svg>
