<?xml version="1.0" encoding="utf-8"?>
<!-- Generator: Adobe Illustrator 16.0.0, SVG Export Plug-In . SVG Version: 6.00 Build 0)  -->
<!DOCTYPE svg PUBLIC "-//W3C//DTD SVG 1.1//EN" "http://www.w3.org/Graphics/SVG/1.1/DTD/svg11.dtd" [
	<!ENTITY ns_extend "http://ns.adobe.com/Extensibility/1.0/">
	<!ENTITY ns_ai "http://ns.adobe.com/AdobeIllustrator/10.0/">
	<!ENTITY ns_graphs "http://ns.adobe.com/Graphs/1.0/">
	<!ENTITY ns_vars "http://ns.adobe.com/Variables/1.0/">
	<!ENTITY ns_imrep "http://ns.adobe.com/ImageReplacement/1.0/">
	<!ENTITY ns_sfw "http://ns.adobe.com/SaveForWeb/1.0/">
	<!ENTITY ns_custom "http://ns.adobe.com/GenericCustomNamespace/1.0/">
	<!ENTITY ns_adobe_xpath "http://ns.adobe.com/XPath/1.0/">
]>
<svg version="1.1" id="Capa_1" xmlns:x="&ns_extend;" xmlns:i="&ns_ai;" xmlns:graph="&ns_graphs;"
	 xmlns="http://www.w3.org/2000/svg" xmlns:xlink="http://www.w3.org/1999/xlink" x="0px" y="0px" width="20px" height="16px"
	 viewBox="0 0 20 16" enable-background="new 0 0 20 16" xml:space="preserve">
<metadata>
	<sfw  xmlns="&ns_sfw;">
		<slices></slices>
		<sliceSourceBounds  height="13.039" width="13.039" x="298.98" y="389.98" bottomLeftOrigin="true"></sliceSourceBounds>
	</sfw>
</metadata>
<g id="Payment-Taxi-Service-Smartphone-Online_Payment">
	<path fill="#FFFFFF" d="M6.957,1.916h6.086c0.48,0,0.867,0.389,0.867,0.869v2.608h0.436V2.785c0-0.72-0.584-1.302-1.303-1.304
		H6.957C6.239,1.482,5.655,2.065,5.655,2.785h0.435C6.089,2.305,6.478,1.916,6.957,1.916z"/>
	<path fill="#FFFFFF" d="M14.346,11.477v1.74c0,0.719-0.584,1.303-1.303,1.303H6.957c-0.72,0-1.302-0.584-1.302-1.303V7.565h0.435
		v5.651c0,0.479,0.388,0.867,0.868,0.867h6.086c0.48,0,0.867-0.389,0.867-0.867v-1.74H14.346z"/>
	<path fill="#FFFFFF" d="M9.566,13.648h0.868c0.361,0,0.653-0.292,0.653-0.651s-0.292-0.651-0.653-0.651H9.566
		c-0.359,0-0.651,0.292-0.651,0.651S9.207,13.648,9.566,13.648z M9.566,12.781h0.868c0.122,0,0.219,0.097,0.219,0.216
		c0,0.121-0.098,0.22-0.219,0.22H9.566c-0.121,0-0.218-0.099-0.218-0.22C9.348,12.878,9.445,12.781,9.566,12.781z"/>
	<rect x="8.48" y="2.35" fill="#FFFFFF" width="0.435" height="0.435"/>
	<rect x="9.348" y="2.35" fill="#FFFFFF" width="1.305" height="0.435"/>
	<rect x="12.392" y="9.738" fill="#FFFFFF" width="1.303" height="0.434"/>
	<path fill="#FFFFFF" d="M16.52,8.652c0-0.359-0.292-0.651-0.651-0.652c-0.161,0-0.314,0.061-0.433,0.169l-0.231-0.462l-0.171-0.683
		c-0.05-0.193-0.223-0.328-0.422-0.328H14.13V6.045c0-0.121-0.099-0.218-0.22-0.218h-1.738c-0.117,0-0.216,0.097-0.216,0.218v0.651
		h-0.482c-0.2,0-0.373,0.135-0.42,0.328l-0.171,0.683l-0.233,0.462C10.533,8.062,10.379,8.001,10.218,8
		c-0.36,0-0.652,0.295-0.651,0.654C9.569,8.877,9.683,9.082,9.87,9.201C9.813,9.299,9.782,9.408,9.782,9.521v1.956
		c0.001,0.24,0.196,0.434,0.437,0.434h0.869c0.24,0,0.434-0.193,0.434-0.434v-0.434h3.043v0.434c0.003,0.24,0.195,0.434,0.434,0.434
		h0.871c0.238,0,0.432-0.193,0.434-0.434V9.521c0-0.112-0.029-0.222-0.087-0.319C16.403,9.084,16.52,8.876,16.52,8.652z
		 M12.392,6.262h1.303v0.434h-1.303V6.262z M11.474,7.131h3.138l0.107,0.434h-3.355L11.474,7.131z M11.222,8h3.641l0.436,0.869
		h-4.51L11.222,8z M10,8.652C10,8.533,10.097,8.437,10.214,8.436c0.108-0.001,0.198,0.075,0.216,0.18l-0.117,0.229
		c-0.028,0.016-0.063,0.025-0.094,0.025C10.097,8.869,10,8.772,10,8.652z M11.087,11.477h-0.869v-0.474
		c0.069,0.026,0.144,0.04,0.216,0.04h0.653V11.477z M15.868,11.477h-0.871v-0.434h0.651c0.076,0,0.148-0.014,0.22-0.04V11.477z
		 M15.868,10.392c0,0.119-0.099,0.216-0.22,0.216h-5.214c-0.119,0-0.216-0.097-0.216-0.216V9.521c0-0.119,0.097-0.216,0.216-0.216
		h5.214c0.121,0,0.22,0.097,0.22,0.216V10.392z M15.868,8.869c-0.035,0-0.067-0.01-0.096-0.025l-0.115-0.229
		c0.021-0.118,0.133-0.195,0.252-0.174c0.116,0.021,0.193,0.134,0.171,0.25C16.062,8.795,15.972,8.87,15.868,8.869z"/>
	<circle fill="#FFFFFF" cx="14.997" cy="9.956" r="0.436"/>
	<circle fill="#FFFFFF" cx="11.087" cy="9.956" r="0.436"/>
	<path fill="#FFFFFF" d="M10.434,6.696V3.654c0-0.24-0.193-0.435-0.434-0.435H3.915c-0.239,0-0.435,0.195-0.435,0.435v3.042
		c0,0.24,0.195,0.435,0.435,0.435H10C10.241,7.131,10.434,6.937,10.434,6.696z M8.933,6.696h-3.95
		C4.89,6.15,4.462,5.723,3.915,5.629V4.722C4.462,4.627,4.89,4.2,4.983,3.654h3.95C9.027,4.2,9.454,4.627,10,4.722V5.63
		C9.454,5.723,9.027,6.15,8.933,6.696z M10,4.275C9.696,4.196,9.458,3.958,9.377,3.654H10V4.275z M4.536,3.654
		C4.458,3.958,4.221,4.196,3.915,4.275V3.654H4.536z M3.915,6.075c0.306,0.08,0.542,0.318,0.621,0.621H3.915V6.075z M9.377,6.696
		C9.458,6.393,9.696,6.155,10,6.076v0.621H9.377z"/>
	<path fill="#FFFFFF" d="M6.957,4.089c-0.598,0-1.085,0.487-1.085,1.086c0,0.6,0.487,1.087,1.085,1.087
		c0.601,0,1.087-0.487,1.087-1.087C8.044,4.576,7.558,4.089,6.957,4.089z M6.957,5.827c-0.359,0-0.651-0.292-0.651-0.652
		c0-0.36,0.292-0.652,0.651-0.652c0.361,0,0.651,0.292,0.651,0.652C7.608,5.536,7.318,5.827,6.957,5.827z"/>
</g>
</svg>
