<?xml version="1.0" encoding="utf-8"?>
<!-- Generator: Adobe Illustrator 16.0.0, SVG Export Plug-In . SVG Version: 6.00 Build 0)  -->
<!DOCTYPE svg PUBLIC "-//W3C//DTD SVG 1.1//EN" "http://www.w3.org/Graphics/SVG/1.1/DTD/svg11.dtd" [
	<!ENTITY ns_extend "http://ns.adobe.com/Extensibility/1.0/">
	<!ENTITY ns_ai "http://ns.adobe.com/AdobeIllustrator/10.0/">
	<!ENTITY ns_graphs "http://ns.adobe.com/Graphs/1.0/">
	<!ENTITY ns_vars "http://ns.adobe.com/Variables/1.0/">
	<!ENTITY ns_imrep "http://ns.adobe.com/ImageReplacement/1.0/">
	<!ENTITY ns_sfw "http://ns.adobe.com/SaveForWeb/1.0/">
	<!ENTITY ns_custom "http://ns.adobe.com/GenericCustomNamespace/1.0/">
	<!ENTITY ns_adobe_xpath "http://ns.adobe.com/XPath/1.0/">
]>
<svg version="1.1" id="Capa_1" xmlns:x="&ns_extend;" xmlns:i="&ns_ai;" xmlns:graph="&ns_graphs;"
	 xmlns="http://www.w3.org/2000/svg" xmlns:xlink="http://www.w3.org/1999/xlink" x="0px" y="0px" width="20px" height="16px"
	 viewBox="0 0 20 16" enable-background="new 0 0 20 16" xml:space="preserve">
<metadata>
	<sfw  xmlns="&ns_sfw;">
		<slices></slices>
		<sliceSourceBounds  height="14.172" width="14.172" x="298.414" y="389.414" bottomLeftOrigin="true"></sliceSourceBounds>
	</sfw>
</metadata>
<g>
	<path fill="#FCFAFA" d="M11.181,12.729c-0.129,0-0.236,0.105-0.236,0.236v0.232H3.386V2.803h7.559v0.219
		c0,0.129,0.107,0.235,0.236,0.235c0.13,0,0.237-0.106,0.237-0.235V2.095c-0.001-0.651-0.53-1.181-1.182-1.182H4.096
		c-0.653,0.001-1.182,0.53-1.182,1.182v11.809c0,0.654,0.528,1.182,1.182,1.182h6.141c0.651,0,1.181-0.527,1.182-1.182v-0.939
		C11.418,12.834,11.311,12.729,11.181,12.729z M4.096,1.387h6.141c0.391,0,0.708,0.316,0.708,0.708v0.235H3.386V2.095
		C3.386,1.704,3.703,1.387,4.096,1.387z M10.236,14.613H4.096c-0.393,0-0.71-0.316-0.71-0.709V13.67h7.559v0.234
		C10.944,14.297,10.627,14.613,10.236,14.613z"/>
	<path fill="#FCFAFA" d="M7.4,2.095h0.474c0.132,0,0.236-0.106,0.236-0.236S8.006,1.623,7.874,1.623H7.4
		c-0.129,0-0.234,0.106-0.234,0.236S7.271,2.095,7.4,2.095z"/>
	<path fill="#FCFAFA" d="M7.639,13.904H6.692c-0.13,0-0.234,0.107-0.234,0.236c0,0.131,0.104,0.238,0.234,0.238h0.946
		c0.129,0,0.235-0.107,0.235-0.238C7.874,14.012,7.768,13.904,7.639,13.904z"/>
	<g>
		<path fill="#FCFAFA" d="M6.458,2.095h0.234c0.132,0,0.237-0.106,0.237-0.236S6.824,1.623,6.692,1.623H6.458
			c-0.132,0-0.237,0.106-0.237,0.236S6.326,2.095,6.458,2.095z"/>
		<path fill="#FCFAFA" d="M4.33,4.458V3.75h0.71V3.276H3.859v1.182H4.33z"/>
		<path fill="#FCFAFA" d="M3.859,11.543v1.182H5.04v-0.473H4.33v-0.709H3.859z"/>
		<path fill="#FCFAFA" d="M16.851,6.582h-4.725c-0.132,0-0.236,0.107-0.236,0.238V8H8.11C8.109,7.841,8.092,7.683,8.055,7.529H10
			c0.129,0,0.236-0.107,0.236-0.237v-3.07h2.139c0.132,1.166,1.182,2.007,2.349,1.878c1.168-0.132,2.008-1.183,1.878-2.35
			c-0.131-1.167-1.183-2.008-2.349-1.878c-0.988,0.111-1.766,0.89-1.878,1.878H10c-0.129,0-0.236,0.104-0.236,0.235v3.07H7.886
			c-0.52-1.053-1.798-1.483-2.849-0.961C3.983,6.615,3.552,7.89,4.074,8.943c0.52,1.051,1.797,1.482,2.849,0.963
			c0.248-0.123,0.47-0.293,0.653-0.502c0.02,0.008,0.04,0.012,0.063,0.014h2.125v2.598c0,0.131,0.107,0.236,0.236,0.236h1.89v1.18
			c0,0.131,0.104,0.238,0.236,0.238h4.725c0.13,0,0.235-0.107,0.235-0.238V10.6c0-0.006-0.003-0.012-0.003-0.018
			c-0.002-0.016-0.005-0.031-0.01-0.047c-0.003-0.014-0.009-0.029-0.016-0.043c-0.001-0.006-0.003-0.012-0.006-0.016
			c-0.005-0.01-0.011-0.014-0.018-0.021c-0.01-0.012-0.021-0.025-0.032-0.037c-0.012-0.008-0.024-0.014-0.038-0.023
			c-0.013-0.006-0.025-0.012-0.039-0.018c-0.016-0.006-0.032-0.008-0.048-0.01c-0.009-0.002-0.019-0.004-0.026-0.006h-4.725
			c-0.01,0.002-0.02,0.004-0.027,0.006c-0.017,0.002-0.031,0.006-0.046,0.01s-0.029,0.012-0.041,0.018
			c-0.013,0.01-0.027,0.018-0.037,0.025c-0.013,0.012-0.024,0.023-0.033,0.037c-0.006,0.006-0.011,0.012-0.018,0.02
			c-0.003,0.006-0.003,0.01-0.006,0.016c-0.007,0.014-0.012,0.029-0.017,0.045c-0.005,0.014-0.007,0.031-0.01,0.047
			c0,0.006-0.001,0.01-0.001,0.016v1.182h-1.654v-2.6c0-0.129-0.107-0.236-0.236-0.236H7.886c0.076-0.15,0.133-0.309,0.169-0.473
			h3.835v1.18c0,0.131,0.104,0.238,0.236,0.238h4.725c0.13,0,0.235-0.107,0.235-0.238V6.82C17.086,6.689,16.98,6.582,16.851,6.582
			L16.851,6.582z M14.488,2.331c0.913,0,1.652,0.741,1.652,1.654s-0.739,1.654-1.652,1.654s-1.654-0.741-1.654-1.654
			C12.835,3.072,13.576,2.333,14.488,2.331z M12.361,13.197v-2.182l2.005,1.203c0.074,0.045,0.168,0.045,0.244,0l2.004-1.203v2.182
			H12.361z M12.979,10.834h3.019l-1.509,0.906L12.979,10.834z M5.984,9.652C5.071,9.652,4.33,8.914,4.33,8
			c0-0.913,0.741-1.652,1.654-1.652S7.639,7.087,7.639,8C7.637,8.912,6.897,9.652,5.984,9.652z M16.614,7.055v0.474h-4.253V7.055
			H16.614z M12.361,9.418V8h4.253v1.417H12.361z"/>
		<path fill="#FCFAFA" d="M14.488,4.693c-0.131,0-0.237-0.105-0.237-0.235c0-0.131-0.104-0.236-0.235-0.236
			c-0.132,0-0.236,0.105-0.236,0.236c0.002,0.299,0.19,0.565,0.472,0.665v0.278h0.473V5.123c0.369-0.13,0.562-0.533,0.433-0.902
			c-0.101-0.283-0.369-0.472-0.668-0.471c-0.131,0-0.237-0.106-0.237-0.238c0-0.129,0.106-0.235,0.237-0.235
			c0.13,0,0.235,0.106,0.235,0.235c0,0.132,0.106,0.238,0.236,0.238s0.236-0.106,0.236-0.238c0-0.298-0.19-0.564-0.473-0.664V2.568
			h-0.473v0.279C13.884,2.978,13.689,3.38,13.82,3.75c0.099,0.283,0.366,0.473,0.668,0.472c0.13,0,0.235,0.105,0.235,0.236
			C14.724,4.587,14.618,4.693,14.488,4.693z"/>
		<path fill="#FCFAFA" d="M7.084,7.373c-0.092-0.093-0.24-0.093-0.333,0L5.749,8.374L5.248,7.875
			C5.156,7.78,5.008,7.778,4.914,7.868C4.819,7.958,4.817,8.109,4.907,8.203c0.003,0,0.004,0.004,0.007,0.005l0.667,0.669
			c0.092,0.092,0.242,0.092,0.335,0l1.168-1.17C7.176,7.615,7.176,7.465,7.084,7.373L7.084,7.373z"/>
	</g>
</g>
</svg>
