<?xml version="1.0" encoding="utf-8"?>
<!-- Generator: Adobe Illustrator 16.0.0, SVG Export Plug-In . SVG Version: 6.00 Build 0)  -->
<!DOCTYPE svg PUBLIC "-//W3C//DTD SVG 1.1//EN" "http://www.w3.org/Graphics/SVG/1.1/DTD/svg11.dtd" [
	<!ENTITY ns_extend "http://ns.adobe.com/Extensibility/1.0/">
	<!ENTITY ns_ai "http://ns.adobe.com/AdobeIllustrator/10.0/">
	<!ENTITY ns_graphs "http://ns.adobe.com/Graphs/1.0/">
	<!ENTITY ns_vars "http://ns.adobe.com/Variables/1.0/">
	<!ENTITY ns_imrep "http://ns.adobe.com/ImageReplacement/1.0/">
	<!ENTITY ns_sfw "http://ns.adobe.com/SaveForWeb/1.0/">
	<!ENTITY ns_custom "http://ns.adobe.com/GenericCustomNamespace/1.0/">
	<!ENTITY ns_adobe_xpath "http://ns.adobe.com/XPath/1.0/">
]>
<svg version="1.1" id="Capa_1" xmlns:x="&ns_extend;" xmlns:i="&ns_ai;" xmlns:graph="&ns_graphs;"
	 xmlns="http://www.w3.org/2000/svg" xmlns:xlink="http://www.w3.org/1999/xlink" x="0px" y="0px" width="20px" height="20px"
	 viewBox="0 0 20 20" enable-background="new 0 0 20 20" xml:space="preserve">
<metadata>
	<sfw  xmlns="&ns_sfw;">
		<slices></slices>
		<sliceSourceBounds  height="14.689" width="15.085" x="297.718" y="389.631" bottomLeftOrigin="true"></sliceSourceBounds>
	</sfw>
</metadata>
<g>
	<g>
		<path fill="#FF0000" d="M11.525,3.862c0,0.029,0,0.058,0,0.086c-0.002,0.028-0.004,0.057-0.008,0.085
			c-0.004,0.042-0.012,0.084-0.02,0.126c-0.008,0.045-0.02,0.089-0.027,0.133c-0.023,0.084-0.053,0.166-0.088,0.245
			c-0.004,0.011-0.01,0.022-0.016,0.033c-0.02,0.039-0.037,0.078-0.061,0.116c-0.006,0.011-0.012,0.022-0.02,0.033
			c-0.078,0.132-0.176,0.253-0.285,0.359c-0.011,0.011-0.021,0.021-0.031,0.031c-0.02,0.016-0.039,0.033-0.058,0.048
			c-0.013,0.011-0.024,0.021-0.038,0.031c-0.029,0.022-0.059,0.044-0.088,0.064c-0.004,0.003-0.008,0.005-0.014,0.009
			c-0.039,0.027-0.08,0.051-0.123,0.075c-0.037,0.021-0.076,0.04-0.115,0.058c-0.002,0.001-0.006,0.002-0.008,0.003
			c-0.078,0.035-0.159,0.064-0.244,0.087c-0.018,0.005-0.035,0.01-0.054,0.014c-0.084,0.02-0.171,0.034-0.26,0.04
			C9.945,5.541,9.917,5.542,9.888,5.543c-0.015,0-0.03,0-0.044,0c-0.014,0-0.029,0-0.043,0c-0.029,0-0.057-0.002-0.086-0.004
			c-0.089-0.006-0.176-0.02-0.26-0.04c-0.019-0.005-0.036-0.01-0.054-0.015C9.316,5.461,9.235,5.433,9.157,5.397
			C9.155,5.396,9.152,5.395,9.15,5.394C9.114,5.378,9.08,5.361,9.045,5.342C8.999,5.317,8.955,5.29,8.911,5.261
			C8.906,5.258,8.902,5.255,8.897,5.252C8.868,5.232,8.838,5.21,8.81,5.188c-0.013-0.01-0.026-0.02-0.038-0.031
			c-0.02-0.016-0.039-0.032-0.057-0.048C8.694,5.09,8.674,5.07,8.655,5.051C8.556,4.953,8.469,4.84,8.397,4.719
			c-0.006-0.011-0.013-0.021-0.02-0.033c-0.02-0.038-0.04-0.076-0.058-0.115C8.313,4.56,8.308,4.549,8.303,4.538
			C8.268,4.459,8.24,4.378,8.218,4.293C8.206,4.249,8.196,4.205,8.188,4.16C8.181,4.118,8.175,4.076,8.17,4.034
			C8.168,4.005,8.166,3.977,8.164,3.948C8.163,3.919,8.163,3.891,8.163,3.862c0-0.03,0.005-0.058,0.007-0.087
			c0-0.018,0.008-0.035,0.008-0.052l0,0c0-0.011-0.004-0.022-0.002-0.033c0.001-0.01,0-0.021,0.001-0.032
			C8.181,3.626,8.184,3.595,8.19,3.563C8.198,3.519,8.207,3.474,8.218,3.43C8.24,3.347,8.269,3.264,8.303,3.186
			C8.307,3.18,8.309,3.174,8.311,3.168c0.003-0.005,0.005-0.011,0.008-0.017c0.019-0.039,0.038-0.078,0.059-0.115
			c0.007-0.011,0.013-0.022,0.02-0.033C8.476,2.871,8.573,2.75,8.683,2.645c0.011-0.01,0.021-0.02,0.032-0.03
			c0.019-0.017,0.038-0.033,0.057-0.049C8.784,2.555,8.797,2.545,8.81,2.535c0.028-0.022,0.058-0.043,0.087-0.064
			C8.901,2.468,8.906,2.465,8.91,2.462c0.077-0.051,0.156-0.095,0.24-0.133c0.002-0.001,0.005-0.001,0.007-0.003
			c0.079-0.035,0.16-0.064,0.244-0.087C9.419,2.234,9.436,2.23,9.455,2.225c0.084-0.02,0.171-0.034,0.26-0.041
			C9.744,2.182,9.772,2.18,9.801,2.18c0.014,0,0.029,0,0.043,0c0.014,0,0.029,0,0.044,0c0.028,0,0.057,0.002,0.086,0.004
			c0.088,0.007,0.176,0.021,0.26,0.041c0.019,0.004,0.036,0.009,0.054,0.014c0.084,0.023,0.166,0.052,0.245,0.087
			c0.002,0.001,0.005,0.002,0.007,0.003c0.084,0.038,0.163,0.083,0.239,0.133c0.005,0.003,0.009,0.006,0.013,0.009
			c0.03,0.021,0.06,0.042,0.088,0.064c0.015,0.01,0.024,0.02,0.038,0.031c0.02,0.016,0.038,0.032,0.059,0.049
			c0.01,0.01,0.021,0.02,0.03,0.03c0.11,0.106,0.207,0.227,0.285,0.359c0.008,0.011,0.015,0.022,0.021,0.033
			c0.021,0.038,0.041,0.076,0.06,0.115c0.006,0.011,0.012,0.022,0.017,0.034c0.034,0.079,0.063,0.161,0.086,0.244
			c0.012,0.044,0.021,0.089,0.028,0.134c0.009,0.042,0.015,0.084,0.019,0.126c0.002,0.013,0.004,0.026,0.004,0.04
			c0.002,0.015,0.002,0.03,0.004,0.045C11.525,3.804,11.525,3.832,11.525,3.862z"/>
		<path fill="#FF0000" d="M8.167,3.722L8.167,3.722L8.167,3.722L8.167,3.722L8.167,3.722z M8.137,3.707
			c0.002,0,0.003,0.001,0.005,0.002C8.15,3.713,8.155,3.718,8.167,3.722C8.166,3.72,8.164,3.719,8.162,3.718
			C8.155,3.714,8.145,3.71,8.137,3.707z"/>
		<path fill="#FF0000" d="M8.137,3.707C8.145,3.71,8.155,3.714,8.162,3.718c-0.007-0.003-0.014-0.007-0.021-0.01
			C8.14,3.708,8.139,3.707,8.137,3.707z"/>
		<path fill="#FF0000" d="M8.168,3.722L8.168,3.722L8.168,3.722z"/>
	</g>
	<path fill="#FF0000" d="M12.625,7.154v1.742c0,0.036,0.002,0.042-0.033,0.042H7.096c-0.035,0-0.064-0.006-0.064-0.042V7.154
		c0-0.028-0.002-0.056,0-0.084c0.02-0.414,0.186-0.791,0.446-1.073C7.485,5.988,7.492,5.98,7.5,5.972
		c0.13-0.135,0.281-0.248,0.448-0.331c0.011-0.005,0.02-0.01,0.031-0.015C8.025,5.605,8.072,5.585,8.12,5.569
		c0.011-0.004,0.022-0.007,0.032-0.011C8.195,5.543,8.24,5.531,8.284,5.521c0.055,0.053,0.112,0.102,0.171,0.148
		c0.151,0.119,0.316,0.217,0.491,0.295c0.033,0.014,0.066,0.028,0.099,0.041c0.129,0.05,0.261,0.088,0.395,0.112
		c0.132,0.024,0.267,0.037,0.402,0.037c0.156,0,0.308-0.014,0.458-0.046c0.019-0.004,0.038-0.011,0.056-0.011l0,0
		c0.028,0,0.056,0,0.083,0l0,0c0.075,0,0.144-0.058,0.215-0.085C10.684,6,10.711,5.975,10.738,5.963
		c0.139-0.061,0.268-0.142,0.389-0.233l0,0c0.014,0,0.025-0.012,0.039-0.022c0.08-0.059,0.156-0.12,0.229-0.19
		c0.689,0.161,1.201,0.792,1.236,1.552C12.634,7.097,12.625,7.126,12.625,7.154z"/>
</g>
<g>
	<g>
		<path fill="#FF0000" d="M6.725,11.799c0,0.027,0,0.057-0.002,0.086c-0.002,0.027-0.004,0.057-0.006,0.086
			c-0.004,0.041-0.011,0.084-0.018,0.125c-0.008,0.045-0.018,0.09-0.029,0.133c-0.022,0.084-0.051,0.166-0.085,0.244
			c-0.005,0.012-0.011,0.021-0.015,0.035c-0.02,0.039-0.04,0.076-0.06,0.113c-0.007,0.012-0.013,0.023-0.02,0.035
			c-0.079,0.131-0.175,0.252-0.286,0.357c-0.011,0.012-0.022,0.02-0.032,0.027c-0.019,0.02-0.037,0.035-0.057,0.051
			c-0.013,0.012-0.025,0.021-0.039,0.031c-0.028,0.021-0.058,0.041-0.087,0.063c-0.004,0-0.009,0.004-0.013,0.008
			c-0.04,0.025-0.081,0.053-0.123,0.074c-0.038,0.021-0.077,0.041-0.117,0.061c-0.002,0-0.004,0.002-0.007,0.002
			c-0.079,0.037-0.16,0.064-0.244,0.088c-0.019,0.004-0.036,0.012-0.055,0.016c-0.084,0.021-0.171,0.033-0.26,0.041
			c-0.029,0.002-0.057,0.004-0.086,0.004c-0.014,0-0.029,0-0.044,0c-0.014,0-0.028,0-0.043,0c-0.028,0-0.057-0.002-0.086-0.004
			c-0.089-0.008-0.176-0.021-0.26-0.041C4.635,13.43,4.617,13.424,4.6,13.42c-0.085-0.021-0.166-0.051-0.245-0.088
			c-0.002,0-0.005-0.002-0.007-0.002c-0.036-0.016-0.07-0.033-0.104-0.053c-0.046-0.025-0.091-0.051-0.135-0.08
			c-0.004-0.004-0.008-0.008-0.013-0.008c-0.03-0.023-0.059-0.043-0.088-0.064c-0.013-0.012-0.025-0.021-0.038-0.031
			c-0.019-0.016-0.038-0.033-0.057-0.051c-0.02-0.018-0.04-0.037-0.06-0.057c-0.1-0.102-0.186-0.211-0.258-0.33
			c-0.007-0.012-0.013-0.023-0.019-0.035c-0.021-0.037-0.042-0.074-0.059-0.113c-0.006-0.014-0.011-0.023-0.015-0.035
			c-0.035-0.078-0.063-0.16-0.086-0.244c-0.012-0.043-0.022-0.088-0.03-0.133c-0.007-0.041-0.013-0.084-0.017-0.125
			c-0.003-0.029-0.005-0.059-0.007-0.086c-0.001-0.029-0.002-0.059-0.002-0.086c0-0.031,0-0.061,0.001-0.088
			c0-0.018,0.002-0.035,0.002-0.053l0,0c0-0.012,0.003-0.023,0.004-0.033s0.002-0.021,0.004-0.031
			c0.003-0.031,0.009-0.063,0.014-0.094c0.008-0.045,0.019-0.09,0.03-0.135c0.022-0.084,0.051-0.166,0.085-0.244
			c0.002-0.006,0.005-0.01,0.008-0.018c0.002-0.004,0.005-0.012,0.008-0.018c0.018-0.039,0.038-0.078,0.059-0.113
			c0.006-0.012,0.012-0.023,0.019-0.033c0.079-0.133,0.175-0.254,0.286-0.359c0.011-0.01,0.021-0.02,0.032-0.031
			c0.019-0.016,0.038-0.031,0.057-0.047c0.013-0.011,0.025-0.021,0.038-0.032c0.029-0.021,0.058-0.044,0.088-0.063
			c0.004-0.004,0.008-0.007,0.013-0.008c0.076-0.053,0.155-0.096,0.239-0.134c0.002-0.001,0.005-0.003,0.007-0.004
			c0.079-0.034,0.16-0.063,0.245-0.088c0.017-0.004,0.036-0.008,0.053-0.013c0.084-0.02,0.171-0.034,0.26-0.041
			c0.029-0.001,0.058-0.003,0.086-0.004c0.015,0,0.029,0,0.043,0c0.015,0,0.03,0,0.044,0c0.029,0.001,0.057,0.003,0.086,0.004
			c0.088,0.007,0.176,0.021,0.26,0.041c0.019,0.005,0.036,0.009,0.055,0.013c0.083,0.023,0.165,0.054,0.244,0.088
			c0.002,0.001,0.005,0.003,0.007,0.004c0.084,0.038,0.164,0.081,0.239,0.134c0.004,0.001,0.009,0.004,0.013,0.008
			c0.029,0.02,0.059,0.041,0.087,0.063c0.014,0.011,0.026,0.021,0.039,0.032c0.02,0.016,0.038,0.031,0.057,0.047
			c0.01,0.012,0.021,0.021,0.032,0.031c0.111,0.105,0.208,0.227,0.286,0.359c0.006,0.01,0.012,0.021,0.02,0.033
			c0.021,0.035,0.04,0.074,0.059,0.113c0.004,0.014,0.01,0.021,0.015,0.033c0.034,0.078,0.063,0.158,0.085,0.244
			c0.012,0.045,0.021,0.09,0.029,0.135c0.007,0.041,0.014,0.082,0.018,0.125c0,0.016,0.002,0.023,0.003,0.041
			c0.001,0.018,0.002,0.027,0.003,0.045C6.725,11.738,6.725,11.768,6.725,11.799z"/>
		<path fill="#FF0000" d="M3.366,11.658L3.366,11.658L3.366,11.658L3.366,11.658L3.366,11.658z M3.335,11.643
			c0.002,0,0.003,0,0.005,0.002c0.008,0.004,0.014,0.008,0.026,0.016c-0.001-0.002-0.003-0.004-0.005-0.004
			C3.353,11.65,3.343,11.646,3.335,11.643z"/>
		<path fill="#FF0000" d="M3.335,11.643c0.008,0.004,0.018,0.008,0.025,0.014c-0.006-0.006-0.014-0.008-0.021-0.012
			C3.338,11.643,3.337,11.643,3.335,11.643z"/>
		<path fill="#FF0000" d="M3.367,11.658L3.367,11.658L3.367,11.658z"/>
	</g>
	<path fill="#FF0000" d="M7.857,15.09v1.742c0,0.035-0.032,0.037-0.065,0.037H2.295c-0.035,0-0.077-0.002-0.077-0.037V15.09
		c0-0.027,0.004-0.057,0.006-0.084c0.02-0.414,0.189-0.791,0.449-1.074c0.008-0.008,0.017-0.016,0.024-0.021
		c0.13-0.137,0.282-0.248,0.449-0.33c0.01-0.006,0.021-0.014,0.03-0.018c0.046-0.021,0.094-0.041,0.142-0.059
		c0.011-0.002,0.021-0.008,0.032-0.01c0.043-0.016,0.087-0.027,0.132-0.039c0.055,0.055,0.111,0.102,0.17,0.148
		c0.151,0.119,0.316,0.219,0.491,0.297c0.034,0.014,0.066,0.025,0.1,0.039c0.129,0.051,0.261,0.088,0.395,0.111
		c0.132,0.023,0.266,0.035,0.402,0.035c0.156,0,0.309-0.018,0.458-0.047c0.019-0.004,0.038-0.016,0.056-0.016l0,0
		c0.028,0,0.056,0,0.083,0l0,0c0.072,0,0.144-0.055,0.215-0.082c0.028-0.012,0.056-0.035,0.083-0.051
		c0.137-0.061,0.266-0.143,0.387-0.232l0,0c0.014,0,0.027-0.012,0.041-0.021c0.079-0.061,0.156-0.119,0.229-0.188
		c0.69,0.158,1.217,0.793,1.253,1.553C7.849,15.031,7.857,15.063,7.857,15.09z"/>
</g>
<g>
	<g>
		<path fill="#FF0000" d="M16.193,11.768c0,0.031-0.002,0.061-0.004,0.088c0,0.029-0.004,0.059-0.006,0.084
			c-0.004,0.043-0.012,0.086-0.02,0.127c-0.008,0.045-0.02,0.092-0.027,0.135c-0.021,0.084-0.053,0.166-0.087,0.244
			c-0.006,0.012-0.011,0.021-0.016,0.033c-0.021,0.039-0.038,0.078-0.06,0.115c-0.008,0.01-0.015,0.021-0.021,0.033
			c-0.079,0.133-0.175,0.252-0.286,0.359c-0.01,0.008-0.021,0.02-0.031,0.029c-0.02,0.018-0.037,0.031-0.057,0.049
			c-0.014,0.01-0.025,0.021-0.039,0.029c-0.027,0.021-0.059,0.045-0.088,0.063c-0.004,0.004-0.01,0.008-0.014,0.01
			c-0.039,0.026-0.08,0.053-0.121,0.076c-0.039,0.021-0.078,0.039-0.117,0.057c-0.002,0.002-0.004,0.002-0.008,0.005
			c-0.078,0.032-0.159,0.063-0.243,0.088c-0.019,0.004-0.036,0.008-0.054,0.015c-0.086,0.018-0.172,0.032-0.263,0.041
			c-0.026,0-0.057,0.002-0.086,0.002c-0.014,0.002-0.026,0.002-0.044,0.002c-0.014,0-0.027,0-0.043-0.002
			c-0.027,0-0.059-0.002-0.086-0.002c-0.089-0.009-0.176-0.023-0.262-0.041c-0.018-0.007-0.035-0.011-0.055-0.015
			c-0.084-0.022-0.166-0.056-0.244-0.088c-0.002-0.003-0.004-0.003-0.006-0.005c-0.037-0.016-0.068-0.032-0.104-0.051
			c-0.045-0.024-0.092-0.054-0.135-0.082c-0.006-0.002-0.01-0.006-0.014-0.01c-0.031-0.021-0.06-0.041-0.088-0.063
			c-0.014-0.01-0.023-0.021-0.039-0.029c-0.02-0.018-0.037-0.031-0.057-0.049c-0.02-0.021-0.04-0.037-0.061-0.061
			c-0.101-0.1-0.188-0.209-0.258-0.33c-0.007-0.012-0.014-0.021-0.021-0.033c-0.021-0.035-0.041-0.074-0.062-0.113
			c-0.004-0.014-0.01-0.023-0.015-0.033c-0.034-0.08-0.063-0.162-0.085-0.246c-0.012-0.043-0.021-0.088-0.031-0.133
			c-0.007-0.041-0.012-0.084-0.017-0.127c-0.003-0.027-0.005-0.057-0.007-0.084c-0.002-0.029-0.002-0.059-0.002-0.088
			c0-0.027-0.012-0.059-0.01-0.086c0-0.02-0.012-0.035-0.012-0.055l0,0c0-0.01,0.016-0.021,0.018-0.033
			c0-0.01,0.008-0.021,0.01-0.029c0.004-0.031,0.012-0.063,0.018-0.096c0.008-0.045,0.021-0.09,0.031-0.133
			c0.021-0.086,0.053-0.166,0.086-0.244c0.002-0.006,0.006-0.014,0.008-0.018c0.002-0.008,0.006-0.014,0.008-0.02
			c0.02-0.039,0.039-0.078,0.062-0.115c0.006-0.012,0.013-0.021,0.021-0.031c0.079-0.135,0.176-0.252,0.286-0.359
			c0.011-0.01,0.021-0.02,0.03-0.027c0.021-0.02,0.037-0.035,0.059-0.049c0.014-0.01,0.023-0.021,0.038-0.03
			c0.027-0.021,0.058-0.043,0.089-0.064c0.004-0.002,0.008-0.006,0.012-0.009c0.076-0.05,0.156-0.094,0.238-0.133
			c0.004,0,0.006-0.001,0.008-0.003c0.078-0.036,0.16-0.064,0.244-0.088c0.018-0.004,0.034-0.01,0.053-0.013
			c0.086-0.021,0.173-0.034,0.262-0.041c0.027-0.003,0.059-0.004,0.086-0.004c0.016,0,0.029-0.001,0.043-0.001
			c0.016,0,0.03,0.001,0.044,0.001c0.029,0,0.058,0.001,0.087,0.004c0.088,0.007,0.176,0.02,0.26,0.041
			c0.02,0.003,0.035,0.009,0.056,0.013c0.084,0.023,0.165,0.052,0.243,0.088c0.004,0.002,0.006,0.003,0.008,0.003
			c0.084,0.039,0.164,0.083,0.236,0.133c0.006,0.003,0.012,0.007,0.016,0.009c0.027,0.021,0.061,0.043,0.088,0.064
			c0.014,0.01,0.023,0.021,0.039,0.03c0.02,0.017,0.037,0.032,0.056,0.049c0.013,0.01,0.021,0.02,0.032,0.027
			c0.109,0.107,0.207,0.229,0.286,0.359c0.006,0.012,0.013,0.021,0.021,0.031c0.021,0.037,0.041,0.076,0.06,0.115
			c0.005,0.012,0.01,0.021,0.016,0.035c0.034,0.078,0.063,0.158,0.085,0.244c0.012,0.043,0.021,0.088,0.029,0.133
			c0.008,0.041,0.014,0.084,0.02,0.125c0,0.014,0.002,0.027,0.002,0.039c0.002,0.016,0.002,0.031,0.004,0.047
			C16.191,11.711,16.193,11.74,16.193,11.768z"/>
		<path fill="#FF0000" d="M12.834,11.629L12.834,11.629L12.834,11.629L12.834,11.629L12.834,11.629z M12.803,11.613
			c0.002,0,0.004,0.002,0.004,0.002c0.008,0.004,0.018,0.01,0.027,0.014c-0.002-0.002-0.004-0.002-0.006-0.004
			C12.82,11.621,12.811,11.617,12.803,11.613z"/>
		<path fill="#FF0000" d="M12.803,11.613c0.008,0.004,0.018,0.008,0.025,0.012c-0.006-0.004-0.014-0.006-0.021-0.01
			C12.807,11.615,12.805,11.613,12.803,11.613z"/>
		<path fill="#FF0000" d="M12.834,11.629L12.834,11.629L12.834,11.629z"/>
	</g>
	<path fill="#FF0000" d="M17.302,15.061v1.742c0,0.035-0.009,0.066-0.043,0.066h-5.497c-0.033,0-0.054-0.031-0.054-0.066v-1.742
		c0-0.025-0.007-0.057-0.005-0.082c0.02-0.416,0.182-0.793,0.443-1.072c0.008-0.012,0.013-0.02,0.021-0.025
		c0.13-0.135,0.28-0.248,0.448-0.33c0.01-0.006,0.02-0.01,0.029-0.016c0.047-0.021,0.094-0.039,0.143-0.059
		c0.01-0.006,0.02-0.008,0.031-0.012c0.043-0.016,0.086-0.025,0.133-0.037c0.055,0.051,0.109,0.104,0.17,0.148
		c0.15,0.119,0.316,0.217,0.49,0.293c0.033,0.016,0.066,0.029,0.1,0.043c0.129,0.051,0.262,0.088,0.396,0.111
		c0.131,0.023,0.266,0.037,0.4,0.037c0.155,0,0.309-0.025,0.457-0.061c0.021-0.002,0.037-0.021,0.057-0.021l0,0
		c0.027,0,0.057,0,0.084,0l0,0c0.071,0,0.146-0.045,0.217-0.071c0.027-0.013,0.055-0.021,0.082-0.031
		c0.138-0.063,0.267-0.125,0.388-0.217l0,0c0.015,0,0.026-0.025,0.041-0.033c0.079-0.062,0.155-0.127,0.229-0.194
		c0.688,0.157,1.205,0.788,1.239,1.547C17.305,15.006,17.302,15.033,17.302,15.061z"/>
</g>
<path fill="#FF0000" d="M9.807,9.355H9.709c-0.156,0-0.282,0.127-0.282,0.281v2.333c0,0.154,0.126,0.281,0.282,0.281h0.098
	c0.155,0,0.281-0.127,0.281-0.281V9.636C10.088,9.482,9.962,9.355,9.807,9.355z"/>
<path fill="#FF0000" d="M9.525,11.67l-0.053,0.066c-0.099,0.125-0.078,0.307,0.045,0.406l1.812,1.439
	c0.123,0.1,0.306,0.078,0.405-0.047l0.052-0.066c0.101-0.121,0.077-0.305-0.046-0.402l-1.81-1.441
	C9.807,11.525,9.624,11.547,9.525,11.67z"/>
<path fill="#FF0000" d="M7.66,13.537l-0.052-0.066c-0.099-0.123-0.078-0.305,0.046-0.404l1.81-1.439
	c0.124-0.102,0.308-0.078,0.406,0.045l0.053,0.064c0.099,0.125,0.079,0.309-0.045,0.406l-1.812,1.441
	C7.942,13.682,7.76,13.662,7.66,13.537z"/>
</svg>
