<?xml version="1.0" encoding="utf-8"?>
<!-- Generator: Adobe Illustrator 16.0.0, SVG Export Plug-In . SVG Version: 6.00 Build 0)  -->
<!DOCTYPE svg PUBLIC "-//W3C//DTD SVG 1.1//EN" "http://www.w3.org/Graphics/SVG/1.1/DTD/svg11.dtd" [
	<!ENTITY ns_extend "http://ns.adobe.com/Extensibility/1.0/">
	<!ENTITY ns_ai "http://ns.adobe.com/AdobeIllustrator/10.0/">
	<!ENTITY ns_graphs "http://ns.adobe.com/Graphs/1.0/">
	<!ENTITY ns_vars "http://ns.adobe.com/Variables/1.0/">
	<!ENTITY ns_imrep "http://ns.adobe.com/ImageReplacement/1.0/">
	<!ENTITY ns_sfw "http://ns.adobe.com/SaveForWeb/1.0/">
	<!ENTITY ns_custom "http://ns.adobe.com/GenericCustomNamespace/1.0/">
	<!ENTITY ns_adobe_xpath "http://ns.adobe.com/XPath/1.0/">
]>
<svg version="1.1" id="Capa_1" xmlns:x="&ns_extend;" xmlns:i="&ns_ai;" xmlns:graph="&ns_graphs;"
	 xmlns="http://www.w3.org/2000/svg" xmlns:xlink="http://www.w3.org/1999/xlink" x="0px" y="0px" width="20px" height="16px"
	 viewBox="0 0 20 16" enable-background="new 0 0 20 16" xml:space="preserve">
<metadata>
	<sfw  xmlns="&ns_sfw;">
		<slices></slices>
		<sliceSourceBounds  height="11.339" width="15.449" x="297.775" y="390.83" bottomLeftOrigin="true"></sliceSourceBounds>
	</sfw>
</metadata>
<g>
	<path fill="#FFFFFF" d="M2.278,7.999c0,1.435-0.004,2.867,0.001,4.3c0.004,1,0.357,1.352,1.351,1.361
		c0.213,0.002,0.428,0.01,0.642-0.004c0.684-0.045,1.082-0.412,1.086-1.1c0.016-3.039,0.016-6.078,0-9.117
		c-0.004-0.688-0.402-1.057-1.086-1.1C4.014,2.325,3.756,2.331,3.5,2.337C2.67,2.36,2.288,2.734,2.281,3.569
		C2.27,5.046,2.278,6.522,2.278,7.999z"/>
	<path fill="#FFFFFF" d="M6.396,9.063c0,1.112-0.008,2.225,0.002,3.338c0.009,0.875,0.381,1.242,1.256,1.259
		c0.258,0.007,0.516,0.015,0.77-0.005c0.648-0.049,1.044-0.418,1.051-1.068c0.018-2.374,0.018-4.749-0.001-7.122
		c-0.007-0.65-0.407-1.016-1.057-1.063c-0.275-0.02-0.556-0.014-0.833-0.004C6.792,4.425,6.409,4.8,6.4,5.599
		C6.384,6.753,6.396,7.909,6.396,9.063z"/>
	<path fill="#FFFFFF" d="M13.602,10.029c0-0.793,0.012-1.583-0.002-2.374c-0.016-0.797-0.395-1.172-1.186-1.199
		c-0.277-0.01-0.557-0.015-0.834,0.005c-0.648,0.046-1.047,0.412-1.055,1.06c-0.023,1.689-0.023,3.377,0,5.067
		c0.008,0.648,0.402,1.02,1.049,1.066c0.299,0.02,0.6,0.017,0.896,0.004c0.719-0.035,1.104-0.409,1.125-1.129
		C13.617,11.697,13.6,10.861,13.602,10.029z"/>
	<path fill="#FFFFFF" d="M17.717,11.045c0.002-0.468,0.018-0.939-0.002-1.408c-0.029-0.716-0.412-1.086-1.131-1.119
		c-0.277-0.015-0.557-0.015-0.832,0c-0.691,0.037-1.092,0.396-1.109,1.073c-0.026,1.002-0.026,2.009,0,3.011
		c0.021,0.646,0.412,1.01,1.063,1.054c0.317,0.02,0.642,0.021,0.961-0.001c0.644-0.047,1.017-0.418,1.047-1.069
		C17.736,12.072,17.717,11.559,17.717,11.045z"/>
</g>
</svg>
