<?xml version="1.0" encoding="utf-8"?>
<!-- Generator: Adobe Illustrator 16.0.0, SVG Export Plug-In . SVG Version: 6.00 Build 0)  -->
<!DOCTYPE svg PUBLIC "-//W3C//DTD SVG 1.1//EN" "http://www.w3.org/Graphics/SVG/1.1/DTD/svg11.dtd" [
	<!ENTITY ns_extend "http://ns.adobe.com/Extensibility/1.0/">
	<!ENTITY ns_ai "http://ns.adobe.com/AdobeIllustrator/10.0/">
	<!ENTITY ns_graphs "http://ns.adobe.com/Graphs/1.0/">
	<!ENTITY ns_vars "http://ns.adobe.com/Variables/1.0/">
	<!ENTITY ns_imrep "http://ns.adobe.com/ImageReplacement/1.0/">
	<!ENTITY ns_sfw "http://ns.adobe.com/SaveForWeb/1.0/">
	<!ENTITY ns_custom "http://ns.adobe.com/GenericCustomNamespace/1.0/">
	<!ENTITY ns_adobe_xpath "http://ns.adobe.com/XPath/1.0/">
]>
<svg version="1.1" id="Capa_1" xmlns:x="&ns_extend;" xmlns:i="&ns_ai;" xmlns:graph="&ns_graphs;"
	 xmlns="http://www.w3.org/2000/svg" xmlns:xlink="http://www.w3.org/1999/xlink" x="0px" y="0px" width="35px" height="44px"
	 viewBox="0 0 35 44" enable-background="new 0 0 35 44" xml:space="preserve">
<metadata>
	<sfw  xmlns="&ns_sfw;">
		<slices></slices>
		<sliceSourceBounds  height="36.85" width="30.422" y="378.445" x="290.289" bottomLeftOrigin="true"></sliceSourceBounds>
	</sfw>
</metadata>
<g>
	<g>
		<path fill="#FF0000" d="M26.681,12.342c0,0.159-0.003,0.308-0.015,0.477c-0.013,0.148-0.014,0.297-0.036,0.456
			c-0.025,0.235-0.053,0.457-0.092,0.689c-0.049,0.245-0.101,0.479-0.164,0.721c-0.115,0.457-0.278,0.904-0.458,1.327
			c-0.025,0.063-0.063,0.116-0.088,0.18c-0.102,0.213-0.203,0.423-0.329,0.626c-0.026,0.063-0.064,0.12-0.091,0.184
			c-0.432,0.718-0.963,1.378-1.561,1.949c-0.051,0.052-0.114,0.103-0.166,0.164c-0.112,0.09-0.215,0.178-0.315,0.269
			c-0.065,0.049-0.14,0.112-0.203,0.163c-0.165,0.127-0.318,0.23-0.482,0.345c-0.015,0.013-0.051,0.037-0.064,0.049
			c-0.216,0.142-0.443,0.281-0.673,0.408c-0.204,0.112-0.407,0.228-0.634,0.315c-0.002,0.002-0.015,0.002-0.038,0.015
			c-0.421,0.19-0.863,0.354-1.322,0.48c-0.088,0.015-0.189,0.052-0.291,0.076c-0.458,0.103-0.938,0.179-1.409,0.218
			c-0.164,0.012-0.316,0.012-0.47,0.024c-0.088,0-0.165,0-0.24,0c-0.077,0-0.154,0-0.229,0c-0.165-0.013-0.317-0.013-0.47-0.024
			c-0.493-0.039-0.963-0.115-1.42-0.218c-0.102-0.024-0.19-0.062-0.292-0.076c-0.457-0.127-0.901-0.29-1.333-0.48
			c-0.002-0.013-0.015-0.013-0.038-0.015c-0.179-0.088-0.381-0.176-0.561-0.279c-0.253-0.139-0.494-0.278-0.723-0.444
			c-0.037-0.012-0.052-0.036-0.077-0.049c-0.165-0.114-0.317-0.218-0.48-0.345c-0.065-0.051-0.129-0.114-0.205-0.163
			c-0.102-0.091-0.214-0.179-0.304-0.269c-0.115-0.112-0.228-0.203-0.331-0.312c-0.544-0.539-1.014-1.147-1.407-1.802
			c-0.027-0.063-0.064-0.12-0.102-0.184c-0.104-0.203-0.217-0.413-0.318-0.626c-0.026-0.063-0.051-0.116-0.088-0.18
			c-0.179-0.423-0.343-0.87-0.458-1.327c-0.063-0.242-0.116-0.476-0.164-0.721C8.5,13.732,8.475,13.51,8.438,13.275
			c-0.001-0.159-0.016-0.308-0.026-0.456c-0.013-0.169-0.013-0.318-0.013-0.477s-0.063-0.317-0.051-0.466
			c0.001-0.095-0.053-0.203-0.053-0.288l0,0c0-0.063,0.078-0.127,0.079-0.179c0.01-0.063,0.05-0.117,0.063-0.17
			c0.014-0.169,0.062-0.34,0.089-0.509c0.039-0.244,0.103-0.501,0.166-0.733c0.126-0.457,0.29-0.904,0.47-1.33
			C9.173,8.642,9.197,8.61,9.21,8.572c0.013-0.025,0.026-0.054,0.039-0.085c0.102-0.21,0.215-0.425,0.318-0.629
			c0.037-0.054,0.074-0.12,0.102-0.177c0.431-0.721,0.963-1.378,1.561-1.952c0.052-0.054,0.114-0.105,0.178-0.163
			c0.09-0.091,0.202-0.177,0.304-0.26c0.076-0.06,0.14-0.117,0.205-0.17c0.163-0.128,0.315-0.238,0.48-0.344
			c0.025-0.021,0.04-0.038,0.077-0.05c0.405-0.28,0.838-0.521,1.283-0.725c0.023-0.006,0.036-0.012,0.038-0.021
			c0.432-0.187,0.876-0.346,1.333-0.474c0.102-0.025,0.19-0.047,0.292-0.075c0.457-0.105,0.927-0.179,1.42-0.222
			c0.152-0.006,0.305-0.016,0.47-0.02c0.075,0,0.152,0,0.229,0c0.075,0,0.152,0,0.24,0c0.153,0.004,0.306,0.014,0.47,0.02
			c0.471,0.043,0.951,0.117,1.409,0.222c0.102,0.028,0.203,0.05,0.291,0.075c0.459,0.128,0.901,0.287,1.322,0.474
			c0.023,0.01,0.036,0.015,0.038,0.021c0.457,0.204,0.888,0.444,1.307,0.725c0.014,0.012,0.05,0.028,0.064,0.05
			c0.164,0.105,0.317,0.216,0.482,0.344c0.063,0.054,0.138,0.111,0.203,0.17c0.101,0.083,0.203,0.169,0.315,0.26
			c0.052,0.052,0.114,0.109,0.166,0.163c0.598,0.574,1.129,1.231,1.561,1.952c0.026,0.057,0.064,0.124,0.091,0.177
			c0.126,0.204,0.228,0.419,0.329,0.629c0.025,0.06,0.063,0.124,0.088,0.181c0.18,0.425,0.343,0.873,0.458,1.33
			c0.063,0.232,0.115,0.489,0.164,0.733c0.039,0.222,0.066,0.445,0.092,0.679c0.013,0.073,0.022,0.137,0.022,0.222
			c0.001,0.073,0.013,0.16,0.014,0.245C26.678,12.025,26.681,12.184,26.681,12.342z"/>
		<path fill="#FF0000" d="M8.435,11.588h0.002c0,0,0,0,0.001,0l0,0C8.437,11.588,8.435,11.588,8.435,11.588z M8.27,11.504
			c0.002,0,0.003,0,0.016,0c0.048,0.032,0.075,0.052,0.149,0.083c-0.013-0.01-0.023-0.02-0.036-0.02
			C8.358,11.546,8.31,11.514,8.27,11.504z"/>
		<path fill="#FF0000" d="M8.27,11.504c0.04,0.01,0.089,0.042,0.129,0.063c-0.038-0.022-0.075-0.043-0.113-0.063
			C8.272,11.504,8.271,11.504,8.27,11.504z"/>
		<rect x="8.437" y="11.587" fill="#FF0000" width="0" height="0.001"/>
	</g>
	<path fill="#FF0000" d="M32.698,30.223v9.464c0,0.199-0.045,0.368-0.235,0.368H2.614c-0.195,0-0.299-0.169-0.299-0.368v-9.464
		c0-0.139-0.031-0.303-0.025-0.444c0.104-2.26,0.992-4.302,2.406-5.839c0.044-0.039,0.069-0.09,0.114-0.139
		c0.704-0.724,1.519-1.334,2.433-1.778c0.051-0.05,0.102-0.064,0.165-0.089c0.252-0.127,0.506-0.217,0.763-0.317
		c0.061-0.024,0.114-0.049,0.178-0.063c0.229-0.075,0.47-0.139,0.722-0.202c0.292,0.28,0.599,0.557,0.916,0.811
		c0.836,0.647,1.725,1.17,2.677,1.601c0.178,0.088,0.356,0.153,0.533,0.217c0.7,0.278,1.422,0.481,2.147,0.621
		c0.722,0.127,1.447,0.19,2.183,0.19c0.85,0,1.676-0.14,2.5-0.306c0.09-0.024,0.202-0.114,0.304-0.114l0,0c0.142,0,0.293,0,0.446,0
		l0,0c0.404,0,0.785-0.265,1.167-0.406c0.164-0.063,0.305-0.112,0.458-0.176c0.747-0.33,1.446-0.662,2.095-1.17c0,0,0,0,0.012,0
		c0.064,0,0.151-0.127,0.216-0.188c0.433-0.317,0.851-0.687,1.245-1.055c3.743,0.864,6.55,4.279,6.742,8.416
		C32.711,29.933,32.698,30.084,32.698,30.223z"/>
</g>
</svg>
