<?xml version="1.0" encoding="utf-8"?>
<!-- Generator: Adobe Illustrator 16.0.0, SVG Export Plug-In . SVG Version: 6.00 Build 0)  -->
<!DOCTYPE svg PUBLIC "-//W3C//DTD SVG 1.1//EN" "http://www.w3.org/Graphics/SVG/1.1/DTD/svg11.dtd" [
	<!ENTITY ns_extend "http://ns.adobe.com/Extensibility/1.0/">
	<!ENTITY ns_ai "http://ns.adobe.com/AdobeIllustrator/10.0/">
	<!ENTITY ns_graphs "http://ns.adobe.com/Graphs/1.0/">
	<!ENTITY ns_vars "http://ns.adobe.com/Variables/1.0/">
	<!ENTITY ns_imrep "http://ns.adobe.com/ImageReplacement/1.0/">
	<!ENTITY ns_sfw "http://ns.adobe.com/SaveForWeb/1.0/">
	<!ENTITY ns_custom "http://ns.adobe.com/GenericCustomNamespace/1.0/">
	<!ENTITY ns_adobe_xpath "http://ns.adobe.com/XPath/1.0/">
]>
<svg version="1.1" id="Capa_1" xmlns:x="&ns_extend;" xmlns:i="&ns_ai;" xmlns:graph="&ns_graphs;"
	 xmlns="http://www.w3.org/2000/svg" xmlns:xlink="http://www.w3.org/1999/xlink" x="0px" y="0px" width="12px" height="12px"
	 viewBox="0 0 12 12" enable-background="new 0 0 12 12" xml:space="preserve">
<metadata>
	<sfw  xmlns="&ns_sfw;">
		<slices></slices>
		<sliceSourceBounds  height="10.488" width="10.488" x="300.256" y="391.256" bottomLeftOrigin="true"></sliceSourceBounds>
	</sfw>
</metadata>
<g>
	<circle fill="#FFFFFF" cx="6" cy="6" r="5.244"/>
	<circle fill="#FFFFFF" cx="6" cy="6" r="4.158"/>
	<polygon fill="#FFFFFF" points="6.455,6 8.715,3.81 6.093,5.575 	"/>
	<polygon fill="#FFFFFF" points="5.518,6.092 4.119,4.918 5.831,5.617 	"/>
	
		<rect x="5.769" y="7.251" transform="matrix(-0.7148 -0.6993 0.6993 -0.7148 7.2626 17.539)" fill="#FFFFFF" width="2.877" height="0.075"/>
	<rect x="5.946" y="1.842" fill="#FFFFFF" width="0.169" height="0.426"/>
	
		<rect x="7.927" y="2.35" transform="matrix(-0.8638 -0.5039 0.5039 -0.8638 13.5858 8.6627)" fill="#FFFFFF" width="0.075" height="0.29"/>
	
		<rect x="9.416" y="3.805" transform="matrix(-0.5003 -0.8659 0.8659 -0.5003 10.7626 14.1138)" fill="#FFFFFF" width="0.076" height="0.292"/>
	
		<rect x="9.458" y="7.827" transform="matrix(0.507 -0.8619 0.8619 0.507 -2.1897 12.1149)" fill="#FFFFFF" width="0.077" height="0.29"/>
	
		<rect x="8.001" y="9.313" transform="matrix(0.8675 -0.4975 0.4975 0.8675 -3.64 5.2531)" fill="#FFFFFF" width="0.077" height="0.29"/>
	
		<rect x="3.979" y="9.347" transform="matrix(0.8619 0.507 -0.507 0.8619 5.3679 -0.7264)" fill="#FFFFFF" width="0.077" height="0.292"/>
	
		<rect x="2.498" y="7.886" transform="matrix(0.4975 0.8675 -0.8675 0.4975 8.241 1.8358)" fill="#FFFFFF" width="0.077" height="0.291"/>
	
		<rect x="2.474" y="3.864" transform="matrix(-0.507 0.8619 -0.8619 -0.507 7.2421 3.8774)" fill="#FFFFFF" width="0.077" height="0.291"/>
	
		<rect x="3.942" y="2.388" transform="matrix(-0.8729 0.4878 -0.4878 -0.8729 8.69 2.803)" fill="#FFFFFF" width="0.076" height="0.29"/>
	<rect x="5.946" y="9.732" fill="#FFFFFF" width="0.169" height="0.426"/>
	<rect x="9.73" y="5.916" fill="#FFFFFF" width="0.428" height="0.168"/>
	<rect x="1.842" y="5.916" fill="#FFFFFF" width="0.425" height="0.168"/>
	<circle fill="#FFFFFF" cx="6" cy="6" r="0.479"/>
	<circle fill="#FFFFFF" cx="6" cy="6" r="0.322"/>
</g>
</svg>
