<?xml version="1.0" encoding="utf-8"?>
<!-- Generator: Adobe Illustrator 16.0.0, SVG Export Plug-In . SVG Version: 6.00 Build 0)  -->
<!DOCTYPE svg PUBLIC "-//W3C//DTD SVG 1.1//EN" "http://www.w3.org/Graphics/SVG/1.1/DTD/svg11.dtd" [
	<!ENTITY ns_extend "http://ns.adobe.com/Extensibility/1.0/">
	<!ENTITY ns_ai "http://ns.adobe.com/AdobeIllustrator/10.0/">
	<!ENTITY ns_graphs "http://ns.adobe.com/Graphs/1.0/">
	<!ENTITY ns_vars "http://ns.adobe.com/Variables/1.0/">
	<!ENTITY ns_imrep "http://ns.adobe.com/ImageReplacement/1.0/">
	<!ENTITY ns_sfw "http://ns.adobe.com/SaveForWeb/1.0/">
	<!ENTITY ns_custom "http://ns.adobe.com/GenericCustomNamespace/1.0/">
	<!ENTITY ns_adobe_xpath "http://ns.adobe.com/XPath/1.0/">
]>
<svg version="1.1" id="Capa_1" xmlns:x="&ns_extend;" xmlns:i="&ns_ai;" xmlns:graph="&ns_graphs;"
	 xmlns="http://www.w3.org/2000/svg" xmlns:xlink="http://www.w3.org/1999/xlink" x="0px" y="0px" width="24px" height="24px"
	 viewBox="0 0 24 24" enable-background="new 0 0 24 24" xml:space="preserve">
<metadata>
	<sfw  xmlns="&ns_sfw;">
		<slices></slices>
		<sliceSourceBounds  height="18" width="15" y="387.5" x="298.012" bottomLeftOrigin="true"></sliceSourceBounds>
	</sfw>
</metadata>
<path fill="#FF0000" d="M19.046,15.685c-1.134-0.958-1.784-2.359-1.784-3.844V9.75c0-2.639-1.961-4.824-4.5-5.19V3.75
	c0-0.415-0.336-0.75-0.75-0.75s-0.75,0.335-0.75,0.75v0.81c-2.541,0.366-4.5,2.551-4.5,5.19v2.091c0,1.484-0.65,2.886-1.791,3.85
	c-0.292,0.25-0.459,0.613-0.459,0.997C4.512,17.411,5.101,18,5.824,18h12.375c0.724,0,1.313-0.589,1.313-1.313
	C19.512,16.304,19.345,15.94,19.046,15.685z"/>
<path fill="#FF0000" d="M12.012,21c1.358,0,2.494-0.969,2.756-2.25H9.256C9.517,20.031,10.653,21,12.012,21z"/>
</svg>
