<?xml version="1.0" encoding="utf-8"?>
<!-- Generator: Adobe Illustrator 16.0.0, SVG Export Plug-In . SVG Version: 6.00 Build 0)  -->
<!DOCTYPE svg PUBLIC "-//W3C//DTD SVG 1.1//EN" "http://www.w3.org/Graphics/SVG/1.1/DTD/svg11.dtd" [
	<!ENTITY ns_extend "http://ns.adobe.com/Extensibility/1.0/">
	<!ENTITY ns_ai "http://ns.adobe.com/AdobeIllustrator/10.0/">
	<!ENTITY ns_graphs "http://ns.adobe.com/Graphs/1.0/">
	<!ENTITY ns_vars "http://ns.adobe.com/Variables/1.0/">
	<!ENTITY ns_imrep "http://ns.adobe.com/ImageReplacement/1.0/">
	<!ENTITY ns_sfw "http://ns.adobe.com/SaveForWeb/1.0/">
	<!ENTITY ns_custom "http://ns.adobe.com/GenericCustomNamespace/1.0/">
	<!ENTITY ns_adobe_xpath "http://ns.adobe.com/XPath/1.0/">
]>
<svg version="1.1" id="Capa_1" xmlns:x="&ns_extend;" xmlns:i="&ns_ai;" xmlns:graph="&ns_graphs;"
	 xmlns="http://www.w3.org/2000/svg" xmlns:xlink="http://www.w3.org/1999/xlink" x="0px" y="0px" width="30px" height="30px"
	 viewBox="0 0 30 30" enable-background="new 0 0 30 30" xml:space="preserve">
<metadata>
	<sfw  xmlns="&ns_sfw;">
		<slices></slices>
		<sliceSourceBounds  height="18.424" width="25.693" x="292.653" y="387.289" bottomLeftOrigin="true"></sliceSourceBounds>
	</sfw>
</metadata>
<path fill="#FF0000" d="M27.846,8.397c0,2.525,0,5.051,0,7.576c-0.018,0.049-0.043,0.094-0.051,0.139
	c-0.197,1.219-1.07,2.171-2.271,2.419c-0.396,0.081-0.813,0.075-1.225,0.085c-0.582,0.015-1.164,0.005-1.717,0.005
	c-0.098,0.237-0.164,0.45-0.266,0.647c-0.371,0.729-0.754,1.451-1.141,2.176c-0.275,0.524-0.66,0.965-1.137,1.316
	c-0.9,0.672-1.922,0.557-2.523-0.049c-0.01-0.006-0.029-0.003-0.029-0.003c-0.207,0.241-0.395,0.493-0.617,0.7
	c-0.234,0.213-0.49,0.408-0.766,0.563c-0.952,0.529-2.046,0.156-2.497-0.83c-0.029-0.065-0.06-0.132-0.068-0.146
	c-0.439,0.065-0.848,0.171-1.26,0.178c-0.795,0.015-1.218-0.313-1.453-1.042c-0.004-0.014-0.025-0.021-0.049-0.039
	c-0.889,0.317-1.819,0.455-2.768,0.458c-1.597,0.007-3.194,0.009-4.79,0.011c-0.109,0-0.217-0.017-0.322-0.041
	c-0.433-0.104-0.626-0.432-0.744-0.822c0-3.146,0-6.289,0-9.435c0.123-0.403,0.415-0.671,0.726-0.928
	c0.22-0.181,0.427-0.375,0.644-0.56c1.211-1.029,2.409-2.071,3.639-3.077c0.35-0.288,0.767-0.511,1.188-0.683
	c0.768-0.311,1.509-0.14,2.217,0.274c0.056-0.081,0.107-0.154,0.158-0.229c0.543-0.817,1.295-1.266,2.287-1.269
	c3.98-0.002,7.958-0.006,11.941,0.005c1.311,0.002,2.461,0.933,2.783,2.197C27.773,8.128,27.811,8.263,27.846,8.397z M10.04,9.062
	C9.895,9.033,9.755,9.039,9.654,8.979c-0.479-0.284-0.862-0.074-1.235,0.21C8.345,9.245,8.267,9.294,8.197,9.354
	c-1.32,1.133-2.642,2.263-3.953,3.404C4.161,12.83,4.12,12.989,4.12,13.109c-0.006,2.399-0.005,4.8-0.005,7.2c0,0.09,0,0.178,0,0.27
	C4.18,20.589,4.212,20.6,4.244,20.6c1.48-0.016,2.959-0.007,4.438-0.058c1.175-0.039,2.164-0.524,3.001-1.369
	c0.924-0.93,1.898-1.812,2.849-2.715c0.375-0.356,0.767-0.701,1.112-1.085c0.219-0.244,0.396-0.537,0.537-0.836
	c0.141-0.305-0.072-0.577-0.41-0.566c-0.166,0.004-0.343,0.017-0.495,0.077c-0.663,0.273-1.333,0.533-1.971,0.856
	c-1.111,0.56-2.203,1.157-3.3,1.745c-0.382,0.205-0.767,0.25-1.13-0.016c-0.616-0.447-0.545-1.272,0.14-1.676
	c0.266-0.155,0.538-0.305,0.819-0.433c0.189-0.086,0.24-0.208,0.238-0.41c-0.014-1.62-0.018-3.242-0.025-4.864
	C10.049,9.194,10.045,9.137,10.04,9.062z M25.883,11.718c-4.631,0-9.232,0-13.839,0c0,0.541,0,1.063,0,1.583
	c0.03,0.004,0.049,0.012,0.061,0.007c0.134-0.068,0.268-0.136,0.4-0.206c0.92-0.48,1.846-0.931,2.895-1.074
	c1.625-0.222,2.95,1.045,2.756,2.671c-0.066,0.569-0.336,1.06-0.668,1.52c-0.094,0.133-0.191,0.26-0.322,0.432
	c0.146,0,0.229,0,0.311,0c2.408,0,4.818,0.002,7.229,0c0.799,0,1.18-0.383,1.18-1.188c0.004-1.154,0-2.308,0-3.462
	C25.883,11.912,25.883,11.822,25.883,11.718z M25.859,8.738c-0.027-0.626-0.438-0.995-1.082-0.996c-3.887,0-7.773,0-11.659,0.001
	c-0.092,0-0.186,0.003-0.275,0.021c-0.496,0.1-0.84,0.53-0.779,0.974C16.656,8.738,21.25,8.738,25.859,8.738z M16.438,18.63
	c-0.104,0.261-0.188,0.498-0.295,0.722c-0.373,0.775-0.769,1.541-1.125,2.321c-0.097,0.216-0.125,0.482-0.117,0.724
	c0.012,0.354,0.242,0.463,0.555,0.293c0.399-0.22,0.687-0.555,0.899-0.953c0.453-0.854,0.9-1.715,1.348-2.571
	c0.088-0.168,0.16-0.341,0.25-0.533C17.414,18.63,16.916,18.63,16.438,18.63z M19.5,18.631c-0.068,0.186-0.119,0.361-0.197,0.525
	c-0.234,0.506-0.502,0.998-0.717,1.513c-0.094,0.228-0.129,0.496-0.121,0.744c0.008,0.347,0.268,0.485,0.549,0.278
	c0.297-0.217,0.605-0.469,0.791-0.777c0.434-0.721,0.797-1.482,1.188-2.229c0.004-0.013-0.008-0.03-0.012-0.057
	C20.482,18.631,19.982,18.631,19.5,18.631z M14.702,19.01c-0.012-0.006-0.024-0.011-0.036-0.017
	c-0.853,0.798-1.71,1.589-2.549,2.399c-0.087,0.086-0.064,0.297-0.065,0.448c0,0.032,0.112,0.089,0.177,0.097
	c0.542,0.071,1.174-0.269,1.415-0.754c0.285-0.576,0.567-1.151,0.848-1.729C14.565,19.309,14.632,19.157,14.702,19.01z"/>
</svg>
