<?xml version="1.0" encoding="utf-8"?>
<!-- Generator: Adobe Illustrator 16.0.0, SVG Export Plug-In . SVG Version: 6.00 Build 0)  -->
<!DOCTYPE svg PUBLIC "-//W3C//DTD SVG 1.1//EN" "http://www.w3.org/Graphics/SVG/1.1/DTD/svg11.dtd" [
	<!ENTITY ns_extend "http://ns.adobe.com/Extensibility/1.0/">
	<!ENTITY ns_ai "http://ns.adobe.com/AdobeIllustrator/10.0/">
	<!ENTITY ns_graphs "http://ns.adobe.com/Graphs/1.0/">
	<!ENTITY ns_vars "http://ns.adobe.com/Variables/1.0/">
	<!ENTITY ns_imrep "http://ns.adobe.com/ImageReplacement/1.0/">
	<!ENTITY ns_sfw "http://ns.adobe.com/SaveForWeb/1.0/">
	<!ENTITY ns_custom "http://ns.adobe.com/GenericCustomNamespace/1.0/">
	<!ENTITY ns_adobe_xpath "http://ns.adobe.com/XPath/1.0/">
]>
<svg version="1.1" id="Capa_1" xmlns:x="&ns_extend;" xmlns:i="&ns_ai;" xmlns:graph="&ns_graphs;"
	 xmlns="http://www.w3.org/2000/svg" xmlns:xlink="http://www.w3.org/1999/xlink" x="0px" y="0px" width="30px" height="30px"
	 viewBox="0 0 30 30" enable-background="new 0 0 30 30" xml:space="preserve">
<metadata>
	<sfw  xmlns="&ns_sfw;">
		<slices></slices>
		<sliceSourceBounds  height="22.678" width="24.859" y="384.988" x="293.071" bottomLeftOrigin="true"></sliceSourceBounds>
	</sfw>
</metadata>
<g>
	<path fill="#FF0000" d="M2.571,15.178c0.201-0.235,0.386-0.492,0.605-0.703c1.552-1.495,3.111-2.983,4.67-4.47
		c1.194-1.138,2.391-2.271,3.585-3.41c0.793-0.755,1.578-1.521,2.376-2.268c0.702-0.66,1.691-0.656,2.395,0.009
		c1.207,1.144,2.404,2.3,3.605,3.452c0.025,0.022,0.053,0.04,0.111,0.086c0.008-0.109,0.018-0.186,0.018-0.263
		c0.002-0.994,0-1.987,0.002-2.981c0-0.563,0.152-0.738,0.637-0.738c0.895-0.001,1.787-0.001,2.68,0
		c0.459,0,0.621,0.187,0.623,0.714c0,2.268,0,4.536-0.006,6.804c0,0.187,0.053,0.311,0.174,0.425
		c1.02,0.963,2.039,1.928,3.051,2.901c0.129,0.123,0.223,0.293,0.332,0.441c0,0.106,0,0.212,0,0.318
		c-0.324,0.457-0.646,0.916-0.973,1.369c-0.283,0.391-0.537,0.427-0.883,0.097c-0.928-0.878-1.848-1.767-2.771-2.649
		c-0.811-0.776-1.625-1.551-2.438-2.326c-0.838-0.8-1.676-1.6-2.514-2.401c-0.902-0.864-1.807-1.727-2.707-2.595
		c-0.105-0.102-0.181-0.104-0.288-0.001c-0.824,0.796-1.651,1.588-2.478,2.379c-0.822,0.787-1.646,1.57-2.469,2.356
		c-0.827,0.79-1.655,1.58-2.483,2.371c-0.923,0.883-1.847,1.766-2.771,2.647c-0.107,0.103-0.21,0.209-0.323,0.302
		c-0.26,0.211-0.497,0.195-0.706-0.082c-0.361-0.48-0.705-0.977-1.057-1.467C2.571,15.39,2.571,15.284,2.571,15.178z"/>
	<path fill="#FF0000" d="M16.973,26.492c0-2.256,0-4.497,0-6.755c-0.086-0.006-0.152-0.011-0.217-0.011
		c-1.172-0.001-2.342,0.004-3.513-0.005c-0.175-0.001-0.224,0.053-0.223,0.253c0.006,2.072,0.004,4.144,0.004,6.216
		c0,0.097,0,0.192,0,0.321c-0.092,0-0.163,0-0.233,0c-1.854,0-3.707,0.001-5.56,0c-0.715,0-1.108-0.445-1.108-1.265
		c-0.002-2.725,0.001-5.448-0.004-8.172c0-0.205,0.065-0.328,0.2-0.456c1.371-1.286,2.734-2.581,4.101-3.873
		c1.203-1.137,2.41-2.271,3.613-3.407c0.32-0.302,0.637-0.608,0.964-0.921c0.486,0.459,0.959,0.906,1.434,1.353
		c1.383,1.306,2.764,2.61,4.146,3.917c1.061,1.001,2.121,2.002,3.176,3.012c0.066,0.062,0.117,0.189,0.117,0.287
		c0.008,2.792,0.01,5.584,0.002,8.377c-0.002,0.673-0.406,1.142-0.986,1.143c-1.934,0.01-3.865,0.005-5.797,0.005
		C17.063,26.511,17.037,26.503,16.973,26.492z"/>
</g>
</svg>
