<?xml version="1.0" encoding="utf-8"?>
<!-- Generator: Adobe Illustrator 16.0.0, SVG Export Plug-In . SVG Version: 6.00 Build 0)  -->
<!DOCTYPE svg PUBLIC "-//W3C//DTD SVG 1.1//EN" "http://www.w3.org/Graphics/SVG/1.1/DTD/svg11.dtd" [
	<!ENTITY ns_extend "http://ns.adobe.com/Extensibility/1.0/">
	<!ENTITY ns_ai "http://ns.adobe.com/AdobeIllustrator/10.0/">
	<!ENTITY ns_graphs "http://ns.adobe.com/Graphs/1.0/">
	<!ENTITY ns_vars "http://ns.adobe.com/Variables/1.0/">
	<!ENTITY ns_imrep "http://ns.adobe.com/ImageReplacement/1.0/">
	<!ENTITY ns_sfw "http://ns.adobe.com/SaveForWeb/1.0/">
	<!ENTITY ns_custom "http://ns.adobe.com/GenericCustomNamespace/1.0/">
	<!ENTITY ns_adobe_xpath "http://ns.adobe.com/XPath/1.0/">
]>
<svg version="1.1" id="Capa_1" xmlns:x="&ns_extend;" xmlns:i="&ns_ai;" xmlns:graph="&ns_graphs;"
	 xmlns="http://www.w3.org/2000/svg" xmlns:xlink="http://www.w3.org/1999/xlink" x="0px" y="0px" width="30px" height="30px"
	 viewBox="0 0 30 30" enable-background="new 0 0 30 30" xml:space="preserve">
<metadata>
	<sfw  xmlns="&ns_sfw;">
		<slices></slices>
		<sliceSourceBounds  height="19.843" width="19.832" y="386.147" x="295.337" bottomLeftOrigin="true"></sliceSourceBounds>
	</sfw>
</metadata>
<g>
	<path fill="#FF0000" d="M18.522,11.979c-0.521-0.622-0.934-1.114-1.398-1.668c-0.75,0.503-1.485,1.012-2.234,1.5
		c-2.548,1.661-5.27,2.916-8.269,3.521C5.7,15.519,5.023,15.176,4.865,14.42c-0.148-0.703,0.304-1.297,1.212-1.489
		c3.507-0.737,6.527-2.473,9.458-4.554c-0.45-0.552-0.882-1.082-1.402-1.722c2.309-0.389,4.498-0.757,6.808-1.145
		C20.126,7.692,19.35,9.771,18.522,11.979z"/>
	<path fill="#FF0000" d="M24.665,18.524c0,1.727,0.005,3.452-0.001,5.18c-0.005,1.202-0.432,1.626-1.626,1.639
		c-0.258,0.002-0.516,0.011-0.772-0.006c-0.823-0.054-1.306-0.496-1.309-1.323c-0.018-3.66-0.018-7.318,0-10.978
		c0.003-0.826,0.485-1.272,1.309-1.323c0.307-0.019,0.617-0.013,0.928-0.003c0.998,0.027,1.459,0.478,1.468,1.482
		C24.676,14.968,24.665,16.746,24.665,18.524z"/>
	<path fill="#FF0000" d="M19.706,19.807c0,1.339,0.01,2.679-0.003,4.018c-0.011,1.055-0.46,1.495-1.512,1.518
		c-0.309,0.005-0.62,0.016-0.928-0.009c-0.778-0.057-1.257-0.499-1.264-1.285c-0.021-2.858-0.022-5.717,0.001-8.576
		c0.007-0.78,0.49-1.223,1.271-1.277c0.333-0.023,0.67-0.016,1.004-0.006c0.953,0.032,1.414,0.484,1.427,1.446
		C19.718,17.025,19.706,18.417,19.706,19.807z"/>
	<path fill="#FF0000" d="M11.031,20.97c-0.001-0.952-0.015-1.905,0.002-2.857c0.018-0.961,0.474-1.412,1.426-1.444
		c0.335-0.012,0.671-0.018,1.004,0.005c0.781,0.056,1.261,0.496,1.271,1.276c0.027,2.034,0.027,4.067,0.001,6.101
		c-0.01,0.784-0.486,1.229-1.264,1.283c-0.358,0.025-0.721,0.022-1.081,0.004c-0.867-0.041-1.333-0.489-1.354-1.357
		C11.012,22.978,11.031,21.973,11.031,20.97z"/>
	<path fill="#FF0000" d="M6.073,22.194c0-0.566-0.02-1.132,0.003-1.697c0.037-0.861,0.495-1.307,1.363-1.349
		c0.333-0.017,0.669-0.017,1.003,0.001c0.833,0.044,1.313,0.478,1.335,1.293c0.032,1.206,0.032,2.416-0.001,3.624
		c-0.022,0.778-0.496,1.217-1.278,1.267c-0.384,0.025-0.772,0.027-1.157,0c-0.776-0.055-1.221-0.503-1.26-1.288
		C6.051,23.429,6.075,22.811,6.073,22.194z"/>
</g>
</svg>
